M48
; DRILL file KiCad 10.0.0 date 2026-04-01T18:41:21
; FORMAT={-:-/ absolute / metric / decimal}
; #@! TF.CreationDate,2026-04-01T18:41:21-07:00
; #@! TF.GenerationSoftware,Kicad,Pcbnew,10.0.0
; #@! TF.FileFunction,Plated,1,2,PTH
FMAT,2
METRIC
; #@! TA.AperFunction,Plated,PTH,ViaDrill
T1C0.300
; #@! TA.AperFunction,Plated,PTH,ComponentDrill
T2C0.700
; #@! TA.AperFunction,Plated,PTH,ComponentDrill
T3C0.750
; #@! TA.AperFunction,Plated,PTH,ComponentDrill
T4C0.800
; #@! TA.AperFunction,Plated,PTH,ComponentDrill
T5C0.889
; #@! TA.AperFunction,Plated,PTH,ComponentDrill
T6C0.900
; #@! TA.AperFunction,Plated,PTH,ComponentDrill
T7C1.000
; #@! TA.AperFunction,Plated,PTH,ComponentDrill
T8C1.100
; #@! TA.AperFunction,Plated,PTH,ComponentDrill
T9C1.220
; #@! TA.AperFunction,Plated,PTH,ComponentDrill
T10C1.420
; #@! TA.AperFunction,Plated,PTH,ComponentDrill
T11C1.430
; #@! TA.AperFunction,Plated,PTH,ComponentDrill
T12C2.007
%
G90
G05
T1
X25.4Y-129.6
X26.8Y-62.6
X27.6Y-111.58
X28.4Y-116.6
X28.6Y-87.4
X29.943Y-109.057
X30.0Y-127.8
X31.0Y-101.6
X33.2Y-144.0
X33.8Y-89.6
X33.8Y-105.0
X34.2Y-54.2
X35.6Y-85.8
X35.8Y-70.6
X37.2Y-128.4
X38.6Y-87.4
X38.6Y-96.8
X39.2Y-144.0
X39.8Y-44.2
X41.2Y-60.9
X41.8Y-71.0
X42.6Y-105.8
X43.2Y-128.1
X43.2Y-136.2
X45.2Y-52.2
X45.4Y-144.0
X48.6Y-74.8
X49.2Y-88.0
X49.986Y-106.8
X50.2Y-104.2
X51.2Y-87.4
X54.2Y-94.4
X56.6Y-116.6
X56.82Y-95.22
X57.407Y-104.207
X57.8Y-48.2
X64.4Y-67.4
X66.6Y-42.6
X67.05Y-144.0
X68.6Y-126.2
X69.2Y-136.8
X70.6Y-123.6
X72.6Y-106.4
X73.4Y-109.42
X73.62Y-58.42
X73.8Y-99.0
X74.6Y-87.8
X88.5Y-63.5
X88.52Y-55.88
X88.54Y-53.34
X88.56Y-60.96
X88.58Y-58.42
X88.6Y-50.8
X88.88Y-98.88
X88.9Y-106.5
X88.96Y-78.42
X88.96Y-103.96
X88.98Y-101.42
X88.98Y-111.58
X89.0Y-83.5
X89.0Y-86.04
X89.0Y-93.8
X89.0Y-109.04
X89.02Y-80.96
X89.04Y-73.34
X92.8Y-112.2
X99.4Y-66.6
X111.325Y-141.2
X113.865Y-141.2
X134.8Y-101.8
X134.8Y-104.34
X134.8Y-106.88
X134.8Y-109.42
T2
X21.88Y-119.8
X23.8Y-130.78
X23.8Y-133.32
X23.8Y-136.0
X23.8Y-138.54
X24.2Y-68.0
X24.42Y-119.8
X26.74Y-68.0
X27.46Y-138.6
X28.0Y-61.2
X28.06Y-53.2
X28.06Y-55.8
X28.06Y-64.0
X28.08Y-58.4
X28.39Y-104.0
X28.59Y-81.2
X28.6Y-84.2
X28.79Y-91.2
X30.0Y-138.6
X30.54Y-61.2
X30.6Y-53.2
X30.6Y-55.8
X30.6Y-64.0
X30.62Y-58.4
X30.93Y-104.0
X30.96Y-116.6
X31.33Y-91.2
X32.6Y-68.08
X32.6Y-70.62
X34.0Y-102.4
X35.46Y-42.0
X35.46Y-48.0
X36.21Y-81.2
X36.22Y-84.2
X36.59Y-105.6
X36.6Y-60.39
X36.6Y-68.01
X38.0Y-42.0
X38.0Y-48.0
X38.06Y-139.2
X38.38Y-130.0
X38.58Y-116.6
X38.6Y-119.26
X38.6Y-121.8
X39.13Y-105.6
X39.4Y-67.97
X39.4Y-75.59
X40.6Y-139.2
X40.8Y-132.98
X40.8Y-135.52
X40.92Y-130.0
X41.58Y-109.8
X41.62Y-102.4
X44.12Y-109.8
X44.2Y-73.99
X44.2Y-81.61
X46.6Y-85.2
X46.6Y-87.74
X46.6Y-101.38
X46.6Y-103.92
X48.6Y-51.4
X48.6Y-53.94
X48.6Y-114.6
X48.6Y-117.14
X50.0Y-101.4
X51.46Y-49.0
X52.54Y-101.4
X54.0Y-49.0
X54.4Y-114.6
X54.4Y-117.14
X54.8Y-53.4
X54.8Y-55.94
X56.98Y-74.2
X57.39Y-143.8
X58.8Y-108.98
X58.8Y-116.6
X58.86Y-53.4
X59.0Y-58.8
X59.52Y-74.2
X59.6Y-78.39
X59.6Y-80.93
X59.86Y-134.8
X59.93Y-143.8
X61.4Y-53.4
X61.54Y-58.8
X61.86Y-102.2
X62.4Y-134.8
X62.46Y-122.2
X64.4Y-74.86
X64.4Y-77.4
X64.4Y-102.2
X65.0Y-122.2
X65.28Y-133.0
X67.8Y-100.68
X67.8Y-103.22
X67.82Y-133.0
X68.86Y-60.2
X68.86Y-64.0
X68.86Y-68.0
X68.86Y-72.0
X71.4Y-60.2
X71.4Y-64.0
X71.4Y-68.0
X71.4Y-72.0
X71.6Y-100.68
X71.6Y-103.22
T3
X29.9Y-75.6
X32.1Y-109.8
X34.9Y-75.6
X36.0Y-91.7
X36.0Y-96.7
X36.6Y-56.8
X37.1Y-109.8
X41.6Y-56.8
X54.2Y-82.6
X54.2Y-87.6
X75.8Y-68.6
X75.8Y-73.6
T4
X23.6Y-123.0
X23.6Y-128.0
X27.38Y-120.2
X27.38Y-122.74
X27.38Y-125.28
X27.38Y-127.82
X27.38Y-130.36
X27.38Y-132.9
X27.38Y-135.44
X35.0Y-120.2
X35.0Y-122.74
X35.0Y-125.28
X35.0Y-127.82
X35.0Y-130.36
X35.0Y-132.9
X35.0Y-135.44
X36.6Y-87.4
X37.7Y-126.0
X41.5Y-42.0
X41.58Y-90.58
X41.58Y-98.2
X41.6Y-87.4
X42.6Y-48.0
X42.6Y-53.0
X42.7Y-126.0
X44.12Y-90.58
X44.12Y-98.2
X44.18Y-63.4
X44.18Y-71.02
X45.4Y-128.1
X45.4Y-133.1
X45.4Y-136.2
X45.4Y-141.2
X46.5Y-42.0
X46.6Y-58.8
X46.66Y-90.58
X46.66Y-98.2
X46.72Y-63.4
X46.72Y-71.02
X49.2Y-90.58
X49.2Y-98.2
X49.26Y-63.4
X49.26Y-71.02
X51.6Y-58.8
X51.74Y-90.58
X51.74Y-98.2
X51.8Y-63.4
X51.8Y-71.02
X51.8Y-74.7
X51.8Y-79.7
X52.6Y-129.1
X52.6Y-131.6
X52.8Y-136.2
X52.8Y-138.7
X54.28Y-90.58
X54.28Y-98.2
X54.34Y-63.4
X54.34Y-71.02
X56.82Y-90.58
X56.82Y-98.2
X56.88Y-63.4
X56.88Y-71.02
X59.36Y-90.58
X59.36Y-98.2
X59.42Y-63.4
X59.42Y-71.02
X62.4Y-83.0
X62.4Y-88.0
X62.52Y-107.6
X62.52Y-115.4
X64.12Y-48.0
X65.06Y-107.6
X65.06Y-115.4
X66.66Y-48.0
X67.6Y-107.6
X67.6Y-115.4
X69.2Y-48.0
X69.625Y-90.46
X69.625Y-93.0
X69.625Y-95.54
X69.805Y-79.86
X69.805Y-82.4
X69.805Y-84.94
X95.32Y-64.8
X97.86Y-64.8
X100.4Y-64.8
X105.52Y-64.8
X108.06Y-64.8
X110.6Y-64.8
X115.72Y-64.8
X118.26Y-64.8
X120.8Y-64.8
T5
X50.93Y-41.4
X52.2Y-43.94
X53.47Y-41.4
X91.9Y-46.6
X91.9Y-49.1
X91.9Y-51.6
X91.9Y-54.1
X91.9Y-56.6
X110.2Y-46.6
X110.2Y-49.1
X110.2Y-51.6
X110.2Y-54.1
X110.2Y-56.6
T6
X110.26Y-137.8
X112.8Y-137.8
T7
X25.0Y-50.8
X25.0Y-53.34
X25.0Y-55.88
X25.0Y-58.42
X25.0Y-60.96
X25.0Y-63.5
X25.0Y-73.8
X25.0Y-76.34
X25.0Y-78.88
X25.0Y-81.42
X25.0Y-83.96
X25.0Y-86.5
X25.0Y-93.8
X25.0Y-96.34
X25.0Y-98.88
X25.0Y-101.42
X25.0Y-103.96
X25.0Y-106.5
X25.0Y-109.04
X25.0Y-111.58
X25.0Y-116.6
X30.4Y-144.0
X36.2Y-144.0
X42.2Y-144.0
X50.26Y-143.8
X52.8Y-143.8
X59.0Y-42.6
X64.45Y-144.0
X73.26Y-117.71
X73.26Y-120.25
X73.26Y-122.79
X73.26Y-125.33
X73.26Y-127.87
X73.26Y-130.41
X73.26Y-132.95
X73.26Y-135.49
X75.8Y-50.8
X75.8Y-53.34
X75.8Y-55.88
X75.8Y-58.42
X75.8Y-60.96
X75.8Y-63.5
X75.8Y-101.8
X75.8Y-104.34
X75.8Y-106.88
X75.8Y-109.42
X75.8Y-117.71
X75.8Y-120.25
X75.8Y-122.79
X75.8Y-125.33
X75.8Y-127.87
X75.8Y-130.41
X75.8Y-132.95
X75.8Y-135.49
X86.0Y-50.8
X86.0Y-53.34
X86.0Y-55.88
X86.0Y-58.42
X86.0Y-60.96
X86.0Y-63.5
X86.0Y-93.8
X86.0Y-96.34
X86.0Y-98.88
X86.0Y-101.42
X86.0Y-103.96
X86.0Y-106.5
X86.0Y-109.04
X86.0Y-111.58
X86.04Y-73.34
X86.04Y-75.88
X86.04Y-78.42
X86.04Y-80.96
X86.04Y-83.5
X86.04Y-86.04
X98.6Y-88.8
X98.6Y-91.3
X98.6Y-93.8
X111.46Y-143.8
X114.0Y-143.8
X114.1Y-49.05
X114.1Y-51.55
X114.1Y-54.05
X120.2Y-89.2
X120.2Y-91.7
X120.2Y-94.2
X120.2Y-104.4
X120.2Y-106.9
X120.2Y-109.4
X137.0Y-50.8
X137.0Y-53.34
X137.0Y-55.88
X137.0Y-58.42
X137.0Y-60.96
X137.0Y-63.5
X137.0Y-101.8
X137.0Y-104.34
X137.0Y-106.88
X137.0Y-109.42
T8
X58.44Y-128.6
X59.04Y-139.2
X68.6Y-128.6
X69.2Y-139.2
T9
X95.2Y-120.4
X95.4Y-70.4
X95.4Y-100.82
X106.0Y-120.4
X106.2Y-70.42
X116.8Y-120.4
X117.0Y-70.4
X127.6Y-120.4
X127.8Y-70.4
T10
X95.2Y-123.5
X95.4Y-73.5
X95.4Y-103.92
X106.0Y-123.5
X106.2Y-73.52
X116.8Y-123.5
X117.0Y-73.5
X127.6Y-123.5
X127.8Y-73.5
T11
X95.2Y-131.8
X95.4Y-81.8
X95.4Y-112.22
X106.0Y-131.8
X106.2Y-81.82
X116.8Y-131.8
X117.0Y-81.8
X127.6Y-131.8
X127.8Y-81.8
T12
X102.03Y-43.6
X102.03Y-59.6
T7
X106.65Y-102.75G85X105.35Y-102.75
G05
X106.65Y-107.2G85X105.35Y-107.2
G05
X106.65Y-111.65G85X105.35Y-111.65
G05
T8
X106.1Y-86.2G85X106.1Y-86.9
G05
X106.1Y-95.7G85X106.1Y-96.4
G05
X121.6Y-46.45G85X121.6Y-47.15
G05
X121.6Y-55.95G85X121.6Y-56.65
G05
X127.7Y-86.6G85X127.7Y-87.3
G05
X127.7Y-96.1G85X127.7Y-96.8
G05
X127.7Y-101.8G85X127.7Y-102.5
G05
X127.7Y-111.3G85X127.7Y-112.0
G05
M30
