G04 #@! TF.GenerationSoftware,KiCad,Pcbnew,10.0.0*
G04 #@! TF.CreationDate,2026-04-13T13:59:17-07:00*
G04 #@! TF.ProjectId,VCO 2,56434f20-322e-46b6-9963-61645f706362,rev?*
G04 #@! TF.SameCoordinates,Original*
G04 #@! TF.FileFunction,Legend,Bot*
G04 #@! TF.FilePolarity,Positive*
%FSLAX46Y46*%
G04 Gerber Fmt 4.6, Leading zero omitted, Abs format (unit mm)*
G04 Created by KiCad (PCBNEW 10.0.0) date 2026-04-13 13:59:17*
%MOMM*%
%LPD*%
G01*
G04 APERTURE LIST*
%ADD10C,0.153000*%
%ADD11C,0.508000*%
%ADD12C,0.120000*%
G04 APERTURE END LIST*
D10*
X67716190Y-111759775D02*
X67382857Y-112759775D01*
X67382857Y-112759775D02*
X67049524Y-111759775D01*
X66144762Y-112664536D02*
X66192381Y-112712156D01*
X66192381Y-112712156D02*
X66335238Y-112759775D01*
X66335238Y-112759775D02*
X66430476Y-112759775D01*
X66430476Y-112759775D02*
X66573333Y-112712156D01*
X66573333Y-112712156D02*
X66668571Y-112616917D01*
X66668571Y-112616917D02*
X66716190Y-112521679D01*
X66716190Y-112521679D02*
X66763809Y-112331203D01*
X66763809Y-112331203D02*
X66763809Y-112188346D01*
X66763809Y-112188346D02*
X66716190Y-111997870D01*
X66716190Y-111997870D02*
X66668571Y-111902632D01*
X66668571Y-111902632D02*
X66573333Y-111807394D01*
X66573333Y-111807394D02*
X66430476Y-111759775D01*
X66430476Y-111759775D02*
X66335238Y-111759775D01*
X66335238Y-111759775D02*
X66192381Y-111807394D01*
X66192381Y-111807394D02*
X66144762Y-111855013D01*
X65525714Y-111759775D02*
X65335238Y-111759775D01*
X65335238Y-111759775D02*
X65240000Y-111807394D01*
X65240000Y-111807394D02*
X65144762Y-111902632D01*
X65144762Y-111902632D02*
X65097143Y-112093108D01*
X65097143Y-112093108D02*
X65097143Y-112426441D01*
X65097143Y-112426441D02*
X65144762Y-112616917D01*
X65144762Y-112616917D02*
X65240000Y-112712156D01*
X65240000Y-112712156D02*
X65335238Y-112759775D01*
X65335238Y-112759775D02*
X65525714Y-112759775D01*
X65525714Y-112759775D02*
X65620952Y-112712156D01*
X65620952Y-112712156D02*
X65716190Y-112616917D01*
X65716190Y-112616917D02*
X65763809Y-112426441D01*
X65763809Y-112426441D02*
X65763809Y-112093108D01*
X65763809Y-112093108D02*
X65716190Y-111902632D01*
X65716190Y-111902632D02*
X65620952Y-111807394D01*
X65620952Y-111807394D02*
X65525714Y-111759775D01*
X64716190Y-111855013D02*
X64668571Y-111807394D01*
X64668571Y-111807394D02*
X64573333Y-111759775D01*
X64573333Y-111759775D02*
X64335238Y-111759775D01*
X64335238Y-111759775D02*
X64240000Y-111807394D01*
X64240000Y-111807394D02*
X64192381Y-111855013D01*
X64192381Y-111855013D02*
X64144762Y-111950251D01*
X64144762Y-111950251D02*
X64144762Y-112045489D01*
X64144762Y-112045489D02*
X64192381Y-112188346D01*
X64192381Y-112188346D02*
X64763809Y-112759775D01*
X64763809Y-112759775D02*
X64144762Y-112759775D01*
X62954285Y-112378822D02*
X62192381Y-112378822D01*
X60954285Y-112759775D02*
X60954285Y-111759775D01*
X60954285Y-111759775D02*
X60620952Y-112474060D01*
X60620952Y-112474060D02*
X60287619Y-111759775D01*
X60287619Y-111759775D02*
X60287619Y-112759775D01*
X59382857Y-112759775D02*
X59382857Y-112235965D01*
X59382857Y-112235965D02*
X59430476Y-112140727D01*
X59430476Y-112140727D02*
X59525714Y-112093108D01*
X59525714Y-112093108D02*
X59716190Y-112093108D01*
X59716190Y-112093108D02*
X59811428Y-112140727D01*
X59382857Y-112712156D02*
X59478095Y-112759775D01*
X59478095Y-112759775D02*
X59716190Y-112759775D01*
X59716190Y-112759775D02*
X59811428Y-112712156D01*
X59811428Y-112712156D02*
X59859047Y-112616917D01*
X59859047Y-112616917D02*
X59859047Y-112521679D01*
X59859047Y-112521679D02*
X59811428Y-112426441D01*
X59811428Y-112426441D02*
X59716190Y-112378822D01*
X59716190Y-112378822D02*
X59478095Y-112378822D01*
X59478095Y-112378822D02*
X59382857Y-112331203D01*
X58906666Y-112759775D02*
X58906666Y-112093108D01*
X58906666Y-111759775D02*
X58954285Y-111807394D01*
X58954285Y-111807394D02*
X58906666Y-111855013D01*
X58906666Y-111855013D02*
X58859047Y-111807394D01*
X58859047Y-111807394D02*
X58906666Y-111759775D01*
X58906666Y-111759775D02*
X58906666Y-111855013D01*
X58430476Y-112093108D02*
X58430476Y-112759775D01*
X58430476Y-112188346D02*
X58382857Y-112140727D01*
X58382857Y-112140727D02*
X58287619Y-112093108D01*
X58287619Y-112093108D02*
X58144762Y-112093108D01*
X58144762Y-112093108D02*
X58049524Y-112140727D01*
X58049524Y-112140727D02*
X58001905Y-112235965D01*
X58001905Y-112235965D02*
X58001905Y-112759775D01*
X56430476Y-112235965D02*
X56287619Y-112283584D01*
X56287619Y-112283584D02*
X56240000Y-112331203D01*
X56240000Y-112331203D02*
X56192381Y-112426441D01*
X56192381Y-112426441D02*
X56192381Y-112569298D01*
X56192381Y-112569298D02*
X56240000Y-112664536D01*
X56240000Y-112664536D02*
X56287619Y-112712156D01*
X56287619Y-112712156D02*
X56382857Y-112759775D01*
X56382857Y-112759775D02*
X56763809Y-112759775D01*
X56763809Y-112759775D02*
X56763809Y-111759775D01*
X56763809Y-111759775D02*
X56430476Y-111759775D01*
X56430476Y-111759775D02*
X56335238Y-111807394D01*
X56335238Y-111807394D02*
X56287619Y-111855013D01*
X56287619Y-111855013D02*
X56240000Y-111950251D01*
X56240000Y-111950251D02*
X56240000Y-112045489D01*
X56240000Y-112045489D02*
X56287619Y-112140727D01*
X56287619Y-112140727D02*
X56335238Y-112188346D01*
X56335238Y-112188346D02*
X56430476Y-112235965D01*
X56430476Y-112235965D02*
X56763809Y-112235965D01*
X55620952Y-112759775D02*
X55716190Y-112712156D01*
X55716190Y-112712156D02*
X55763809Y-112664536D01*
X55763809Y-112664536D02*
X55811428Y-112569298D01*
X55811428Y-112569298D02*
X55811428Y-112283584D01*
X55811428Y-112283584D02*
X55763809Y-112188346D01*
X55763809Y-112188346D02*
X55716190Y-112140727D01*
X55716190Y-112140727D02*
X55620952Y-112093108D01*
X55620952Y-112093108D02*
X55478095Y-112093108D01*
X55478095Y-112093108D02*
X55382857Y-112140727D01*
X55382857Y-112140727D02*
X55335238Y-112188346D01*
X55335238Y-112188346D02*
X55287619Y-112283584D01*
X55287619Y-112283584D02*
X55287619Y-112569298D01*
X55287619Y-112569298D02*
X55335238Y-112664536D01*
X55335238Y-112664536D02*
X55382857Y-112712156D01*
X55382857Y-112712156D02*
X55478095Y-112759775D01*
X55478095Y-112759775D02*
X55620952Y-112759775D01*
X54430476Y-112759775D02*
X54430476Y-112235965D01*
X54430476Y-112235965D02*
X54478095Y-112140727D01*
X54478095Y-112140727D02*
X54573333Y-112093108D01*
X54573333Y-112093108D02*
X54763809Y-112093108D01*
X54763809Y-112093108D02*
X54859047Y-112140727D01*
X54430476Y-112712156D02*
X54525714Y-112759775D01*
X54525714Y-112759775D02*
X54763809Y-112759775D01*
X54763809Y-112759775D02*
X54859047Y-112712156D01*
X54859047Y-112712156D02*
X54906666Y-112616917D01*
X54906666Y-112616917D02*
X54906666Y-112521679D01*
X54906666Y-112521679D02*
X54859047Y-112426441D01*
X54859047Y-112426441D02*
X54763809Y-112378822D01*
X54763809Y-112378822D02*
X54525714Y-112378822D01*
X54525714Y-112378822D02*
X54430476Y-112331203D01*
X53954285Y-112759775D02*
X53954285Y-112093108D01*
X53954285Y-112283584D02*
X53906666Y-112188346D01*
X53906666Y-112188346D02*
X53859047Y-112140727D01*
X53859047Y-112140727D02*
X53763809Y-112093108D01*
X53763809Y-112093108D02*
X53668571Y-112093108D01*
X52906666Y-112759775D02*
X52906666Y-111759775D01*
X52906666Y-112712156D02*
X53001904Y-112759775D01*
X53001904Y-112759775D02*
X53192380Y-112759775D01*
X53192380Y-112759775D02*
X53287618Y-112712156D01*
X53287618Y-112712156D02*
X53335237Y-112664536D01*
X53335237Y-112664536D02*
X53382856Y-112569298D01*
X53382856Y-112569298D02*
X53382856Y-112283584D01*
X53382856Y-112283584D02*
X53335237Y-112188346D01*
X53335237Y-112188346D02*
X53287618Y-112140727D01*
X53287618Y-112140727D02*
X53192380Y-112093108D01*
X53192380Y-112093108D02*
X53001904Y-112093108D01*
X53001904Y-112093108D02*
X52906666Y-112140727D01*
X63120951Y-113369719D02*
X62787618Y-114369719D01*
X62787618Y-114369719D02*
X62454285Y-113369719D01*
X61739999Y-114322100D02*
X61835237Y-114369719D01*
X61835237Y-114369719D02*
X62025713Y-114369719D01*
X62025713Y-114369719D02*
X62120951Y-114322100D01*
X62120951Y-114322100D02*
X62168570Y-114226861D01*
X62168570Y-114226861D02*
X62168570Y-113845909D01*
X62168570Y-113845909D02*
X62120951Y-113750671D01*
X62120951Y-113750671D02*
X62025713Y-113703052D01*
X62025713Y-113703052D02*
X61835237Y-113703052D01*
X61835237Y-113703052D02*
X61739999Y-113750671D01*
X61739999Y-113750671D02*
X61692380Y-113845909D01*
X61692380Y-113845909D02*
X61692380Y-113941147D01*
X61692380Y-113941147D02*
X62168570Y-114036385D01*
X61263808Y-114369719D02*
X61263808Y-113703052D01*
X61263808Y-113893528D02*
X61216189Y-113798290D01*
X61216189Y-113798290D02*
X61168570Y-113750671D01*
X61168570Y-113750671D02*
X61073332Y-113703052D01*
X61073332Y-113703052D02*
X60978094Y-113703052D01*
X60644760Y-114274480D02*
X60597141Y-114322100D01*
X60597141Y-114322100D02*
X60644760Y-114369719D01*
X60644760Y-114369719D02*
X60692379Y-114322100D01*
X60692379Y-114322100D02*
X60644760Y-114274480D01*
X60644760Y-114274480D02*
X60644760Y-114369719D01*
X60644760Y-113750671D02*
X60597141Y-113798290D01*
X60597141Y-113798290D02*
X60644760Y-113845909D01*
X60644760Y-113845909D02*
X60692379Y-113798290D01*
X60692379Y-113798290D02*
X60644760Y-113750671D01*
X60644760Y-113750671D02*
X60644760Y-113845909D01*
X58882856Y-114369719D02*
X59454284Y-114369719D01*
X59168570Y-114369719D02*
X59168570Y-113369719D01*
X59168570Y-113369719D02*
X59263808Y-113512576D01*
X59263808Y-113512576D02*
X59359046Y-113607814D01*
X59359046Y-113607814D02*
X59454284Y-113655433D01*
X58454284Y-114274480D02*
X58406665Y-114322100D01*
X58406665Y-114322100D02*
X58454284Y-114369719D01*
X58454284Y-114369719D02*
X58501903Y-114322100D01*
X58501903Y-114322100D02*
X58454284Y-114274480D01*
X58454284Y-114274480D02*
X58454284Y-114369719D01*
X58025713Y-113464957D02*
X57978094Y-113417338D01*
X57978094Y-113417338D02*
X57882856Y-113369719D01*
X57882856Y-113369719D02*
X57644761Y-113369719D01*
X57644761Y-113369719D02*
X57549523Y-113417338D01*
X57549523Y-113417338D02*
X57501904Y-113464957D01*
X57501904Y-113464957D02*
X57454285Y-113560195D01*
X57454285Y-113560195D02*
X57454285Y-113655433D01*
X57454285Y-113655433D02*
X57501904Y-113798290D01*
X57501904Y-113798290D02*
X58073332Y-114369719D01*
X58073332Y-114369719D02*
X57454285Y-114369719D01*
X67311428Y-115979663D02*
X67311428Y-114979663D01*
X67311428Y-114979663D02*
X66740000Y-115979663D01*
X66740000Y-115979663D02*
X66740000Y-114979663D01*
X66263809Y-115979663D02*
X66263809Y-115312996D01*
X66263809Y-114979663D02*
X66311428Y-115027282D01*
X66311428Y-115027282D02*
X66263809Y-115074901D01*
X66263809Y-115074901D02*
X66216190Y-115027282D01*
X66216190Y-115027282D02*
X66263809Y-114979663D01*
X66263809Y-114979663D02*
X66263809Y-115074901D01*
X65359048Y-115312996D02*
X65359048Y-116122520D01*
X65359048Y-116122520D02*
X65406667Y-116217758D01*
X65406667Y-116217758D02*
X65454286Y-116265377D01*
X65454286Y-116265377D02*
X65549524Y-116312996D01*
X65549524Y-116312996D02*
X65692381Y-116312996D01*
X65692381Y-116312996D02*
X65787619Y-116265377D01*
X65359048Y-115932044D02*
X65454286Y-115979663D01*
X65454286Y-115979663D02*
X65644762Y-115979663D01*
X65644762Y-115979663D02*
X65740000Y-115932044D01*
X65740000Y-115932044D02*
X65787619Y-115884424D01*
X65787619Y-115884424D02*
X65835238Y-115789186D01*
X65835238Y-115789186D02*
X65835238Y-115503472D01*
X65835238Y-115503472D02*
X65787619Y-115408234D01*
X65787619Y-115408234D02*
X65740000Y-115360615D01*
X65740000Y-115360615D02*
X65644762Y-115312996D01*
X65644762Y-115312996D02*
X65454286Y-115312996D01*
X65454286Y-115312996D02*
X65359048Y-115360615D01*
X64501905Y-115932044D02*
X64597143Y-115979663D01*
X64597143Y-115979663D02*
X64787619Y-115979663D01*
X64787619Y-115979663D02*
X64882857Y-115932044D01*
X64882857Y-115932044D02*
X64930476Y-115836805D01*
X64930476Y-115836805D02*
X64930476Y-115455853D01*
X64930476Y-115455853D02*
X64882857Y-115360615D01*
X64882857Y-115360615D02*
X64787619Y-115312996D01*
X64787619Y-115312996D02*
X64597143Y-115312996D01*
X64597143Y-115312996D02*
X64501905Y-115360615D01*
X64501905Y-115360615D02*
X64454286Y-115455853D01*
X64454286Y-115455853D02*
X64454286Y-115551091D01*
X64454286Y-115551091D02*
X64930476Y-115646329D01*
X63882857Y-115979663D02*
X63978095Y-115932044D01*
X63978095Y-115932044D02*
X64025714Y-115836805D01*
X64025714Y-115836805D02*
X64025714Y-114979663D01*
X62739999Y-115979663D02*
X62739999Y-114979663D01*
X62739999Y-114979663D02*
X62501904Y-114979663D01*
X62501904Y-114979663D02*
X62359047Y-115027282D01*
X62359047Y-115027282D02*
X62263809Y-115122520D01*
X62263809Y-115122520D02*
X62216190Y-115217758D01*
X62216190Y-115217758D02*
X62168571Y-115408234D01*
X62168571Y-115408234D02*
X62168571Y-115551091D01*
X62168571Y-115551091D02*
X62216190Y-115741567D01*
X62216190Y-115741567D02*
X62263809Y-115836805D01*
X62263809Y-115836805D02*
X62359047Y-115932044D01*
X62359047Y-115932044D02*
X62501904Y-115979663D01*
X62501904Y-115979663D02*
X62739999Y-115979663D01*
X61311428Y-115979663D02*
X61311428Y-115455853D01*
X61311428Y-115455853D02*
X61359047Y-115360615D01*
X61359047Y-115360615D02*
X61454285Y-115312996D01*
X61454285Y-115312996D02*
X61644761Y-115312996D01*
X61644761Y-115312996D02*
X61739999Y-115360615D01*
X61311428Y-115932044D02*
X61406666Y-115979663D01*
X61406666Y-115979663D02*
X61644761Y-115979663D01*
X61644761Y-115979663D02*
X61739999Y-115932044D01*
X61739999Y-115932044D02*
X61787618Y-115836805D01*
X61787618Y-115836805D02*
X61787618Y-115741567D01*
X61787618Y-115741567D02*
X61739999Y-115646329D01*
X61739999Y-115646329D02*
X61644761Y-115598710D01*
X61644761Y-115598710D02*
X61406666Y-115598710D01*
X61406666Y-115598710D02*
X61311428Y-115551091D01*
X60835237Y-115312996D02*
X60835237Y-115979663D01*
X60835237Y-115408234D02*
X60787618Y-115360615D01*
X60787618Y-115360615D02*
X60692380Y-115312996D01*
X60692380Y-115312996D02*
X60549523Y-115312996D01*
X60549523Y-115312996D02*
X60454285Y-115360615D01*
X60454285Y-115360615D02*
X60406666Y-115455853D01*
X60406666Y-115455853D02*
X60406666Y-115979663D01*
X59930475Y-115979663D02*
X59930475Y-115312996D01*
X59930475Y-114979663D02*
X59978094Y-115027282D01*
X59978094Y-115027282D02*
X59930475Y-115074901D01*
X59930475Y-115074901D02*
X59882856Y-115027282D01*
X59882856Y-115027282D02*
X59930475Y-114979663D01*
X59930475Y-114979663D02*
X59930475Y-115074901D01*
X59073333Y-115932044D02*
X59168571Y-115979663D01*
X59168571Y-115979663D02*
X59359047Y-115979663D01*
X59359047Y-115979663D02*
X59454285Y-115932044D01*
X59454285Y-115932044D02*
X59501904Y-115836805D01*
X59501904Y-115836805D02*
X59501904Y-115455853D01*
X59501904Y-115455853D02*
X59454285Y-115360615D01*
X59454285Y-115360615D02*
X59359047Y-115312996D01*
X59359047Y-115312996D02*
X59168571Y-115312996D01*
X59168571Y-115312996D02*
X59073333Y-115360615D01*
X59073333Y-115360615D02*
X59025714Y-115455853D01*
X59025714Y-115455853D02*
X59025714Y-115551091D01*
X59025714Y-115551091D02*
X59501904Y-115646329D01*
X58454285Y-115979663D02*
X58549523Y-115932044D01*
X58549523Y-115932044D02*
X58597142Y-115836805D01*
X58597142Y-115836805D02*
X58597142Y-114979663D01*
X58120951Y-115932044D02*
X58025713Y-115979663D01*
X58025713Y-115979663D02*
X57835237Y-115979663D01*
X57835237Y-115979663D02*
X57739999Y-115932044D01*
X57739999Y-115932044D02*
X57692380Y-115836805D01*
X57692380Y-115836805D02*
X57692380Y-115789186D01*
X57692380Y-115789186D02*
X57739999Y-115693948D01*
X57739999Y-115693948D02*
X57835237Y-115646329D01*
X57835237Y-115646329D02*
X57978094Y-115646329D01*
X57978094Y-115646329D02*
X58073332Y-115598710D01*
X58073332Y-115598710D02*
X58120951Y-115503472D01*
X58120951Y-115503472D02*
X58120951Y-115455853D01*
X58120951Y-115455853D02*
X58073332Y-115360615D01*
X58073332Y-115360615D02*
X57978094Y-115312996D01*
X57978094Y-115312996D02*
X57835237Y-115312996D01*
X57835237Y-115312996D02*
X57739999Y-115360615D01*
X56549522Y-115074901D02*
X56501903Y-115027282D01*
X56501903Y-115027282D02*
X56406665Y-114979663D01*
X56406665Y-114979663D02*
X56168570Y-114979663D01*
X56168570Y-114979663D02*
X56073332Y-115027282D01*
X56073332Y-115027282D02*
X56025713Y-115074901D01*
X56025713Y-115074901D02*
X55978094Y-115170139D01*
X55978094Y-115170139D02*
X55978094Y-115265377D01*
X55978094Y-115265377D02*
X56025713Y-115408234D01*
X56025713Y-115408234D02*
X56597141Y-115979663D01*
X56597141Y-115979663D02*
X55978094Y-115979663D01*
X55359046Y-114979663D02*
X55263808Y-114979663D01*
X55263808Y-114979663D02*
X55168570Y-115027282D01*
X55168570Y-115027282D02*
X55120951Y-115074901D01*
X55120951Y-115074901D02*
X55073332Y-115170139D01*
X55073332Y-115170139D02*
X55025713Y-115360615D01*
X55025713Y-115360615D02*
X55025713Y-115598710D01*
X55025713Y-115598710D02*
X55073332Y-115789186D01*
X55073332Y-115789186D02*
X55120951Y-115884424D01*
X55120951Y-115884424D02*
X55168570Y-115932044D01*
X55168570Y-115932044D02*
X55263808Y-115979663D01*
X55263808Y-115979663D02*
X55359046Y-115979663D01*
X55359046Y-115979663D02*
X55454284Y-115932044D01*
X55454284Y-115932044D02*
X55501903Y-115884424D01*
X55501903Y-115884424D02*
X55549522Y-115789186D01*
X55549522Y-115789186D02*
X55597141Y-115598710D01*
X55597141Y-115598710D02*
X55597141Y-115360615D01*
X55597141Y-115360615D02*
X55549522Y-115170139D01*
X55549522Y-115170139D02*
X55501903Y-115074901D01*
X55501903Y-115074901D02*
X55454284Y-115027282D01*
X55454284Y-115027282D02*
X55359046Y-114979663D01*
X54644760Y-115074901D02*
X54597141Y-115027282D01*
X54597141Y-115027282D02*
X54501903Y-114979663D01*
X54501903Y-114979663D02*
X54263808Y-114979663D01*
X54263808Y-114979663D02*
X54168570Y-115027282D01*
X54168570Y-115027282D02*
X54120951Y-115074901D01*
X54120951Y-115074901D02*
X54073332Y-115170139D01*
X54073332Y-115170139D02*
X54073332Y-115265377D01*
X54073332Y-115265377D02*
X54120951Y-115408234D01*
X54120951Y-115408234D02*
X54692379Y-115979663D01*
X54692379Y-115979663D02*
X54073332Y-115979663D01*
X53216189Y-114979663D02*
X53406665Y-114979663D01*
X53406665Y-114979663D02*
X53501903Y-115027282D01*
X53501903Y-115027282D02*
X53549522Y-115074901D01*
X53549522Y-115074901D02*
X53644760Y-115217758D01*
X53644760Y-115217758D02*
X53692379Y-115408234D01*
X53692379Y-115408234D02*
X53692379Y-115789186D01*
X53692379Y-115789186D02*
X53644760Y-115884424D01*
X53644760Y-115884424D02*
X53597141Y-115932044D01*
X53597141Y-115932044D02*
X53501903Y-115979663D01*
X53501903Y-115979663D02*
X53311427Y-115979663D01*
X53311427Y-115979663D02*
X53216189Y-115932044D01*
X53216189Y-115932044D02*
X53168570Y-115884424D01*
X53168570Y-115884424D02*
X53120951Y-115789186D01*
X53120951Y-115789186D02*
X53120951Y-115551091D01*
X53120951Y-115551091D02*
X53168570Y-115455853D01*
X53168570Y-115455853D02*
X53216189Y-115408234D01*
X53216189Y-115408234D02*
X53311427Y-115360615D01*
X53311427Y-115360615D02*
X53501903Y-115360615D01*
X53501903Y-115360615D02*
X53597141Y-115408234D01*
X53597141Y-115408234D02*
X53644760Y-115455853D01*
X53644760Y-115455853D02*
X53692379Y-115551091D01*
X189899048Y-143489775D02*
X189565715Y-144489775D01*
X189565715Y-144489775D02*
X189232382Y-143489775D01*
X188327620Y-144394536D02*
X188375239Y-144442156D01*
X188375239Y-144442156D02*
X188518096Y-144489775D01*
X188518096Y-144489775D02*
X188613334Y-144489775D01*
X188613334Y-144489775D02*
X188756191Y-144442156D01*
X188756191Y-144442156D02*
X188851429Y-144346917D01*
X188851429Y-144346917D02*
X188899048Y-144251679D01*
X188899048Y-144251679D02*
X188946667Y-144061203D01*
X188946667Y-144061203D02*
X188946667Y-143918346D01*
X188946667Y-143918346D02*
X188899048Y-143727870D01*
X188899048Y-143727870D02*
X188851429Y-143632632D01*
X188851429Y-143632632D02*
X188756191Y-143537394D01*
X188756191Y-143537394D02*
X188613334Y-143489775D01*
X188613334Y-143489775D02*
X188518096Y-143489775D01*
X188518096Y-143489775D02*
X188375239Y-143537394D01*
X188375239Y-143537394D02*
X188327620Y-143585013D01*
X187708572Y-143489775D02*
X187518096Y-143489775D01*
X187518096Y-143489775D02*
X187422858Y-143537394D01*
X187422858Y-143537394D02*
X187327620Y-143632632D01*
X187327620Y-143632632D02*
X187280001Y-143823108D01*
X187280001Y-143823108D02*
X187280001Y-144156441D01*
X187280001Y-144156441D02*
X187327620Y-144346917D01*
X187327620Y-144346917D02*
X187422858Y-144442156D01*
X187422858Y-144442156D02*
X187518096Y-144489775D01*
X187518096Y-144489775D02*
X187708572Y-144489775D01*
X187708572Y-144489775D02*
X187803810Y-144442156D01*
X187803810Y-144442156D02*
X187899048Y-144346917D01*
X187899048Y-144346917D02*
X187946667Y-144156441D01*
X187946667Y-144156441D02*
X187946667Y-143823108D01*
X187946667Y-143823108D02*
X187899048Y-143632632D01*
X187899048Y-143632632D02*
X187803810Y-143537394D01*
X187803810Y-143537394D02*
X187708572Y-143489775D01*
X186899048Y-143585013D02*
X186851429Y-143537394D01*
X186851429Y-143537394D02*
X186756191Y-143489775D01*
X186756191Y-143489775D02*
X186518096Y-143489775D01*
X186518096Y-143489775D02*
X186422858Y-143537394D01*
X186422858Y-143537394D02*
X186375239Y-143585013D01*
X186375239Y-143585013D02*
X186327620Y-143680251D01*
X186327620Y-143680251D02*
X186327620Y-143775489D01*
X186327620Y-143775489D02*
X186375239Y-143918346D01*
X186375239Y-143918346D02*
X186946667Y-144489775D01*
X186946667Y-144489775D02*
X186327620Y-144489775D01*
X185137143Y-144108822D02*
X184375239Y-144108822D01*
X182803810Y-143965965D02*
X183137143Y-143965965D01*
X183137143Y-144489775D02*
X183137143Y-143489775D01*
X183137143Y-143489775D02*
X182660953Y-143489775D01*
X182280000Y-144489775D02*
X182280000Y-143823108D01*
X182280000Y-144013584D02*
X182232381Y-143918346D01*
X182232381Y-143918346D02*
X182184762Y-143870727D01*
X182184762Y-143870727D02*
X182089524Y-143823108D01*
X182089524Y-143823108D02*
X181994286Y-143823108D01*
X181518095Y-144489775D02*
X181613333Y-144442156D01*
X181613333Y-144442156D02*
X181660952Y-144394536D01*
X181660952Y-144394536D02*
X181708571Y-144299298D01*
X181708571Y-144299298D02*
X181708571Y-144013584D01*
X181708571Y-144013584D02*
X181660952Y-143918346D01*
X181660952Y-143918346D02*
X181613333Y-143870727D01*
X181613333Y-143870727D02*
X181518095Y-143823108D01*
X181518095Y-143823108D02*
X181375238Y-143823108D01*
X181375238Y-143823108D02*
X181280000Y-143870727D01*
X181280000Y-143870727D02*
X181232381Y-143918346D01*
X181232381Y-143918346D02*
X181184762Y-144013584D01*
X181184762Y-144013584D02*
X181184762Y-144299298D01*
X181184762Y-144299298D02*
X181232381Y-144394536D01*
X181232381Y-144394536D02*
X181280000Y-144442156D01*
X181280000Y-144442156D02*
X181375238Y-144489775D01*
X181375238Y-144489775D02*
X181518095Y-144489775D01*
X180756190Y-143823108D02*
X180756190Y-144489775D01*
X180756190Y-143918346D02*
X180708571Y-143870727D01*
X180708571Y-143870727D02*
X180613333Y-143823108D01*
X180613333Y-143823108D02*
X180470476Y-143823108D01*
X180470476Y-143823108D02*
X180375238Y-143870727D01*
X180375238Y-143870727D02*
X180327619Y-143965965D01*
X180327619Y-143965965D02*
X180327619Y-144489775D01*
X179994285Y-143823108D02*
X179613333Y-143823108D01*
X179851428Y-143489775D02*
X179851428Y-144346917D01*
X179851428Y-144346917D02*
X179803809Y-144442156D01*
X179803809Y-144442156D02*
X179708571Y-144489775D01*
X179708571Y-144489775D02*
X179613333Y-144489775D01*
X178518094Y-144489775D02*
X178518094Y-143489775D01*
X178518094Y-143489775D02*
X178137142Y-143489775D01*
X178137142Y-143489775D02*
X178041904Y-143537394D01*
X178041904Y-143537394D02*
X177994285Y-143585013D01*
X177994285Y-143585013D02*
X177946666Y-143680251D01*
X177946666Y-143680251D02*
X177946666Y-143823108D01*
X177946666Y-143823108D02*
X177994285Y-143918346D01*
X177994285Y-143918346D02*
X178041904Y-143965965D01*
X178041904Y-143965965D02*
X178137142Y-144013584D01*
X178137142Y-144013584D02*
X178518094Y-144013584D01*
X177089523Y-144489775D02*
X177089523Y-143965965D01*
X177089523Y-143965965D02*
X177137142Y-143870727D01*
X177137142Y-143870727D02*
X177232380Y-143823108D01*
X177232380Y-143823108D02*
X177422856Y-143823108D01*
X177422856Y-143823108D02*
X177518094Y-143870727D01*
X177089523Y-144442156D02*
X177184761Y-144489775D01*
X177184761Y-144489775D02*
X177422856Y-144489775D01*
X177422856Y-144489775D02*
X177518094Y-144442156D01*
X177518094Y-144442156D02*
X177565713Y-144346917D01*
X177565713Y-144346917D02*
X177565713Y-144251679D01*
X177565713Y-144251679D02*
X177518094Y-144156441D01*
X177518094Y-144156441D02*
X177422856Y-144108822D01*
X177422856Y-144108822D02*
X177184761Y-144108822D01*
X177184761Y-144108822D02*
X177089523Y-144061203D01*
X176613332Y-143823108D02*
X176613332Y-144489775D01*
X176613332Y-143918346D02*
X176565713Y-143870727D01*
X176565713Y-143870727D02*
X176470475Y-143823108D01*
X176470475Y-143823108D02*
X176327618Y-143823108D01*
X176327618Y-143823108D02*
X176232380Y-143870727D01*
X176232380Y-143870727D02*
X176184761Y-143965965D01*
X176184761Y-143965965D02*
X176184761Y-144489775D01*
X175327618Y-144442156D02*
X175422856Y-144489775D01*
X175422856Y-144489775D02*
X175613332Y-144489775D01*
X175613332Y-144489775D02*
X175708570Y-144442156D01*
X175708570Y-144442156D02*
X175756189Y-144346917D01*
X175756189Y-144346917D02*
X175756189Y-143965965D01*
X175756189Y-143965965D02*
X175708570Y-143870727D01*
X175708570Y-143870727D02*
X175613332Y-143823108D01*
X175613332Y-143823108D02*
X175422856Y-143823108D01*
X175422856Y-143823108D02*
X175327618Y-143870727D01*
X175327618Y-143870727D02*
X175279999Y-143965965D01*
X175279999Y-143965965D02*
X175279999Y-144061203D01*
X175279999Y-144061203D02*
X175756189Y-144156441D01*
X174708570Y-144489775D02*
X174803808Y-144442156D01*
X174803808Y-144442156D02*
X174851427Y-144346917D01*
X174851427Y-144346917D02*
X174851427Y-143489775D01*
X185160951Y-145099719D02*
X184827618Y-146099719D01*
X184827618Y-146099719D02*
X184494285Y-145099719D01*
X183779999Y-146052100D02*
X183875237Y-146099719D01*
X183875237Y-146099719D02*
X184065713Y-146099719D01*
X184065713Y-146099719D02*
X184160951Y-146052100D01*
X184160951Y-146052100D02*
X184208570Y-145956861D01*
X184208570Y-145956861D02*
X184208570Y-145575909D01*
X184208570Y-145575909D02*
X184160951Y-145480671D01*
X184160951Y-145480671D02*
X184065713Y-145433052D01*
X184065713Y-145433052D02*
X183875237Y-145433052D01*
X183875237Y-145433052D02*
X183779999Y-145480671D01*
X183779999Y-145480671D02*
X183732380Y-145575909D01*
X183732380Y-145575909D02*
X183732380Y-145671147D01*
X183732380Y-145671147D02*
X184208570Y-145766385D01*
X183303808Y-146099719D02*
X183303808Y-145433052D01*
X183303808Y-145623528D02*
X183256189Y-145528290D01*
X183256189Y-145528290D02*
X183208570Y-145480671D01*
X183208570Y-145480671D02*
X183113332Y-145433052D01*
X183113332Y-145433052D02*
X183018094Y-145433052D01*
X182684760Y-146004480D02*
X182637141Y-146052100D01*
X182637141Y-146052100D02*
X182684760Y-146099719D01*
X182684760Y-146099719D02*
X182732379Y-146052100D01*
X182732379Y-146052100D02*
X182684760Y-146004480D01*
X182684760Y-146004480D02*
X182684760Y-146099719D01*
X182684760Y-145480671D02*
X182637141Y-145528290D01*
X182637141Y-145528290D02*
X182684760Y-145575909D01*
X182684760Y-145575909D02*
X182732379Y-145528290D01*
X182732379Y-145528290D02*
X182684760Y-145480671D01*
X182684760Y-145480671D02*
X182684760Y-145575909D01*
X180922856Y-146099719D02*
X181494284Y-146099719D01*
X181208570Y-146099719D02*
X181208570Y-145099719D01*
X181208570Y-145099719D02*
X181303808Y-145242576D01*
X181303808Y-145242576D02*
X181399046Y-145337814D01*
X181399046Y-145337814D02*
X181494284Y-145385433D01*
X180494284Y-146004480D02*
X180446665Y-146052100D01*
X180446665Y-146052100D02*
X180494284Y-146099719D01*
X180494284Y-146099719D02*
X180541903Y-146052100D01*
X180541903Y-146052100D02*
X180494284Y-146004480D01*
X180494284Y-146004480D02*
X180494284Y-146099719D01*
X180065713Y-145194957D02*
X180018094Y-145147338D01*
X180018094Y-145147338D02*
X179922856Y-145099719D01*
X179922856Y-145099719D02*
X179684761Y-145099719D01*
X179684761Y-145099719D02*
X179589523Y-145147338D01*
X179589523Y-145147338D02*
X179541904Y-145194957D01*
X179541904Y-145194957D02*
X179494285Y-145290195D01*
X179494285Y-145290195D02*
X179494285Y-145385433D01*
X179494285Y-145385433D02*
X179541904Y-145528290D01*
X179541904Y-145528290D02*
X180113332Y-146099719D01*
X180113332Y-146099719D02*
X179494285Y-146099719D01*
X189351428Y-147709663D02*
X189351428Y-146709663D01*
X189351428Y-146709663D02*
X188780000Y-147709663D01*
X188780000Y-147709663D02*
X188780000Y-146709663D01*
X188303809Y-147709663D02*
X188303809Y-147042996D01*
X188303809Y-146709663D02*
X188351428Y-146757282D01*
X188351428Y-146757282D02*
X188303809Y-146804901D01*
X188303809Y-146804901D02*
X188256190Y-146757282D01*
X188256190Y-146757282D02*
X188303809Y-146709663D01*
X188303809Y-146709663D02*
X188303809Y-146804901D01*
X187399048Y-147042996D02*
X187399048Y-147852520D01*
X187399048Y-147852520D02*
X187446667Y-147947758D01*
X187446667Y-147947758D02*
X187494286Y-147995377D01*
X187494286Y-147995377D02*
X187589524Y-148042996D01*
X187589524Y-148042996D02*
X187732381Y-148042996D01*
X187732381Y-148042996D02*
X187827619Y-147995377D01*
X187399048Y-147662044D02*
X187494286Y-147709663D01*
X187494286Y-147709663D02*
X187684762Y-147709663D01*
X187684762Y-147709663D02*
X187780000Y-147662044D01*
X187780000Y-147662044D02*
X187827619Y-147614424D01*
X187827619Y-147614424D02*
X187875238Y-147519186D01*
X187875238Y-147519186D02*
X187875238Y-147233472D01*
X187875238Y-147233472D02*
X187827619Y-147138234D01*
X187827619Y-147138234D02*
X187780000Y-147090615D01*
X187780000Y-147090615D02*
X187684762Y-147042996D01*
X187684762Y-147042996D02*
X187494286Y-147042996D01*
X187494286Y-147042996D02*
X187399048Y-147090615D01*
X186541905Y-147662044D02*
X186637143Y-147709663D01*
X186637143Y-147709663D02*
X186827619Y-147709663D01*
X186827619Y-147709663D02*
X186922857Y-147662044D01*
X186922857Y-147662044D02*
X186970476Y-147566805D01*
X186970476Y-147566805D02*
X186970476Y-147185853D01*
X186970476Y-147185853D02*
X186922857Y-147090615D01*
X186922857Y-147090615D02*
X186827619Y-147042996D01*
X186827619Y-147042996D02*
X186637143Y-147042996D01*
X186637143Y-147042996D02*
X186541905Y-147090615D01*
X186541905Y-147090615D02*
X186494286Y-147185853D01*
X186494286Y-147185853D02*
X186494286Y-147281091D01*
X186494286Y-147281091D02*
X186970476Y-147376329D01*
X185922857Y-147709663D02*
X186018095Y-147662044D01*
X186018095Y-147662044D02*
X186065714Y-147566805D01*
X186065714Y-147566805D02*
X186065714Y-146709663D01*
X184779999Y-147709663D02*
X184779999Y-146709663D01*
X184779999Y-146709663D02*
X184541904Y-146709663D01*
X184541904Y-146709663D02*
X184399047Y-146757282D01*
X184399047Y-146757282D02*
X184303809Y-146852520D01*
X184303809Y-146852520D02*
X184256190Y-146947758D01*
X184256190Y-146947758D02*
X184208571Y-147138234D01*
X184208571Y-147138234D02*
X184208571Y-147281091D01*
X184208571Y-147281091D02*
X184256190Y-147471567D01*
X184256190Y-147471567D02*
X184303809Y-147566805D01*
X184303809Y-147566805D02*
X184399047Y-147662044D01*
X184399047Y-147662044D02*
X184541904Y-147709663D01*
X184541904Y-147709663D02*
X184779999Y-147709663D01*
X183351428Y-147709663D02*
X183351428Y-147185853D01*
X183351428Y-147185853D02*
X183399047Y-147090615D01*
X183399047Y-147090615D02*
X183494285Y-147042996D01*
X183494285Y-147042996D02*
X183684761Y-147042996D01*
X183684761Y-147042996D02*
X183779999Y-147090615D01*
X183351428Y-147662044D02*
X183446666Y-147709663D01*
X183446666Y-147709663D02*
X183684761Y-147709663D01*
X183684761Y-147709663D02*
X183779999Y-147662044D01*
X183779999Y-147662044D02*
X183827618Y-147566805D01*
X183827618Y-147566805D02*
X183827618Y-147471567D01*
X183827618Y-147471567D02*
X183779999Y-147376329D01*
X183779999Y-147376329D02*
X183684761Y-147328710D01*
X183684761Y-147328710D02*
X183446666Y-147328710D01*
X183446666Y-147328710D02*
X183351428Y-147281091D01*
X182875237Y-147042996D02*
X182875237Y-147709663D01*
X182875237Y-147138234D02*
X182827618Y-147090615D01*
X182827618Y-147090615D02*
X182732380Y-147042996D01*
X182732380Y-147042996D02*
X182589523Y-147042996D01*
X182589523Y-147042996D02*
X182494285Y-147090615D01*
X182494285Y-147090615D02*
X182446666Y-147185853D01*
X182446666Y-147185853D02*
X182446666Y-147709663D01*
X181970475Y-147709663D02*
X181970475Y-147042996D01*
X181970475Y-146709663D02*
X182018094Y-146757282D01*
X182018094Y-146757282D02*
X181970475Y-146804901D01*
X181970475Y-146804901D02*
X181922856Y-146757282D01*
X181922856Y-146757282D02*
X181970475Y-146709663D01*
X181970475Y-146709663D02*
X181970475Y-146804901D01*
X181113333Y-147662044D02*
X181208571Y-147709663D01*
X181208571Y-147709663D02*
X181399047Y-147709663D01*
X181399047Y-147709663D02*
X181494285Y-147662044D01*
X181494285Y-147662044D02*
X181541904Y-147566805D01*
X181541904Y-147566805D02*
X181541904Y-147185853D01*
X181541904Y-147185853D02*
X181494285Y-147090615D01*
X181494285Y-147090615D02*
X181399047Y-147042996D01*
X181399047Y-147042996D02*
X181208571Y-147042996D01*
X181208571Y-147042996D02*
X181113333Y-147090615D01*
X181113333Y-147090615D02*
X181065714Y-147185853D01*
X181065714Y-147185853D02*
X181065714Y-147281091D01*
X181065714Y-147281091D02*
X181541904Y-147376329D01*
X180494285Y-147709663D02*
X180589523Y-147662044D01*
X180589523Y-147662044D02*
X180637142Y-147566805D01*
X180637142Y-147566805D02*
X180637142Y-146709663D01*
X180160951Y-147662044D02*
X180065713Y-147709663D01*
X180065713Y-147709663D02*
X179875237Y-147709663D01*
X179875237Y-147709663D02*
X179779999Y-147662044D01*
X179779999Y-147662044D02*
X179732380Y-147566805D01*
X179732380Y-147566805D02*
X179732380Y-147519186D01*
X179732380Y-147519186D02*
X179779999Y-147423948D01*
X179779999Y-147423948D02*
X179875237Y-147376329D01*
X179875237Y-147376329D02*
X180018094Y-147376329D01*
X180018094Y-147376329D02*
X180113332Y-147328710D01*
X180113332Y-147328710D02*
X180160951Y-147233472D01*
X180160951Y-147233472D02*
X180160951Y-147185853D01*
X180160951Y-147185853D02*
X180113332Y-147090615D01*
X180113332Y-147090615D02*
X180018094Y-147042996D01*
X180018094Y-147042996D02*
X179875237Y-147042996D01*
X179875237Y-147042996D02*
X179779999Y-147090615D01*
X178589522Y-146804901D02*
X178541903Y-146757282D01*
X178541903Y-146757282D02*
X178446665Y-146709663D01*
X178446665Y-146709663D02*
X178208570Y-146709663D01*
X178208570Y-146709663D02*
X178113332Y-146757282D01*
X178113332Y-146757282D02*
X178065713Y-146804901D01*
X178065713Y-146804901D02*
X178018094Y-146900139D01*
X178018094Y-146900139D02*
X178018094Y-146995377D01*
X178018094Y-146995377D02*
X178065713Y-147138234D01*
X178065713Y-147138234D02*
X178637141Y-147709663D01*
X178637141Y-147709663D02*
X178018094Y-147709663D01*
X177399046Y-146709663D02*
X177303808Y-146709663D01*
X177303808Y-146709663D02*
X177208570Y-146757282D01*
X177208570Y-146757282D02*
X177160951Y-146804901D01*
X177160951Y-146804901D02*
X177113332Y-146900139D01*
X177113332Y-146900139D02*
X177065713Y-147090615D01*
X177065713Y-147090615D02*
X177065713Y-147328710D01*
X177065713Y-147328710D02*
X177113332Y-147519186D01*
X177113332Y-147519186D02*
X177160951Y-147614424D01*
X177160951Y-147614424D02*
X177208570Y-147662044D01*
X177208570Y-147662044D02*
X177303808Y-147709663D01*
X177303808Y-147709663D02*
X177399046Y-147709663D01*
X177399046Y-147709663D02*
X177494284Y-147662044D01*
X177494284Y-147662044D02*
X177541903Y-147614424D01*
X177541903Y-147614424D02*
X177589522Y-147519186D01*
X177589522Y-147519186D02*
X177637141Y-147328710D01*
X177637141Y-147328710D02*
X177637141Y-147090615D01*
X177637141Y-147090615D02*
X177589522Y-146900139D01*
X177589522Y-146900139D02*
X177541903Y-146804901D01*
X177541903Y-146804901D02*
X177494284Y-146757282D01*
X177494284Y-146757282D02*
X177399046Y-146709663D01*
X176684760Y-146804901D02*
X176637141Y-146757282D01*
X176637141Y-146757282D02*
X176541903Y-146709663D01*
X176541903Y-146709663D02*
X176303808Y-146709663D01*
X176303808Y-146709663D02*
X176208570Y-146757282D01*
X176208570Y-146757282D02*
X176160951Y-146804901D01*
X176160951Y-146804901D02*
X176113332Y-146900139D01*
X176113332Y-146900139D02*
X176113332Y-146995377D01*
X176113332Y-146995377D02*
X176160951Y-147138234D01*
X176160951Y-147138234D02*
X176732379Y-147709663D01*
X176732379Y-147709663D02*
X176113332Y-147709663D01*
X175256189Y-146709663D02*
X175446665Y-146709663D01*
X175446665Y-146709663D02*
X175541903Y-146757282D01*
X175541903Y-146757282D02*
X175589522Y-146804901D01*
X175589522Y-146804901D02*
X175684760Y-146947758D01*
X175684760Y-146947758D02*
X175732379Y-147138234D01*
X175732379Y-147138234D02*
X175732379Y-147519186D01*
X175732379Y-147519186D02*
X175684760Y-147614424D01*
X175684760Y-147614424D02*
X175637141Y-147662044D01*
X175637141Y-147662044D02*
X175541903Y-147709663D01*
X175541903Y-147709663D02*
X175351427Y-147709663D01*
X175351427Y-147709663D02*
X175256189Y-147662044D01*
X175256189Y-147662044D02*
X175208570Y-147614424D01*
X175208570Y-147614424D02*
X175160951Y-147519186D01*
X175160951Y-147519186D02*
X175160951Y-147281091D01*
X175160951Y-147281091D02*
X175208570Y-147185853D01*
X175208570Y-147185853D02*
X175256189Y-147138234D01*
X175256189Y-147138234D02*
X175351427Y-147090615D01*
X175351427Y-147090615D02*
X175541903Y-147090615D01*
X175541903Y-147090615D02*
X175637141Y-147138234D01*
X175637141Y-147138234D02*
X175684760Y-147185853D01*
X175684760Y-147185853D02*
X175732379Y-147281091D01*
X82389523Y-107224663D02*
X82389523Y-107938948D01*
X82389523Y-107938948D02*
X82437142Y-108081805D01*
X82437142Y-108081805D02*
X82532380Y-108177044D01*
X82532380Y-108177044D02*
X82675237Y-108224663D01*
X82675237Y-108224663D02*
X82770475Y-108224663D01*
X81770475Y-107653234D02*
X81865713Y-107605615D01*
X81865713Y-107605615D02*
X81913332Y-107557996D01*
X81913332Y-107557996D02*
X81960951Y-107462758D01*
X81960951Y-107462758D02*
X81960951Y-107415139D01*
X81960951Y-107415139D02*
X81913332Y-107319901D01*
X81913332Y-107319901D02*
X81865713Y-107272282D01*
X81865713Y-107272282D02*
X81770475Y-107224663D01*
X81770475Y-107224663D02*
X81579999Y-107224663D01*
X81579999Y-107224663D02*
X81484761Y-107272282D01*
X81484761Y-107272282D02*
X81437142Y-107319901D01*
X81437142Y-107319901D02*
X81389523Y-107415139D01*
X81389523Y-107415139D02*
X81389523Y-107462758D01*
X81389523Y-107462758D02*
X81437142Y-107557996D01*
X81437142Y-107557996D02*
X81484761Y-107605615D01*
X81484761Y-107605615D02*
X81579999Y-107653234D01*
X81579999Y-107653234D02*
X81770475Y-107653234D01*
X81770475Y-107653234D02*
X81865713Y-107700853D01*
X81865713Y-107700853D02*
X81913332Y-107748472D01*
X81913332Y-107748472D02*
X81960951Y-107843710D01*
X81960951Y-107843710D02*
X81960951Y-108034186D01*
X81960951Y-108034186D02*
X81913332Y-108129424D01*
X81913332Y-108129424D02*
X81865713Y-108177044D01*
X81865713Y-108177044D02*
X81770475Y-108224663D01*
X81770475Y-108224663D02*
X81579999Y-108224663D01*
X81579999Y-108224663D02*
X81484761Y-108177044D01*
X81484761Y-108177044D02*
X81437142Y-108129424D01*
X81437142Y-108129424D02*
X81389523Y-108034186D01*
X81389523Y-108034186D02*
X81389523Y-107843710D01*
X81389523Y-107843710D02*
X81437142Y-107748472D01*
X81437142Y-107748472D02*
X81484761Y-107700853D01*
X81484761Y-107700853D02*
X81579999Y-107653234D01*
X80484761Y-107224663D02*
X80960951Y-107224663D01*
X80960951Y-107224663D02*
X81008570Y-107700853D01*
X81008570Y-107700853D02*
X80960951Y-107653234D01*
X80960951Y-107653234D02*
X80865713Y-107605615D01*
X80865713Y-107605615D02*
X80627618Y-107605615D01*
X80627618Y-107605615D02*
X80532380Y-107653234D01*
X80532380Y-107653234D02*
X80484761Y-107700853D01*
X80484761Y-107700853D02*
X80437142Y-107796091D01*
X80437142Y-107796091D02*
X80437142Y-108034186D01*
X80437142Y-108034186D02*
X80484761Y-108129424D01*
X80484761Y-108129424D02*
X80532380Y-108177044D01*
X80532380Y-108177044D02*
X80627618Y-108224663D01*
X80627618Y-108224663D02*
X80865713Y-108224663D01*
X80865713Y-108224663D02*
X80960951Y-108177044D01*
X80960951Y-108177044D02*
X81008570Y-108129424D01*
X39411904Y-133394663D02*
X38840476Y-133394663D01*
X39126190Y-134394663D02*
X39126190Y-133394663D01*
X38507142Y-134394663D02*
X38507142Y-133394663D01*
X38507142Y-133394663D02*
X38126190Y-133394663D01*
X38126190Y-133394663D02*
X38030952Y-133442282D01*
X38030952Y-133442282D02*
X37983333Y-133489901D01*
X37983333Y-133489901D02*
X37935714Y-133585139D01*
X37935714Y-133585139D02*
X37935714Y-133727996D01*
X37935714Y-133727996D02*
X37983333Y-133823234D01*
X37983333Y-133823234D02*
X38030952Y-133870853D01*
X38030952Y-133870853D02*
X38126190Y-133918472D01*
X38126190Y-133918472D02*
X38507142Y-133918472D01*
X37554761Y-133489901D02*
X37507142Y-133442282D01*
X37507142Y-133442282D02*
X37411904Y-133394663D01*
X37411904Y-133394663D02*
X37173809Y-133394663D01*
X37173809Y-133394663D02*
X37078571Y-133442282D01*
X37078571Y-133442282D02*
X37030952Y-133489901D01*
X37030952Y-133489901D02*
X36983333Y-133585139D01*
X36983333Y-133585139D02*
X36983333Y-133680377D01*
X36983333Y-133680377D02*
X37030952Y-133823234D01*
X37030952Y-133823234D02*
X37602380Y-134394663D01*
X37602380Y-134394663D02*
X36983333Y-134394663D01*
X34004663Y-108478095D02*
X34004663Y-109049523D01*
X35004663Y-108763809D02*
X34004663Y-108763809D01*
X35004663Y-109382857D02*
X34004663Y-109382857D01*
X34004663Y-109382857D02*
X34004663Y-109763809D01*
X34004663Y-109763809D02*
X34052282Y-109859047D01*
X34052282Y-109859047D02*
X34099901Y-109906666D01*
X34099901Y-109906666D02*
X34195139Y-109954285D01*
X34195139Y-109954285D02*
X34337996Y-109954285D01*
X34337996Y-109954285D02*
X34433234Y-109906666D01*
X34433234Y-109906666D02*
X34480853Y-109859047D01*
X34480853Y-109859047D02*
X34528472Y-109763809D01*
X34528472Y-109763809D02*
X34528472Y-109382857D01*
X34004663Y-110859047D02*
X34004663Y-110382857D01*
X34004663Y-110382857D02*
X34480853Y-110335238D01*
X34480853Y-110335238D02*
X34433234Y-110382857D01*
X34433234Y-110382857D02*
X34385615Y-110478095D01*
X34385615Y-110478095D02*
X34385615Y-110716190D01*
X34385615Y-110716190D02*
X34433234Y-110811428D01*
X34433234Y-110811428D02*
X34480853Y-110859047D01*
X34480853Y-110859047D02*
X34576091Y-110906666D01*
X34576091Y-110906666D02*
X34814186Y-110906666D01*
X34814186Y-110906666D02*
X34909424Y-110859047D01*
X34909424Y-110859047D02*
X34957044Y-110811428D01*
X34957044Y-110811428D02*
X35004663Y-110716190D01*
X35004663Y-110716190D02*
X35004663Y-110478095D01*
X35004663Y-110478095D02*
X34957044Y-110382857D01*
X34957044Y-110382857D02*
X34909424Y-110335238D01*
X51211904Y-133394663D02*
X50640476Y-133394663D01*
X50926190Y-134394663D02*
X50926190Y-133394663D01*
X50307142Y-134394663D02*
X50307142Y-133394663D01*
X50307142Y-133394663D02*
X49926190Y-133394663D01*
X49926190Y-133394663D02*
X49830952Y-133442282D01*
X49830952Y-133442282D02*
X49783333Y-133489901D01*
X49783333Y-133489901D02*
X49735714Y-133585139D01*
X49735714Y-133585139D02*
X49735714Y-133727996D01*
X49735714Y-133727996D02*
X49783333Y-133823234D01*
X49783333Y-133823234D02*
X49830952Y-133870853D01*
X49830952Y-133870853D02*
X49926190Y-133918472D01*
X49926190Y-133918472D02*
X50307142Y-133918472D01*
X48878571Y-133727996D02*
X48878571Y-134394663D01*
X49116666Y-133347044D02*
X49354761Y-134061329D01*
X49354761Y-134061329D02*
X48735714Y-134061329D01*
X66611904Y-36994663D02*
X66040476Y-36994663D01*
X66326190Y-37994663D02*
X66326190Y-36994663D01*
X65707142Y-37994663D02*
X65707142Y-36994663D01*
X65707142Y-36994663D02*
X65326190Y-36994663D01*
X65326190Y-36994663D02*
X65230952Y-37042282D01*
X65230952Y-37042282D02*
X65183333Y-37089901D01*
X65183333Y-37089901D02*
X65135714Y-37185139D01*
X65135714Y-37185139D02*
X65135714Y-37327996D01*
X65135714Y-37327996D02*
X65183333Y-37423234D01*
X65183333Y-37423234D02*
X65230952Y-37470853D01*
X65230952Y-37470853D02*
X65326190Y-37518472D01*
X65326190Y-37518472D02*
X65707142Y-37518472D01*
X64183333Y-37994663D02*
X64754761Y-37994663D01*
X64469047Y-37994663D02*
X64469047Y-36994663D01*
X64469047Y-36994663D02*
X64564285Y-37137520D01*
X64564285Y-37137520D02*
X64659523Y-37232758D01*
X64659523Y-37232758D02*
X64754761Y-37280377D01*
X95408044Y-62833975D02*
X95408044Y-63548260D01*
X95408044Y-63548260D02*
X95455663Y-63691117D01*
X95455663Y-63691117D02*
X95550901Y-63786356D01*
X95550901Y-63786356D02*
X95693758Y-63833975D01*
X95693758Y-63833975D02*
X95788996Y-63833975D01*
X94408044Y-63833975D02*
X94979472Y-63833975D01*
X94693758Y-63833975D02*
X94693758Y-62833975D01*
X94693758Y-62833975D02*
X94788996Y-62976832D01*
X94788996Y-62976832D02*
X94884234Y-63072070D01*
X94884234Y-63072070D02*
X94979472Y-63119689D01*
X93788996Y-62833975D02*
X93693758Y-62833975D01*
X93693758Y-62833975D02*
X93598520Y-62881594D01*
X93598520Y-62881594D02*
X93550901Y-62929213D01*
X93550901Y-62929213D02*
X93503282Y-63024451D01*
X93503282Y-63024451D02*
X93455663Y-63214927D01*
X93455663Y-63214927D02*
X93455663Y-63453022D01*
X93455663Y-63453022D02*
X93503282Y-63643498D01*
X93503282Y-63643498D02*
X93550901Y-63738736D01*
X93550901Y-63738736D02*
X93598520Y-63786356D01*
X93598520Y-63786356D02*
X93693758Y-63833975D01*
X93693758Y-63833975D02*
X93788996Y-63833975D01*
X93788996Y-63833975D02*
X93884234Y-63786356D01*
X93884234Y-63786356D02*
X93931853Y-63738736D01*
X93931853Y-63738736D02*
X93979472Y-63643498D01*
X93979472Y-63643498D02*
X94027091Y-63453022D01*
X94027091Y-63453022D02*
X94027091Y-63214927D01*
X94027091Y-63214927D02*
X93979472Y-63024451D01*
X93979472Y-63024451D02*
X93931853Y-62929213D01*
X93931853Y-62929213D02*
X93884234Y-62881594D01*
X93884234Y-62881594D02*
X93788996Y-62833975D01*
X95368044Y-40293975D02*
X95368044Y-41008260D01*
X95368044Y-41008260D02*
X95415663Y-41151117D01*
X95415663Y-41151117D02*
X95510901Y-41246356D01*
X95510901Y-41246356D02*
X95653758Y-41293975D01*
X95653758Y-41293975D02*
X95748996Y-41293975D01*
X94939472Y-40389213D02*
X94891853Y-40341594D01*
X94891853Y-40341594D02*
X94796615Y-40293975D01*
X94796615Y-40293975D02*
X94558520Y-40293975D01*
X94558520Y-40293975D02*
X94463282Y-40341594D01*
X94463282Y-40341594D02*
X94415663Y-40389213D01*
X94415663Y-40389213D02*
X94368044Y-40484451D01*
X94368044Y-40484451D02*
X94368044Y-40579689D01*
X94368044Y-40579689D02*
X94415663Y-40722546D01*
X94415663Y-40722546D02*
X94987091Y-41293975D01*
X94987091Y-41293975D02*
X94368044Y-41293975D01*
X93987091Y-40389213D02*
X93939472Y-40341594D01*
X93939472Y-40341594D02*
X93844234Y-40293975D01*
X93844234Y-40293975D02*
X93606139Y-40293975D01*
X93606139Y-40293975D02*
X93510901Y-40341594D01*
X93510901Y-40341594D02*
X93463282Y-40389213D01*
X93463282Y-40389213D02*
X93415663Y-40484451D01*
X93415663Y-40484451D02*
X93415663Y-40579689D01*
X93415663Y-40579689D02*
X93463282Y-40722546D01*
X93463282Y-40722546D02*
X94034710Y-41293975D01*
X94034710Y-41293975D02*
X93415663Y-41293975D01*
X146368044Y-40293975D02*
X146368044Y-41008260D01*
X146368044Y-41008260D02*
X146415663Y-41151117D01*
X146415663Y-41151117D02*
X146510901Y-41246356D01*
X146510901Y-41246356D02*
X146653758Y-41293975D01*
X146653758Y-41293975D02*
X146748996Y-41293975D01*
X145368044Y-41293975D02*
X145939472Y-41293975D01*
X145653758Y-41293975D02*
X145653758Y-40293975D01*
X145653758Y-40293975D02*
X145748996Y-40436832D01*
X145748996Y-40436832D02*
X145844234Y-40532070D01*
X145844234Y-40532070D02*
X145939472Y-40579689D01*
X144891853Y-41293975D02*
X144701377Y-41293975D01*
X144701377Y-41293975D02*
X144606139Y-41246356D01*
X144606139Y-41246356D02*
X144558520Y-41198736D01*
X144558520Y-41198736D02*
X144463282Y-41055879D01*
X144463282Y-41055879D02*
X144415663Y-40865403D01*
X144415663Y-40865403D02*
X144415663Y-40484451D01*
X144415663Y-40484451D02*
X144463282Y-40389213D01*
X144463282Y-40389213D02*
X144510901Y-40341594D01*
X144510901Y-40341594D02*
X144606139Y-40293975D01*
X144606139Y-40293975D02*
X144796615Y-40293975D01*
X144796615Y-40293975D02*
X144891853Y-40341594D01*
X144891853Y-40341594D02*
X144939472Y-40389213D01*
X144939472Y-40389213D02*
X144987091Y-40484451D01*
X144987091Y-40484451D02*
X144987091Y-40722546D01*
X144987091Y-40722546D02*
X144939472Y-40817784D01*
X144939472Y-40817784D02*
X144891853Y-40865403D01*
X144891853Y-40865403D02*
X144796615Y-40913022D01*
X144796615Y-40913022D02*
X144606139Y-40913022D01*
X144606139Y-40913022D02*
X144510901Y-40865403D01*
X144510901Y-40865403D02*
X144463282Y-40817784D01*
X144463282Y-40817784D02*
X144415663Y-40722546D01*
X117093184Y-135409788D02*
X117807469Y-135409788D01*
X117807469Y-135409788D02*
X117950326Y-135362169D01*
X117950326Y-135362169D02*
X118045565Y-135266931D01*
X118045565Y-135266931D02*
X118093184Y-135124074D01*
X118093184Y-135124074D02*
X118093184Y-135028836D01*
X117188422Y-135838360D02*
X117140803Y-135885979D01*
X117140803Y-135885979D02*
X117093184Y-135981217D01*
X117093184Y-135981217D02*
X117093184Y-136219312D01*
X117093184Y-136219312D02*
X117140803Y-136314550D01*
X117140803Y-136314550D02*
X117188422Y-136362169D01*
X117188422Y-136362169D02*
X117283660Y-136409788D01*
X117283660Y-136409788D02*
X117378898Y-136409788D01*
X117378898Y-136409788D02*
X117521755Y-136362169D01*
X117521755Y-136362169D02*
X118093184Y-135790741D01*
X118093184Y-135790741D02*
X118093184Y-136409788D01*
X118093184Y-137362169D02*
X118093184Y-136790741D01*
X118093184Y-137076455D02*
X117093184Y-137076455D01*
X117093184Y-137076455D02*
X117236041Y-136981217D01*
X117236041Y-136981217D02*
X117331279Y-136885979D01*
X117331279Y-136885979D02*
X117378898Y-136790741D01*
X145891854Y-91293975D02*
X145891854Y-92008260D01*
X145891854Y-92008260D02*
X145939473Y-92151117D01*
X145939473Y-92151117D02*
X146034711Y-92246356D01*
X146034711Y-92246356D02*
X146177568Y-92293975D01*
X146177568Y-92293975D02*
X146272806Y-92293975D01*
X145510901Y-91293975D02*
X144891854Y-91293975D01*
X144891854Y-91293975D02*
X145225187Y-91674927D01*
X145225187Y-91674927D02*
X145082330Y-91674927D01*
X145082330Y-91674927D02*
X144987092Y-91722546D01*
X144987092Y-91722546D02*
X144939473Y-91770165D01*
X144939473Y-91770165D02*
X144891854Y-91865403D01*
X144891854Y-91865403D02*
X144891854Y-92103498D01*
X144891854Y-92103498D02*
X144939473Y-92198736D01*
X144939473Y-92198736D02*
X144987092Y-92246356D01*
X144987092Y-92246356D02*
X145082330Y-92293975D01*
X145082330Y-92293975D02*
X145368044Y-92293975D01*
X145368044Y-92293975D02*
X145463282Y-92246356D01*
X145463282Y-92246356D02*
X145510901Y-92198736D01*
X73938094Y-133394663D02*
X73366666Y-133394663D01*
X73652380Y-134394663D02*
X73652380Y-133394663D01*
X73033332Y-134394663D02*
X73033332Y-133394663D01*
X73033332Y-133394663D02*
X72652380Y-133394663D01*
X72652380Y-133394663D02*
X72557142Y-133442282D01*
X72557142Y-133442282D02*
X72509523Y-133489901D01*
X72509523Y-133489901D02*
X72461904Y-133585139D01*
X72461904Y-133585139D02*
X72461904Y-133727996D01*
X72461904Y-133727996D02*
X72509523Y-133823234D01*
X72509523Y-133823234D02*
X72557142Y-133870853D01*
X72557142Y-133870853D02*
X72652380Y-133918472D01*
X72652380Y-133918472D02*
X73033332Y-133918472D01*
X72080951Y-133489901D02*
X72033332Y-133442282D01*
X72033332Y-133442282D02*
X71938094Y-133394663D01*
X71938094Y-133394663D02*
X71699999Y-133394663D01*
X71699999Y-133394663D02*
X71604761Y-133442282D01*
X71604761Y-133442282D02*
X71557142Y-133489901D01*
X71557142Y-133489901D02*
X71509523Y-133585139D01*
X71509523Y-133585139D02*
X71509523Y-133680377D01*
X71509523Y-133680377D02*
X71557142Y-133823234D01*
X71557142Y-133823234D02*
X72128570Y-134394663D01*
X72128570Y-134394663D02*
X71509523Y-134394663D01*
X71128570Y-133489901D02*
X71080951Y-133442282D01*
X71080951Y-133442282D02*
X70985713Y-133394663D01*
X70985713Y-133394663D02*
X70747618Y-133394663D01*
X70747618Y-133394663D02*
X70652380Y-133442282D01*
X70652380Y-133442282D02*
X70604761Y-133489901D01*
X70604761Y-133489901D02*
X70557142Y-133585139D01*
X70557142Y-133585139D02*
X70557142Y-133680377D01*
X70557142Y-133680377D02*
X70604761Y-133823234D01*
X70604761Y-133823234D02*
X71176189Y-134394663D01*
X71176189Y-134394663D02*
X70557142Y-134394663D01*
X94891854Y-83293975D02*
X94891854Y-84008260D01*
X94891854Y-84008260D02*
X94939473Y-84151117D01*
X94939473Y-84151117D02*
X95034711Y-84246356D01*
X95034711Y-84246356D02*
X95177568Y-84293975D01*
X95177568Y-84293975D02*
X95272806Y-84293975D01*
X94510901Y-83293975D02*
X93844235Y-83293975D01*
X93844235Y-83293975D02*
X94272806Y-84293975D01*
X45211904Y-133394663D02*
X44640476Y-133394663D01*
X44926190Y-134394663D02*
X44926190Y-133394663D01*
X44307142Y-134394663D02*
X44307142Y-133394663D01*
X44307142Y-133394663D02*
X43926190Y-133394663D01*
X43926190Y-133394663D02*
X43830952Y-133442282D01*
X43830952Y-133442282D02*
X43783333Y-133489901D01*
X43783333Y-133489901D02*
X43735714Y-133585139D01*
X43735714Y-133585139D02*
X43735714Y-133727996D01*
X43735714Y-133727996D02*
X43783333Y-133823234D01*
X43783333Y-133823234D02*
X43830952Y-133870853D01*
X43830952Y-133870853D02*
X43926190Y-133918472D01*
X43926190Y-133918472D02*
X44307142Y-133918472D01*
X43402380Y-133394663D02*
X42783333Y-133394663D01*
X42783333Y-133394663D02*
X43116666Y-133775615D01*
X43116666Y-133775615D02*
X42973809Y-133775615D01*
X42973809Y-133775615D02*
X42878571Y-133823234D01*
X42878571Y-133823234D02*
X42830952Y-133870853D01*
X42830952Y-133870853D02*
X42783333Y-133966091D01*
X42783333Y-133966091D02*
X42783333Y-134204186D01*
X42783333Y-134204186D02*
X42830952Y-134299424D01*
X42830952Y-134299424D02*
X42878571Y-134347044D01*
X42878571Y-134347044D02*
X42973809Y-134394663D01*
X42973809Y-134394663D02*
X43259523Y-134394663D01*
X43259523Y-134394663D02*
X43354761Y-134347044D01*
X43354761Y-134347044D02*
X43402380Y-134299424D01*
D11*
X119151000Y-32553699D02*
G75*
G02*
X118389000Y-32553699I-381000J0D01*
G01*
X118389000Y-32553699D02*
G75*
G02*
X119151000Y-32553699I381000J0D01*
G01*
D12*
X78930000Y-108770000D02*
X78930000Y-129310000D01*
X81580000Y-108770000D02*
X78930000Y-108770000D01*
X81580000Y-111420000D02*
X81580000Y-108770000D01*
X84230000Y-108770000D02*
X82850000Y-108770000D01*
X84230000Y-110150000D02*
X84230000Y-108770000D01*
X84230000Y-111420000D02*
X81580000Y-111420000D01*
X84230000Y-111420000D02*
X84230000Y-129310000D01*
X84230000Y-129310000D02*
X78930000Y-129310000D01*
X38950000Y-136440000D02*
G75*
G02*
X35950000Y-136440000I-1500000J0D01*
G01*
X35950000Y-136440000D02*
G75*
G02*
X38950000Y-136440000I1500000J0D01*
G01*
X33550000Y-109040000D02*
G75*
G02*
X30550000Y-109040000I-1500000J0D01*
G01*
X30550000Y-109040000D02*
G75*
G02*
X33550000Y-109040000I1500000J0D01*
G01*
X50750000Y-136440000D02*
G75*
G02*
X47750000Y-136440000I-1500000J0D01*
G01*
X47750000Y-136440000D02*
G75*
G02*
X50750000Y-136440000I1500000J0D01*
G01*
X67550000Y-35040000D02*
G75*
G02*
X64550000Y-35040000I-1500000J0D01*
G01*
X64550000Y-35040000D02*
G75*
G02*
X67550000Y-35040000I1500000J0D01*
G01*
X93218521Y-67029312D02*
X93218521Y-79839312D01*
X95978521Y-64379312D02*
X94598521Y-64379312D01*
X95978521Y-65759312D02*
X95978521Y-64379312D01*
X95978521Y-67029312D02*
X93218521Y-67029312D01*
X95978521Y-67029312D02*
X95978521Y-79839312D01*
X95978521Y-79839312D02*
X93218521Y-79839312D01*
X93178521Y-44489312D02*
X93178521Y-57299312D01*
X95938521Y-41839312D02*
X94558521Y-41839312D01*
X95938521Y-43219312D02*
X95938521Y-41839312D01*
X95938521Y-44489312D02*
X93178521Y-44489312D01*
X95938521Y-44489312D02*
X95938521Y-57299312D01*
X95938521Y-57299312D02*
X93178521Y-57299312D01*
X144178521Y-44489312D02*
X144178521Y-57299312D01*
X146938521Y-41839312D02*
X145558521Y-41839312D01*
X146938521Y-43219312D02*
X146938521Y-41839312D01*
X146938521Y-44489312D02*
X144178521Y-44489312D01*
X146938521Y-44489312D02*
X146938521Y-57299312D01*
X146938521Y-57299312D02*
X144178521Y-57299312D01*
X118638521Y-134839312D02*
X118638521Y-136219312D01*
X120018521Y-134839312D02*
X118638521Y-134839312D01*
X121288521Y-134839312D02*
X121288521Y-137599312D01*
X121288521Y-134839312D02*
X123938521Y-134839312D01*
X121288521Y-137599312D02*
X123938521Y-137599312D01*
X123938521Y-134839312D02*
X123938521Y-137599312D01*
X144178521Y-95489312D02*
X144178521Y-103219312D01*
X146938521Y-92839312D02*
X145558521Y-92839312D01*
X146938521Y-94219312D02*
X146938521Y-92839312D01*
X146938521Y-95489312D02*
X144178521Y-95489312D01*
X146938521Y-95489312D02*
X146938521Y-103219312D01*
X146938521Y-103219312D02*
X144178521Y-103219312D01*
X73000000Y-136440000D02*
G75*
G02*
X70000000Y-136440000I-1500000J0D01*
G01*
X70000000Y-136440000D02*
G75*
G02*
X73000000Y-136440000I1500000J0D01*
G01*
X93178521Y-87489312D02*
X93178521Y-105379312D01*
X95938521Y-84839312D02*
X94558521Y-84839312D01*
X95938521Y-86219312D02*
X95938521Y-84839312D01*
X95938521Y-87489312D02*
X93178521Y-87489312D01*
X95938521Y-87489312D02*
X95938521Y-105379312D01*
X95938521Y-105379312D02*
X93178521Y-105379312D01*
X44750000Y-136440000D02*
G75*
G02*
X41750000Y-136440000I-1500000J0D01*
G01*
X41750000Y-136440000D02*
G75*
G02*
X44750000Y-136440000I1500000J0D01*
G01*
M02*
