%TF.GenerationSoftware,KiCad,Pcbnew,10.0.0*%
%TF.CreationDate,2026-04-03T19:44:47-07:00*%
%TF.ProjectId,VCO 2,56434f20-322e-46b6-9963-61645f706362,rev?*%
%TF.SameCoordinates,Original*%
%TF.FileFunction,Profile,NP*%
%FSLAX46Y46*%
G04 Gerber Fmt 4.6, Leading zero omitted, Abs format (unit mm)*
G04 Created by KiCad (PCBNEW 10.0.0) date 2026-04-03 19:44:47*
%MOMM*%
%LPD*%
G01*
G04 APERTURE LIST*
%TA.AperFunction,Profile*%
%ADD10C,0.050000*%
%TD*%
%TA.AperFunction,Profile*%
%ADD11C,0.100000*%
%TD*%
%TA.AperFunction,Profile*%
%ADD12C,0.049801*%
%TD*%
G04 APERTURE END LIST*
D10*
X27100000Y-14690000D02*
X27100000Y-19690000D01*
X27100000Y-19690000D02*
X48862893Y-19687107D01*
X27100000Y-30950000D02*
X48862893Y-30952893D01*
X27100000Y-140950000D02*
X27100000Y-30950000D01*
X27100000Y-157190000D02*
X27100000Y-152190000D01*
X30600000Y-17190000D02*
G75*
G02*
X28600000Y-17190000I-1000000J0D01*
G01*
X28600000Y-17190000D02*
G75*
G02*
X30600000Y-17190000I1000000J0D01*
G01*
D11*
X30600000Y-154690000D02*
G75*
G02*
X28600000Y-154690000I-1000000J0D01*
G01*
X28600000Y-154690000D02*
G75*
G02*
X30600000Y-154690000I1000000J0D01*
G01*
D10*
X40100000Y-17190000D02*
G75*
G02*
X39100000Y-17190000I-500000J0D01*
G01*
X39100000Y-17190000D02*
G75*
G02*
X40100000Y-17190000I500000J0D01*
G01*
X40100000Y-154690000D02*
G75*
G02*
X39100000Y-154690000I-500000J0D01*
G01*
X39100000Y-154690000D02*
G75*
G02*
X40100000Y-154690000I500000J0D01*
G01*
X48815314Y-140937107D02*
X27100000Y-140950000D01*
X48815314Y-140937107D02*
G75*
G02*
X49815293Y-141937107I-14J-999993D01*
G01*
X48815314Y-152202893D02*
X27100000Y-152190000D01*
X48862893Y-19687107D02*
G75*
G02*
X49862893Y-20687107I7J-999993D01*
G01*
X49815314Y-151202893D02*
G75*
G02*
X48815314Y-152202914I-1000014J-7D01*
G01*
X49815314Y-151202893D02*
X49815314Y-141937107D01*
X49862893Y-20687107D02*
X49862893Y-29952893D01*
X49862893Y-29952893D02*
G75*
G02*
X48862893Y-30952893I-999993J-7D01*
G01*
X50412421Y-141260000D02*
G75*
G02*
X49812421Y-141260000I-300000J0D01*
G01*
X49812421Y-141260000D02*
G75*
G02*
X50412421Y-141260000I300000J0D01*
G01*
X50460000Y-30630000D02*
G75*
G02*
X49860000Y-30630000I-300000J0D01*
G01*
X49860000Y-30630000D02*
G75*
G02*
X50460000Y-30630000I300000J0D01*
G01*
X51312421Y-141260000D02*
G75*
G02*
X50712421Y-141260000I-300000J0D01*
G01*
X50712421Y-141260000D02*
G75*
G02*
X51312421Y-141260000I300000J0D01*
G01*
X51360000Y-30630000D02*
G75*
G02*
X50760000Y-30630000I-300000J0D01*
G01*
X50760000Y-30630000D02*
G75*
G02*
X51360000Y-30630000I300000J0D01*
G01*
X52212421Y-141260000D02*
G75*
G02*
X51612421Y-141260000I-300000J0D01*
G01*
X51612421Y-141260000D02*
G75*
G02*
X52212421Y-141260000I300000J0D01*
G01*
X52260000Y-30630000D02*
G75*
G02*
X51660000Y-30630000I-300000J0D01*
G01*
X51660000Y-30630000D02*
G75*
G02*
X52260000Y-30630000I300000J0D01*
G01*
X53112421Y-141260000D02*
G75*
G02*
X52512421Y-141260000I-300000J0D01*
G01*
X52512421Y-141260000D02*
G75*
G02*
X53112421Y-141260000I300000J0D01*
G01*
X53160000Y-30630000D02*
G75*
G02*
X52560000Y-30630000I-300000J0D01*
G01*
X52560000Y-30630000D02*
G75*
G02*
X53160000Y-30630000I300000J0D01*
G01*
X54012421Y-141260000D02*
G75*
G02*
X53412421Y-141260000I-300000J0D01*
G01*
X53412421Y-141260000D02*
G75*
G02*
X54012421Y-141260000I300000J0D01*
G01*
X54060000Y-30630000D02*
G75*
G02*
X53460000Y-30630000I-300000J0D01*
G01*
X53460000Y-30630000D02*
G75*
G02*
X54060000Y-30630000I300000J0D01*
G01*
X54912421Y-141260000D02*
G75*
G02*
X54312421Y-141260000I-300000J0D01*
G01*
X54312421Y-141260000D02*
G75*
G02*
X54912421Y-141260000I300000J0D01*
G01*
X54960000Y-30630000D02*
G75*
G02*
X54360000Y-30630000I-300000J0D01*
G01*
X54360000Y-30630000D02*
G75*
G02*
X54960000Y-30630000I300000J0D01*
G01*
X55812421Y-141260000D02*
G75*
G02*
X55212421Y-141260000I-300000J0D01*
G01*
X55212421Y-141260000D02*
G75*
G02*
X55812421Y-141260000I300000J0D01*
G01*
X55860000Y-30630000D02*
G75*
G02*
X55260000Y-30630000I-300000J0D01*
G01*
X55260000Y-30630000D02*
G75*
G02*
X55860000Y-30630000I300000J0D01*
G01*
X56712421Y-141260000D02*
G75*
G02*
X56112421Y-141260000I-300000J0D01*
G01*
X56112421Y-141260000D02*
G75*
G02*
X56712421Y-141260000I300000J0D01*
G01*
X56760000Y-30630000D02*
G75*
G02*
X56160000Y-30630000I-300000J0D01*
G01*
X56160000Y-30630000D02*
G75*
G02*
X56760000Y-30630000I300000J0D01*
G01*
X57612421Y-141260000D02*
G75*
G02*
X57012421Y-141260000I-300000J0D01*
G01*
X57012421Y-141260000D02*
G75*
G02*
X57612421Y-141260000I300000J0D01*
G01*
X57660000Y-30630000D02*
G75*
G02*
X57060000Y-30630000I-300000J0D01*
G01*
X57060000Y-30630000D02*
G75*
G02*
X57660000Y-30630000I300000J0D01*
G01*
X58512421Y-141260000D02*
G75*
G02*
X57912421Y-141260000I-300000J0D01*
G01*
X57912421Y-141260000D02*
G75*
G02*
X58512421Y-141260000I300000J0D01*
G01*
X58560000Y-30630000D02*
G75*
G02*
X57960000Y-30630000I-300000J0D01*
G01*
X57960000Y-30630000D02*
G75*
G02*
X58560000Y-30630000I300000J0D01*
G01*
X59412421Y-141260000D02*
G75*
G02*
X58812421Y-141260000I-300000J0D01*
G01*
X58812421Y-141260000D02*
G75*
G02*
X59412421Y-141260000I300000J0D01*
G01*
X59460000Y-30630000D02*
G75*
G02*
X58860000Y-30630000I-300000J0D01*
G01*
X58860000Y-30630000D02*
G75*
G02*
X59460000Y-30630000I300000J0D01*
G01*
X60312421Y-141260000D02*
G75*
G02*
X59712421Y-141260000I-300000J0D01*
G01*
X59712421Y-141260000D02*
G75*
G02*
X60312421Y-141260000I300000J0D01*
G01*
X60360000Y-30630000D02*
G75*
G02*
X59760000Y-30630000I-300000J0D01*
G01*
X59760000Y-30630000D02*
G75*
G02*
X60360000Y-30630000I300000J0D01*
G01*
X61212421Y-141260000D02*
G75*
G02*
X60612421Y-141260000I-300000J0D01*
G01*
X60612421Y-141260000D02*
G75*
G02*
X61212421Y-141260000I300000J0D01*
G01*
X61260000Y-30630000D02*
G75*
G02*
X60660000Y-30630000I-300000J0D01*
G01*
X60660000Y-30630000D02*
G75*
G02*
X61260000Y-30630000I300000J0D01*
G01*
X62112421Y-141260000D02*
G75*
G02*
X61512421Y-141260000I-300000J0D01*
G01*
X61512421Y-141260000D02*
G75*
G02*
X62112421Y-141260000I300000J0D01*
G01*
X62160000Y-30630000D02*
G75*
G02*
X61560000Y-30630000I-300000J0D01*
G01*
X61560000Y-30630000D02*
G75*
G02*
X62160000Y-30630000I300000J0D01*
G01*
X63012421Y-141260000D02*
G75*
G02*
X62412421Y-141260000I-300000J0D01*
G01*
X62412421Y-141260000D02*
G75*
G02*
X63012421Y-141260000I300000J0D01*
G01*
X63060000Y-30630000D02*
G75*
G02*
X62460000Y-30630000I-300000J0D01*
G01*
X62460000Y-30630000D02*
G75*
G02*
X63060000Y-30630000I300000J0D01*
G01*
X63912421Y-141260000D02*
G75*
G02*
X63312421Y-141260000I-300000J0D01*
G01*
X63312421Y-141260000D02*
G75*
G02*
X63912421Y-141260000I300000J0D01*
G01*
X63960000Y-30630000D02*
G75*
G02*
X63360000Y-30630000I-300000J0D01*
G01*
X63360000Y-30630000D02*
G75*
G02*
X63960000Y-30630000I300000J0D01*
G01*
X64812421Y-141260000D02*
G75*
G02*
X64212421Y-141260000I-300000J0D01*
G01*
X64212421Y-141260000D02*
G75*
G02*
X64812421Y-141260000I300000J0D01*
G01*
X64860000Y-30630000D02*
G75*
G02*
X64260000Y-30630000I-300000J0D01*
G01*
X64260000Y-30630000D02*
G75*
G02*
X64860000Y-30630000I300000J0D01*
G01*
X64809528Y-141937107D02*
X64809528Y-151202893D01*
X64809528Y-141937107D02*
G75*
G02*
X65809528Y-140937128I999972J7D01*
G01*
X64857107Y-20687107D02*
G75*
G02*
X65857107Y-19687107I999993J7D01*
G01*
X64857107Y-29952893D02*
X64857107Y-20687107D01*
X65809528Y-140937107D02*
X87600000Y-140950000D01*
X65809528Y-152202893D02*
G75*
G02*
X64809507Y-151202893I-28J999993D01*
G01*
X65857107Y-19687107D02*
X111362893Y-19667107D01*
X65857107Y-30952893D02*
G75*
G02*
X64857107Y-29952893I-7J999993D01*
G01*
X87600000Y-30950000D02*
X65857107Y-30952893D01*
X87600000Y-140950000D02*
X87600000Y-30950000D01*
X89608521Y-30929312D02*
X111362893Y-30932893D01*
X89608521Y-140929312D02*
X89608521Y-30929312D01*
X105260000Y-119300000D02*
G75*
G02*
X102260000Y-119300000I-1500000J0D01*
G01*
X102260000Y-119300000D02*
G75*
G02*
X105260000Y-119300000I1500000J0D01*
G01*
X105460000Y-69310000D02*
G75*
G02*
X102460000Y-69310000I-1500000J0D01*
G01*
X102460000Y-69310000D02*
G75*
G02*
X105460000Y-69310000I1500000J0D01*
G01*
X105460000Y-99730000D02*
G75*
G02*
X102460000Y-99730000I-1500000J0D01*
G01*
X102460000Y-99730000D02*
G75*
G02*
X105460000Y-99730000I1500000J0D01*
G01*
X111362893Y-19667107D02*
G75*
G02*
X112362893Y-20667107I7J-999993D01*
G01*
X111362893Y-140927107D02*
X89608521Y-140929312D01*
X111362893Y-140927107D02*
G75*
G02*
X112362893Y-141927107I7J-999993D01*
G01*
X111362893Y-152192893D02*
X65809528Y-152202893D01*
X112362893Y-20667107D02*
X112362893Y-29932893D01*
X112362893Y-29932893D02*
G75*
G02*
X111362893Y-30932893I-999993J-7D01*
G01*
X112362893Y-151192893D02*
G75*
G02*
X111362893Y-152192893I-999993J-7D01*
G01*
X112362893Y-151192893D02*
X112362893Y-141927107D01*
D12*
X112957507Y-30560000D02*
G75*
G02*
X112359901Y-30560000I-298803J0D01*
G01*
X112359901Y-30560000D02*
G75*
G02*
X112957507Y-30560000I298803J0D01*
G01*
D10*
X112960000Y-141250000D02*
G75*
G02*
X112360000Y-141250000I-300000J0D01*
G01*
X112360000Y-141250000D02*
G75*
G02*
X112960000Y-141250000I300000J0D01*
G01*
D12*
X113853919Y-30560000D02*
G75*
G02*
X113256313Y-30560000I-298803J0D01*
G01*
X113256313Y-30560000D02*
G75*
G02*
X113853919Y-30560000I298803J0D01*
G01*
D10*
X113860000Y-141250000D02*
G75*
G02*
X113260000Y-141250000I-300000J0D01*
G01*
X113260000Y-141250000D02*
G75*
G02*
X113860000Y-141250000I300000J0D01*
G01*
D12*
X114750331Y-30560000D02*
G75*
G02*
X114152725Y-30560000I-298803J0D01*
G01*
X114152725Y-30560000D02*
G75*
G02*
X114750331Y-30560000I298803J0D01*
G01*
D10*
X114760000Y-141250000D02*
G75*
G02*
X114160000Y-141250000I-300000J0D01*
G01*
X114160000Y-141250000D02*
G75*
G02*
X114760000Y-141250000I300000J0D01*
G01*
X116060000Y-119310000D02*
G75*
G02*
X113060000Y-119310000I-1500000J0D01*
G01*
X113060000Y-119310000D02*
G75*
G02*
X116060000Y-119310000I1500000J0D01*
G01*
X116270000Y-69330000D02*
G75*
G02*
X113270000Y-69330000I-1500000J0D01*
G01*
X113270000Y-69330000D02*
G75*
G02*
X116270000Y-69330000I1500000J0D01*
G01*
D12*
X115646743Y-30560000D02*
G75*
G02*
X115049137Y-30560000I-298803J0D01*
G01*
X115049137Y-30560000D02*
G75*
G02*
X115646743Y-30560000I298803J0D01*
G01*
D10*
X115660000Y-141250000D02*
G75*
G02*
X115060000Y-141250000I-300000J0D01*
G01*
X115060000Y-141250000D02*
G75*
G02*
X115660000Y-141250000I300000J0D01*
G01*
D12*
X116543155Y-30560000D02*
G75*
G02*
X115945549Y-30560000I-298803J0D01*
G01*
X115945549Y-30560000D02*
G75*
G02*
X116543155Y-30560000I298803J0D01*
G01*
D10*
X116560000Y-141250000D02*
G75*
G02*
X115960000Y-141250000I-300000J0D01*
G01*
X115960000Y-141250000D02*
G75*
G02*
X116560000Y-141250000I300000J0D01*
G01*
D12*
X117439567Y-30560000D02*
G75*
G02*
X116841961Y-30560000I-298803J0D01*
G01*
X116841961Y-30560000D02*
G75*
G02*
X117439567Y-30560000I298803J0D01*
G01*
D10*
X117460000Y-141250000D02*
G75*
G02*
X116860000Y-141250000I-300000J0D01*
G01*
X116860000Y-141250000D02*
G75*
G02*
X117460000Y-141250000I300000J0D01*
G01*
D12*
X118335979Y-30560000D02*
G75*
G02*
X117738373Y-30560000I-298803J0D01*
G01*
X117738373Y-30560000D02*
G75*
G02*
X118335979Y-30560000I298803J0D01*
G01*
D10*
X118360000Y-141250000D02*
G75*
G02*
X117760000Y-141250000I-300000J0D01*
G01*
X117760000Y-141250000D02*
G75*
G02*
X118360000Y-141250000I300000J0D01*
G01*
D12*
X119232391Y-30560000D02*
G75*
G02*
X118634785Y-30560000I-298803J0D01*
G01*
X118634785Y-30560000D02*
G75*
G02*
X119232391Y-30560000I298803J0D01*
G01*
D10*
X119260000Y-141250000D02*
G75*
G02*
X118660000Y-141250000I-300000J0D01*
G01*
X118660000Y-141250000D02*
G75*
G02*
X119260000Y-141250000I300000J0D01*
G01*
D12*
X120128803Y-30560000D02*
G75*
G02*
X119531197Y-30560000I-298803J0D01*
G01*
X119531197Y-30560000D02*
G75*
G02*
X120128803Y-30560000I298803J0D01*
G01*
D10*
X120160000Y-141250000D02*
G75*
G02*
X119560000Y-141250000I-300000J0D01*
G01*
X119560000Y-141250000D02*
G75*
G02*
X120160000Y-141250000I300000J0D01*
G01*
D12*
X121025215Y-30560000D02*
G75*
G02*
X120427609Y-30560000I-298803J0D01*
G01*
X120427609Y-30560000D02*
G75*
G02*
X121025215Y-30560000I298803J0D01*
G01*
D10*
X121060000Y-141250000D02*
G75*
G02*
X120460000Y-141250000I-300000J0D01*
G01*
X120460000Y-141250000D02*
G75*
G02*
X121060000Y-141250000I300000J0D01*
G01*
D12*
X121921627Y-30560000D02*
G75*
G02*
X121324021Y-30560000I-298803J0D01*
G01*
X121324021Y-30560000D02*
G75*
G02*
X121921627Y-30560000I298803J0D01*
G01*
D10*
X121960000Y-141250000D02*
G75*
G02*
X121360000Y-141250000I-300000J0D01*
G01*
X121360000Y-141250000D02*
G75*
G02*
X121960000Y-141250000I300000J0D01*
G01*
D12*
X122818039Y-30560000D02*
G75*
G02*
X122220433Y-30560000I-298803J0D01*
G01*
X122220433Y-30560000D02*
G75*
G02*
X122818039Y-30560000I298803J0D01*
G01*
D10*
X122860000Y-141250000D02*
G75*
G02*
X122260000Y-141250000I-300000J0D01*
G01*
X122260000Y-141250000D02*
G75*
G02*
X122860000Y-141250000I300000J0D01*
G01*
D12*
X123714451Y-30560000D02*
G75*
G02*
X123116845Y-30560000I-298803J0D01*
G01*
X123116845Y-30560000D02*
G75*
G02*
X123714451Y-30560000I298803J0D01*
G01*
D10*
X123760000Y-141250000D02*
G75*
G02*
X123160000Y-141250000I-300000J0D01*
G01*
X123160000Y-141250000D02*
G75*
G02*
X123760000Y-141250000I300000J0D01*
G01*
D12*
X124610863Y-30560000D02*
G75*
G02*
X124013257Y-30560000I-298803J0D01*
G01*
X124013257Y-30560000D02*
G75*
G02*
X124610863Y-30560000I298803J0D01*
G01*
D10*
X124660000Y-141250000D02*
G75*
G02*
X124060000Y-141250000I-300000J0D01*
G01*
X124060000Y-141250000D02*
G75*
G02*
X124660000Y-141250000I300000J0D01*
G01*
D12*
X125507275Y-30560000D02*
G75*
G02*
X124909669Y-30560000I-298803J0D01*
G01*
X124909669Y-30560000D02*
G75*
G02*
X125507275Y-30560000I298803J0D01*
G01*
D10*
X125560000Y-141250000D02*
G75*
G02*
X124960000Y-141250000I-300000J0D01*
G01*
X124960000Y-141250000D02*
G75*
G02*
X125560000Y-141250000I300000J0D01*
G01*
X126870000Y-119310000D02*
G75*
G02*
X123870000Y-119310000I-1500000J0D01*
G01*
X123870000Y-119310000D02*
G75*
G02*
X126870000Y-119310000I1500000J0D01*
G01*
X127070000Y-69320000D02*
G75*
G02*
X124070000Y-69320000I-1500000J0D01*
G01*
X124070000Y-69320000D02*
G75*
G02*
X127070000Y-69320000I1500000J0D01*
G01*
D12*
X126403687Y-30560000D02*
G75*
G02*
X125806081Y-30560000I-298803J0D01*
G01*
X125806081Y-30560000D02*
G75*
G02*
X126403687Y-30560000I298803J0D01*
G01*
D10*
X126460000Y-141250000D02*
G75*
G02*
X125860000Y-141250000I-300000J0D01*
G01*
X125860000Y-141250000D02*
G75*
G02*
X126460000Y-141250000I300000J0D01*
G01*
D12*
X127300099Y-30560000D02*
G75*
G02*
X126702493Y-30560000I-298803J0D01*
G01*
X126702493Y-30560000D02*
G75*
G02*
X127300099Y-30560000I298803J0D01*
G01*
D10*
X127360000Y-141250000D02*
G75*
G02*
X126760000Y-141250000I-300000J0D01*
G01*
X126760000Y-141250000D02*
G75*
G02*
X127360000Y-141250000I300000J0D01*
G01*
X127357107Y-20667107D02*
X127357107Y-29932893D01*
X127357107Y-20667107D02*
G75*
G02*
X128357107Y-19667107I999993J7D01*
G01*
X127357107Y-141927107D02*
X127357107Y-151192893D01*
X127357107Y-141927107D02*
G75*
G02*
X128357107Y-140927107I999993J7D01*
G01*
X128357107Y-19667107D02*
X174020000Y-19690000D01*
X128357107Y-30932893D02*
G75*
G02*
X127357107Y-29932893I-7J999993D01*
G01*
X128357107Y-140927107D02*
X150108521Y-140929312D01*
X128357107Y-152192893D02*
G75*
G02*
X127357107Y-151192893I-7J999993D01*
G01*
X137660000Y-119310000D02*
G75*
G02*
X134660000Y-119310000I-1500000J0D01*
G01*
X134660000Y-119310000D02*
G75*
G02*
X137660000Y-119310000I1500000J0D01*
G01*
X137860000Y-69310000D02*
G75*
G02*
X134860000Y-69310000I-1500000J0D01*
G01*
X134860000Y-69310000D02*
G75*
G02*
X137860000Y-69310000I1500000J0D01*
G01*
X150108521Y-30929312D02*
X128357107Y-30932893D01*
X150108521Y-140929312D02*
X150108521Y-30929312D01*
X152150000Y-21690000D02*
X152150000Y-150190000D01*
X152150000Y-150190000D02*
X173950000Y-150190000D01*
X169090000Y-119280000D02*
G75*
G02*
X162890000Y-119280000I-3100000J0D01*
G01*
X162890000Y-119280000D02*
G75*
G02*
X169090000Y-119280000I3100000J0D01*
G01*
X169270000Y-69240000D02*
G75*
G02*
X163070000Y-69240000I-3100000J0D01*
G01*
X163070000Y-69240000D02*
G75*
G02*
X169270000Y-69240000I3100000J0D01*
G01*
X169190000Y-99690000D02*
G75*
G02*
X163190000Y-99690000I-3000000J0D01*
G01*
X163190000Y-99690000D02*
G75*
G02*
X169190000Y-99690000I3000000J0D01*
G01*
X173700000Y-58370000D02*
G75*
G02*
X170500000Y-58370000I-1600000J0D01*
G01*
X170500000Y-58370000D02*
G75*
G02*
X173700000Y-58370000I1600000J0D01*
G01*
X177370000Y-43990000D02*
G75*
G02*
X168270000Y-43990000I-4550000J0D01*
G01*
X168270000Y-43990000D02*
G75*
G02*
X177370000Y-43990000I4550000J0D01*
G01*
X173950000Y-150190000D02*
G75*
G02*
X173950000Y-152190000I0J-1000000D01*
G01*
X173950000Y-152190000D02*
X128357107Y-152192893D01*
X174020000Y-19690000D02*
G75*
G02*
X174020000Y-21690000I0J-1000000D01*
G01*
X174020000Y-21690000D02*
X152150000Y-21690000D01*
X175550000Y-150490000D02*
G75*
G02*
X174950000Y-150490000I-300000J0D01*
G01*
X174950000Y-150490000D02*
G75*
G02*
X175550000Y-150490000I300000J0D01*
G01*
X175620000Y-21390000D02*
G75*
G02*
X175020000Y-21390000I-300000J0D01*
G01*
X175020000Y-21390000D02*
G75*
G02*
X175620000Y-21390000I300000J0D01*
G01*
X176450000Y-150490000D02*
G75*
G02*
X175850000Y-150490000I-300000J0D01*
G01*
X175850000Y-150490000D02*
G75*
G02*
X176450000Y-150490000I300000J0D01*
G01*
X176520000Y-21390000D02*
G75*
G02*
X175920000Y-21390000I-300000J0D01*
G01*
X175920000Y-21390000D02*
G75*
G02*
X176520000Y-21390000I300000J0D01*
G01*
X179860000Y-119280000D02*
G75*
G02*
X173660000Y-119280000I-3100000J0D01*
G01*
X173660000Y-119280000D02*
G75*
G02*
X179860000Y-119280000I3100000J0D01*
G01*
X179280000Y-99560000D02*
G75*
G02*
X174280000Y-99560000I-2500000J0D01*
G01*
X174280000Y-99560000D02*
G75*
G02*
X179280000Y-99560000I2500000J0D01*
G01*
X180980000Y-83710000D02*
G75*
G02*
X172780000Y-83710000I-4100000J0D01*
G01*
X172780000Y-83710000D02*
G75*
G02*
X180980000Y-83710000I4100000J0D01*
G01*
X180060000Y-69270000D02*
G75*
G02*
X173860000Y-69270000I-3100000J0D01*
G01*
X173860000Y-69270000D02*
G75*
G02*
X180060000Y-69270000I3100000J0D01*
G01*
X177350000Y-150490000D02*
G75*
G02*
X176750000Y-150490000I-300000J0D01*
G01*
X176750000Y-150490000D02*
G75*
G02*
X177350000Y-150490000I300000J0D01*
G01*
X177420000Y-21390000D02*
G75*
G02*
X176820000Y-21390000I-300000J0D01*
G01*
X176820000Y-21390000D02*
G75*
G02*
X177420000Y-21390000I300000J0D01*
G01*
X178250000Y-150490000D02*
G75*
G02*
X177650000Y-150490000I-300000J0D01*
G01*
X177650000Y-150490000D02*
G75*
G02*
X178250000Y-150490000I300000J0D01*
G01*
X178320000Y-21390000D02*
G75*
G02*
X177720000Y-21390000I-300000J0D01*
G01*
X177720000Y-21390000D02*
G75*
G02*
X178320000Y-21390000I300000J0D01*
G01*
X179150000Y-150490000D02*
G75*
G02*
X178550000Y-150490000I-300000J0D01*
G01*
X178550000Y-150490000D02*
G75*
G02*
X179150000Y-150490000I300000J0D01*
G01*
X179220000Y-21390000D02*
G75*
G02*
X178620000Y-21390000I-300000J0D01*
G01*
X178620000Y-21390000D02*
G75*
G02*
X179220000Y-21390000I300000J0D01*
G01*
X180050000Y-150490000D02*
G75*
G02*
X179450000Y-150490000I-300000J0D01*
G01*
X179450000Y-150490000D02*
G75*
G02*
X180050000Y-150490000I300000J0D01*
G01*
X180120000Y-21390000D02*
G75*
G02*
X179520000Y-21390000I-300000J0D01*
G01*
X179520000Y-21390000D02*
G75*
G02*
X180120000Y-21390000I300000J0D01*
G01*
X180950000Y-150490000D02*
G75*
G02*
X180350000Y-150490000I-300000J0D01*
G01*
X180350000Y-150490000D02*
G75*
G02*
X180950000Y-150490000I300000J0D01*
G01*
X181020000Y-21390000D02*
G75*
G02*
X180420000Y-21390000I-300000J0D01*
G01*
X180420000Y-21390000D02*
G75*
G02*
X181020000Y-21390000I300000J0D01*
G01*
X181850000Y-150490000D02*
G75*
G02*
X181250000Y-150490000I-300000J0D01*
G01*
X181250000Y-150490000D02*
G75*
G02*
X181850000Y-150490000I300000J0D01*
G01*
X181920000Y-21390000D02*
G75*
G02*
X181320000Y-21390000I-300000J0D01*
G01*
X181320000Y-21390000D02*
G75*
G02*
X181920000Y-21390000I300000J0D01*
G01*
X183878119Y-130205146D02*
G75*
G02*
X180678119Y-130205146I-1600000J0D01*
G01*
X180678119Y-130205146D02*
G75*
G02*
X183878119Y-130205146I1600000J0D01*
G01*
X183920000Y-58410000D02*
G75*
G02*
X180720000Y-58410000I-1600000J0D01*
G01*
X180720000Y-58410000D02*
G75*
G02*
X183920000Y-58410000I1600000J0D01*
G01*
X182750000Y-150490000D02*
G75*
G02*
X182150000Y-150490000I-300000J0D01*
G01*
X182150000Y-150490000D02*
G75*
G02*
X182750000Y-150490000I300000J0D01*
G01*
X182820000Y-21390000D02*
G75*
G02*
X182220000Y-21390000I-300000J0D01*
G01*
X182220000Y-21390000D02*
G75*
G02*
X182820000Y-21390000I300000J0D01*
G01*
X183650000Y-150490000D02*
G75*
G02*
X183050000Y-150490000I-300000J0D01*
G01*
X183050000Y-150490000D02*
G75*
G02*
X183650000Y-150490000I300000J0D01*
G01*
X183720000Y-21390000D02*
G75*
G02*
X183120000Y-21390000I-300000J0D01*
G01*
X183120000Y-21390000D02*
G75*
G02*
X183720000Y-21390000I300000J0D01*
G01*
X184550000Y-150490000D02*
G75*
G02*
X183950000Y-150490000I-300000J0D01*
G01*
X183950000Y-150490000D02*
G75*
G02*
X184550000Y-150490000I300000J0D01*
G01*
X184620000Y-21390000D02*
G75*
G02*
X184020000Y-21390000I-300000J0D01*
G01*
X184020000Y-21390000D02*
G75*
G02*
X184620000Y-21390000I300000J0D01*
G01*
X185450000Y-150490000D02*
G75*
G02*
X184850000Y-150490000I-300000J0D01*
G01*
X184850000Y-150490000D02*
G75*
G02*
X185450000Y-150490000I300000J0D01*
G01*
X185520000Y-21390000D02*
G75*
G02*
X184920000Y-21390000I-300000J0D01*
G01*
X184920000Y-21390000D02*
G75*
G02*
X185520000Y-21390000I300000J0D01*
G01*
X186350000Y-150490000D02*
G75*
G02*
X185750000Y-150490000I-300000J0D01*
G01*
X185750000Y-150490000D02*
G75*
G02*
X186350000Y-150490000I300000J0D01*
G01*
X186420000Y-21390000D02*
G75*
G02*
X185820000Y-21390000I-300000J0D01*
G01*
X185820000Y-21390000D02*
G75*
G02*
X186420000Y-21390000I300000J0D01*
G01*
X187250000Y-150490000D02*
G75*
G02*
X186650000Y-150490000I-300000J0D01*
G01*
X186650000Y-150490000D02*
G75*
G02*
X187250000Y-150490000I300000J0D01*
G01*
X187320000Y-21390000D02*
G75*
G02*
X186720000Y-21390000I-300000J0D01*
G01*
X186720000Y-21390000D02*
G75*
G02*
X187320000Y-21390000I300000J0D01*
G01*
X190663834Y-119273266D02*
G75*
G02*
X184463834Y-119273266I-3100000J0D01*
G01*
X184463834Y-119273266D02*
G75*
G02*
X190663834Y-119273266I3100000J0D01*
G01*
X190870000Y-69250000D02*
G75*
G02*
X184670000Y-69250000I-3100000J0D01*
G01*
X184670000Y-69250000D02*
G75*
G02*
X190870000Y-69250000I3100000J0D01*
G01*
X188150000Y-150490000D02*
G75*
G02*
X187550000Y-150490000I-300000J0D01*
G01*
X187550000Y-150490000D02*
G75*
G02*
X188150000Y-150490000I300000J0D01*
G01*
X188220000Y-21390000D02*
G75*
G02*
X187620000Y-21390000I-300000J0D01*
G01*
X187620000Y-21390000D02*
G75*
G02*
X188220000Y-21390000I300000J0D01*
G01*
X189050000Y-150490000D02*
G75*
G02*
X188450000Y-150490000I-300000J0D01*
G01*
X188450000Y-150490000D02*
G75*
G02*
X189050000Y-150490000I300000J0D01*
G01*
X189120000Y-21390000D02*
G75*
G02*
X188520000Y-21390000I-300000J0D01*
G01*
X188520000Y-21390000D02*
G75*
G02*
X189120000Y-21390000I300000J0D01*
G01*
X189950000Y-150490000D02*
G75*
G02*
X189350000Y-150490000I-300000J0D01*
G01*
X189350000Y-150490000D02*
G75*
G02*
X189950000Y-150490000I300000J0D01*
G01*
X190020000Y-21390000D02*
G75*
G02*
X189420000Y-21390000I-300000J0D01*
G01*
X189420000Y-21390000D02*
G75*
G02*
X190020000Y-21390000I300000J0D01*
G01*
X190950000Y-150190000D02*
X212750000Y-150190000D01*
X190950000Y-152190000D02*
G75*
G02*
X190950000Y-150190000I0J1000000D01*
G01*
X191020000Y-19690000D02*
X212750000Y-19690000D01*
X191020000Y-21690000D02*
G75*
G02*
X191020000Y-19690000I0J1000000D01*
G01*
X196460000Y-43970000D02*
G75*
G02*
X188260000Y-43970000I-4100000J0D01*
G01*
X188260000Y-43970000D02*
G75*
G02*
X196460000Y-43970000I4100000J0D01*
G01*
X194100000Y-58340000D02*
G75*
G02*
X190900000Y-58340000I-1600000J0D01*
G01*
X190900000Y-58340000D02*
G75*
G02*
X194100000Y-58340000I1600000J0D01*
G01*
X201500000Y-119250000D02*
G75*
G02*
X195300000Y-119250000I-3100000J0D01*
G01*
X195300000Y-119250000D02*
G75*
G02*
X201500000Y-119250000I3100000J0D01*
G01*
X202560000Y-99340000D02*
G75*
G02*
X194360000Y-99340000I-4100000J0D01*
G01*
X194360000Y-99340000D02*
G75*
G02*
X202560000Y-99340000I4100000J0D01*
G01*
X202570000Y-84120000D02*
G75*
G02*
X194370000Y-84120000I-4100000J0D01*
G01*
X194370000Y-84120000D02*
G75*
G02*
X202570000Y-84120000I4100000J0D01*
G01*
X201670000Y-69250000D02*
G75*
G02*
X195470000Y-69250000I-3100000J0D01*
G01*
X195470000Y-69250000D02*
G75*
G02*
X201670000Y-69250000I3100000J0D01*
G01*
X200754876Y-17190000D02*
G75*
G02*
X199745124Y-17190000I-504876J0D01*
G01*
X199745124Y-17190000D02*
G75*
G02*
X200754876Y-17190000I504876J0D01*
G01*
X200750000Y-154710000D02*
G75*
G02*
X199750000Y-154710000I-500000J0D01*
G01*
X199750000Y-154710000D02*
G75*
G02*
X200750000Y-154710000I500000J0D01*
G01*
D11*
X211250000Y-17190000D02*
G75*
G02*
X209250000Y-17190000I-1000000J0D01*
G01*
X209250000Y-17190000D02*
G75*
G02*
X211250000Y-17190000I1000000J0D01*
G01*
X211250000Y-154710000D02*
G75*
G02*
X209250000Y-154710000I-1000000J0D01*
G01*
X209250000Y-154710000D02*
G75*
G02*
X211250000Y-154710000I1000000J0D01*
G01*
D10*
X212750000Y-14690000D02*
X27100000Y-14690000D01*
X212750000Y-19690000D02*
X212750000Y-14690000D01*
X212750000Y-21690000D02*
X191020000Y-21690000D01*
X212750000Y-150190000D02*
X212750000Y-21690000D01*
X212750000Y-152190000D02*
X190950000Y-152190000D01*
X212750000Y-152190000D02*
X212750000Y-157190000D01*
X212750000Y-157190000D02*
X27100000Y-157190000D01*
M02*
