%TF.GenerationSoftware,KiCad,Pcbnew,10.0.0*%
%TF.CreationDate,2026-04-03T19:45:10-07:00*%
%TF.ProjectId,VCO 2,56434f20-322e-46b6-9963-61645f706362,rev?*%
%TF.SameCoordinates,Original*%
%TF.FileFunction,Drillmap*%
%TF.FilePolarity,Positive*%
%FSLAX45Y45*%
G04 Gerber Fmt 4.5, Leading zero omitted, Abs format (unit mm)*
G04 Created by KiCad (PCBNEW 10.0.0) date 2026-04-03 19:45:10*
%MOMM*%
%LPD*%
G01*
G04 APERTURE LIST*
%ADD10C,0.050000*%
%ADD11C,0.100000*%
%ADD12C,0.049801*%
%ADD13C,0.200000*%
%ADD14C,0.270000*%
%ADD15C,0.320000*%
G04 APERTURE END LIST*
D10*
X2710000Y-1469000D02*
X2710000Y-1969000D01*
X2710000Y-1969000D02*
X4886289Y-1968711D01*
X2710000Y-3095000D02*
X4886289Y-3095289D01*
X2710000Y-14095000D02*
X2710000Y-3095000D01*
X2710000Y-15719000D02*
X2710000Y-15219000D01*
X3060000Y-1719000D02*
G75*
G02*
X2860000Y-1719000I-100000J0D01*
G01*
X2860000Y-1719000D02*
G75*
G02*
X3060000Y-1719000I100000J0D01*
G01*
D11*
X3060000Y-15469000D02*
G75*
G02*
X2860000Y-15469000I-100000J0D01*
G01*
X2860000Y-15469000D02*
G75*
G02*
X3060000Y-15469000I100000J0D01*
G01*
D10*
X4010000Y-1719000D02*
G75*
G02*
X3910000Y-1719000I-50000J0D01*
G01*
X3910000Y-1719000D02*
G75*
G02*
X4010000Y-1719000I50000J0D01*
G01*
X4010000Y-15469000D02*
G75*
G02*
X3910000Y-15469000I-50000J0D01*
G01*
X3910000Y-15469000D02*
G75*
G02*
X4010000Y-15469000I50000J0D01*
G01*
X4881531Y-14093711D02*
X2710000Y-14095000D01*
X4881531Y-14093711D02*
G75*
G02*
X4981529Y-14193711I-1J-99999D01*
G01*
X4881531Y-15220289D02*
X2710000Y-15219000D01*
X4886289Y-1968711D02*
G75*
G02*
X4986289Y-2068711I1J-99999D01*
G01*
X4981531Y-15120289D02*
G75*
G02*
X4881531Y-15220291I-100001J-1D01*
G01*
X4981531Y-15120289D02*
X4981531Y-14193711D01*
X4986289Y-2068711D02*
X4986289Y-2995289D01*
X4986289Y-2995289D02*
G75*
G02*
X4886289Y-3095289I-99999J-1D01*
G01*
X5041242Y-14126000D02*
G75*
G02*
X4981242Y-14126000I-30000J0D01*
G01*
X4981242Y-14126000D02*
G75*
G02*
X5041242Y-14126000I30000J0D01*
G01*
X5046000Y-3063000D02*
G75*
G02*
X4986000Y-3063000I-30000J0D01*
G01*
X4986000Y-3063000D02*
G75*
G02*
X5046000Y-3063000I30000J0D01*
G01*
X5131242Y-14126000D02*
G75*
G02*
X5071242Y-14126000I-30000J0D01*
G01*
X5071242Y-14126000D02*
G75*
G02*
X5131242Y-14126000I30000J0D01*
G01*
X5136000Y-3063000D02*
G75*
G02*
X5076000Y-3063000I-30000J0D01*
G01*
X5076000Y-3063000D02*
G75*
G02*
X5136000Y-3063000I30000J0D01*
G01*
X5221242Y-14126000D02*
G75*
G02*
X5161242Y-14126000I-30000J0D01*
G01*
X5161242Y-14126000D02*
G75*
G02*
X5221242Y-14126000I30000J0D01*
G01*
X5226000Y-3063000D02*
G75*
G02*
X5166000Y-3063000I-30000J0D01*
G01*
X5166000Y-3063000D02*
G75*
G02*
X5226000Y-3063000I30000J0D01*
G01*
X5311242Y-14126000D02*
G75*
G02*
X5251242Y-14126000I-30000J0D01*
G01*
X5251242Y-14126000D02*
G75*
G02*
X5311242Y-14126000I30000J0D01*
G01*
X5316000Y-3063000D02*
G75*
G02*
X5256000Y-3063000I-30000J0D01*
G01*
X5256000Y-3063000D02*
G75*
G02*
X5316000Y-3063000I30000J0D01*
G01*
X5401242Y-14126000D02*
G75*
G02*
X5341242Y-14126000I-30000J0D01*
G01*
X5341242Y-14126000D02*
G75*
G02*
X5401242Y-14126000I30000J0D01*
G01*
X5406000Y-3063000D02*
G75*
G02*
X5346000Y-3063000I-30000J0D01*
G01*
X5346000Y-3063000D02*
G75*
G02*
X5406000Y-3063000I30000J0D01*
G01*
X5491242Y-14126000D02*
G75*
G02*
X5431242Y-14126000I-30000J0D01*
G01*
X5431242Y-14126000D02*
G75*
G02*
X5491242Y-14126000I30000J0D01*
G01*
X5496000Y-3063000D02*
G75*
G02*
X5436000Y-3063000I-30000J0D01*
G01*
X5436000Y-3063000D02*
G75*
G02*
X5496000Y-3063000I30000J0D01*
G01*
X5581242Y-14126000D02*
G75*
G02*
X5521242Y-14126000I-30000J0D01*
G01*
X5521242Y-14126000D02*
G75*
G02*
X5581242Y-14126000I30000J0D01*
G01*
X5586000Y-3063000D02*
G75*
G02*
X5526000Y-3063000I-30000J0D01*
G01*
X5526000Y-3063000D02*
G75*
G02*
X5586000Y-3063000I30000J0D01*
G01*
X5671242Y-14126000D02*
G75*
G02*
X5611242Y-14126000I-30000J0D01*
G01*
X5611242Y-14126000D02*
G75*
G02*
X5671242Y-14126000I30000J0D01*
G01*
X5676000Y-3063000D02*
G75*
G02*
X5616000Y-3063000I-30000J0D01*
G01*
X5616000Y-3063000D02*
G75*
G02*
X5676000Y-3063000I30000J0D01*
G01*
X5761242Y-14126000D02*
G75*
G02*
X5701242Y-14126000I-30000J0D01*
G01*
X5701242Y-14126000D02*
G75*
G02*
X5761242Y-14126000I30000J0D01*
G01*
X5766000Y-3063000D02*
G75*
G02*
X5706000Y-3063000I-30000J0D01*
G01*
X5706000Y-3063000D02*
G75*
G02*
X5766000Y-3063000I30000J0D01*
G01*
X5851242Y-14126000D02*
G75*
G02*
X5791242Y-14126000I-30000J0D01*
G01*
X5791242Y-14126000D02*
G75*
G02*
X5851242Y-14126000I30000J0D01*
G01*
X5856000Y-3063000D02*
G75*
G02*
X5796000Y-3063000I-30000J0D01*
G01*
X5796000Y-3063000D02*
G75*
G02*
X5856000Y-3063000I30000J0D01*
G01*
X5941242Y-14126000D02*
G75*
G02*
X5881242Y-14126000I-30000J0D01*
G01*
X5881242Y-14126000D02*
G75*
G02*
X5941242Y-14126000I30000J0D01*
G01*
X5946000Y-3063000D02*
G75*
G02*
X5886000Y-3063000I-30000J0D01*
G01*
X5886000Y-3063000D02*
G75*
G02*
X5946000Y-3063000I30000J0D01*
G01*
X6031242Y-14126000D02*
G75*
G02*
X5971242Y-14126000I-30000J0D01*
G01*
X5971242Y-14126000D02*
G75*
G02*
X6031242Y-14126000I30000J0D01*
G01*
X6036000Y-3063000D02*
G75*
G02*
X5976000Y-3063000I-30000J0D01*
G01*
X5976000Y-3063000D02*
G75*
G02*
X6036000Y-3063000I30000J0D01*
G01*
X6121242Y-14126000D02*
G75*
G02*
X6061242Y-14126000I-30000J0D01*
G01*
X6061242Y-14126000D02*
G75*
G02*
X6121242Y-14126000I30000J0D01*
G01*
X6126000Y-3063000D02*
G75*
G02*
X6066000Y-3063000I-30000J0D01*
G01*
X6066000Y-3063000D02*
G75*
G02*
X6126000Y-3063000I30000J0D01*
G01*
X6211242Y-14126000D02*
G75*
G02*
X6151242Y-14126000I-30000J0D01*
G01*
X6151242Y-14126000D02*
G75*
G02*
X6211242Y-14126000I30000J0D01*
G01*
X6216000Y-3063000D02*
G75*
G02*
X6156000Y-3063000I-30000J0D01*
G01*
X6156000Y-3063000D02*
G75*
G02*
X6216000Y-3063000I30000J0D01*
G01*
X6301242Y-14126000D02*
G75*
G02*
X6241242Y-14126000I-30000J0D01*
G01*
X6241242Y-14126000D02*
G75*
G02*
X6301242Y-14126000I30000J0D01*
G01*
X6306000Y-3063000D02*
G75*
G02*
X6246000Y-3063000I-30000J0D01*
G01*
X6246000Y-3063000D02*
G75*
G02*
X6306000Y-3063000I30000J0D01*
G01*
X6391242Y-14126000D02*
G75*
G02*
X6331242Y-14126000I-30000J0D01*
G01*
X6331242Y-14126000D02*
G75*
G02*
X6391242Y-14126000I30000J0D01*
G01*
X6396000Y-3063000D02*
G75*
G02*
X6336000Y-3063000I-30000J0D01*
G01*
X6336000Y-3063000D02*
G75*
G02*
X6396000Y-3063000I30000J0D01*
G01*
X6481242Y-14126000D02*
G75*
G02*
X6421242Y-14126000I-30000J0D01*
G01*
X6421242Y-14126000D02*
G75*
G02*
X6481242Y-14126000I30000J0D01*
G01*
X6486000Y-3063000D02*
G75*
G02*
X6426000Y-3063000I-30000J0D01*
G01*
X6426000Y-3063000D02*
G75*
G02*
X6486000Y-3063000I30000J0D01*
G01*
X6480953Y-14193711D02*
X6480953Y-15120289D01*
X6480953Y-14193711D02*
G75*
G02*
X6580953Y-14093713I99997J1D01*
G01*
X6485711Y-2068711D02*
G75*
G02*
X6585711Y-1968711I99999J1D01*
G01*
X6485711Y-2995289D02*
X6485711Y-2068711D01*
X6580953Y-14093711D02*
X8760000Y-14095000D01*
X6580953Y-15220289D02*
G75*
G02*
X6480951Y-15120289I-3J99999D01*
G01*
X6585711Y-1968711D02*
X11136289Y-1966711D01*
X6585711Y-3095289D02*
G75*
G02*
X6485711Y-2995289I-1J99999D01*
G01*
X8760000Y-3095000D02*
X6585711Y-3095289D01*
X8760000Y-14095000D02*
X8760000Y-3095000D01*
X8960852Y-3092931D02*
X11136289Y-3093289D01*
X8960852Y-14092931D02*
X8960852Y-3092931D01*
X10526000Y-11930000D02*
G75*
G02*
X10226000Y-11930000I-150000J0D01*
G01*
X10226000Y-11930000D02*
G75*
G02*
X10526000Y-11930000I150000J0D01*
G01*
X10546000Y-6931000D02*
G75*
G02*
X10246000Y-6931000I-150000J0D01*
G01*
X10246000Y-6931000D02*
G75*
G02*
X10546000Y-6931000I150000J0D01*
G01*
X10546000Y-9973000D02*
G75*
G02*
X10246000Y-9973000I-150000J0D01*
G01*
X10246000Y-9973000D02*
G75*
G02*
X10546000Y-9973000I150000J0D01*
G01*
X11136289Y-1966711D02*
G75*
G02*
X11236289Y-2066711I1J-99999D01*
G01*
X11136289Y-14092711D02*
X8960852Y-14092931D01*
X11136289Y-14092711D02*
G75*
G02*
X11236289Y-14192711I1J-99999D01*
G01*
X11136289Y-15219289D02*
X6580953Y-15220289D01*
X11236289Y-2066711D02*
X11236289Y-2993289D01*
X11236289Y-2993289D02*
G75*
G02*
X11136289Y-3093289I-99999J-1D01*
G01*
X11236289Y-15119289D02*
G75*
G02*
X11136289Y-15219289I-99999J-1D01*
G01*
X11236289Y-15119289D02*
X11236289Y-14192711D01*
D12*
X11295751Y-3056000D02*
G75*
G02*
X11235990Y-3056000I-29880J0D01*
G01*
X11235990Y-3056000D02*
G75*
G02*
X11295751Y-3056000I29880J0D01*
G01*
D10*
X11296000Y-14125000D02*
G75*
G02*
X11236000Y-14125000I-30000J0D01*
G01*
X11236000Y-14125000D02*
G75*
G02*
X11296000Y-14125000I30000J0D01*
G01*
D12*
X11385392Y-3056000D02*
G75*
G02*
X11325631Y-3056000I-29880J0D01*
G01*
X11325631Y-3056000D02*
G75*
G02*
X11385392Y-3056000I29880J0D01*
G01*
D10*
X11386000Y-14125000D02*
G75*
G02*
X11326000Y-14125000I-30000J0D01*
G01*
X11326000Y-14125000D02*
G75*
G02*
X11386000Y-14125000I30000J0D01*
G01*
D12*
X11475033Y-3056000D02*
G75*
G02*
X11415272Y-3056000I-29880J0D01*
G01*
X11415272Y-3056000D02*
G75*
G02*
X11475033Y-3056000I29880J0D01*
G01*
D10*
X11476000Y-14125000D02*
G75*
G02*
X11416000Y-14125000I-30000J0D01*
G01*
X11416000Y-14125000D02*
G75*
G02*
X11476000Y-14125000I30000J0D01*
G01*
X11606000Y-11931000D02*
G75*
G02*
X11306000Y-11931000I-150000J0D01*
G01*
X11306000Y-11931000D02*
G75*
G02*
X11606000Y-11931000I150000J0D01*
G01*
X11627000Y-6933000D02*
G75*
G02*
X11327000Y-6933000I-150000J0D01*
G01*
X11327000Y-6933000D02*
G75*
G02*
X11627000Y-6933000I150000J0D01*
G01*
D12*
X11564674Y-3056000D02*
G75*
G02*
X11504914Y-3056000I-29880J0D01*
G01*
X11504914Y-3056000D02*
G75*
G02*
X11564674Y-3056000I29880J0D01*
G01*
D10*
X11566000Y-14125000D02*
G75*
G02*
X11506000Y-14125000I-30000J0D01*
G01*
X11506000Y-14125000D02*
G75*
G02*
X11566000Y-14125000I30000J0D01*
G01*
D12*
X11654315Y-3056000D02*
G75*
G02*
X11594555Y-3056000I-29880J0D01*
G01*
X11594555Y-3056000D02*
G75*
G02*
X11654315Y-3056000I29880J0D01*
G01*
D10*
X11656000Y-14125000D02*
G75*
G02*
X11596000Y-14125000I-30000J0D01*
G01*
X11596000Y-14125000D02*
G75*
G02*
X11656000Y-14125000I30000J0D01*
G01*
D12*
X11743957Y-3056000D02*
G75*
G02*
X11684196Y-3056000I-29880J0D01*
G01*
X11684196Y-3056000D02*
G75*
G02*
X11743957Y-3056000I29880J0D01*
G01*
D10*
X11746000Y-14125000D02*
G75*
G02*
X11686000Y-14125000I-30000J0D01*
G01*
X11686000Y-14125000D02*
G75*
G02*
X11746000Y-14125000I30000J0D01*
G01*
D12*
X11833598Y-3056000D02*
G75*
G02*
X11773837Y-3056000I-29880J0D01*
G01*
X11773837Y-3056000D02*
G75*
G02*
X11833598Y-3056000I29880J0D01*
G01*
D10*
X11836000Y-14125000D02*
G75*
G02*
X11776000Y-14125000I-30000J0D01*
G01*
X11776000Y-14125000D02*
G75*
G02*
X11836000Y-14125000I30000J0D01*
G01*
D12*
X11923239Y-3056000D02*
G75*
G02*
X11863478Y-3056000I-29880J0D01*
G01*
X11863478Y-3056000D02*
G75*
G02*
X11923239Y-3056000I29880J0D01*
G01*
D10*
X11926000Y-14125000D02*
G75*
G02*
X11866000Y-14125000I-30000J0D01*
G01*
X11866000Y-14125000D02*
G75*
G02*
X11926000Y-14125000I30000J0D01*
G01*
D12*
X12012880Y-3056000D02*
G75*
G02*
X11953120Y-3056000I-29880J0D01*
G01*
X11953120Y-3056000D02*
G75*
G02*
X12012880Y-3056000I29880J0D01*
G01*
D10*
X12016000Y-14125000D02*
G75*
G02*
X11956000Y-14125000I-30000J0D01*
G01*
X11956000Y-14125000D02*
G75*
G02*
X12016000Y-14125000I30000J0D01*
G01*
D12*
X12102521Y-3056000D02*
G75*
G02*
X12042761Y-3056000I-29880J0D01*
G01*
X12042761Y-3056000D02*
G75*
G02*
X12102521Y-3056000I29880J0D01*
G01*
D10*
X12106000Y-14125000D02*
G75*
G02*
X12046000Y-14125000I-30000J0D01*
G01*
X12046000Y-14125000D02*
G75*
G02*
X12106000Y-14125000I30000J0D01*
G01*
D12*
X12192163Y-3056000D02*
G75*
G02*
X12132402Y-3056000I-29880J0D01*
G01*
X12132402Y-3056000D02*
G75*
G02*
X12192163Y-3056000I29880J0D01*
G01*
D10*
X12196000Y-14125000D02*
G75*
G02*
X12136000Y-14125000I-30000J0D01*
G01*
X12136000Y-14125000D02*
G75*
G02*
X12196000Y-14125000I30000J0D01*
G01*
D12*
X12281804Y-3056000D02*
G75*
G02*
X12222043Y-3056000I-29880J0D01*
G01*
X12222043Y-3056000D02*
G75*
G02*
X12281804Y-3056000I29880J0D01*
G01*
D10*
X12286000Y-14125000D02*
G75*
G02*
X12226000Y-14125000I-30000J0D01*
G01*
X12226000Y-14125000D02*
G75*
G02*
X12286000Y-14125000I30000J0D01*
G01*
D12*
X12371445Y-3056000D02*
G75*
G02*
X12311684Y-3056000I-29880J0D01*
G01*
X12311684Y-3056000D02*
G75*
G02*
X12371445Y-3056000I29880J0D01*
G01*
D10*
X12376000Y-14125000D02*
G75*
G02*
X12316000Y-14125000I-30000J0D01*
G01*
X12316000Y-14125000D02*
G75*
G02*
X12376000Y-14125000I30000J0D01*
G01*
D12*
X12461086Y-3056000D02*
G75*
G02*
X12401326Y-3056000I-29880J0D01*
G01*
X12401326Y-3056000D02*
G75*
G02*
X12461086Y-3056000I29880J0D01*
G01*
D10*
X12466000Y-14125000D02*
G75*
G02*
X12406000Y-14125000I-30000J0D01*
G01*
X12406000Y-14125000D02*
G75*
G02*
X12466000Y-14125000I30000J0D01*
G01*
D12*
X12550727Y-3056000D02*
G75*
G02*
X12490967Y-3056000I-29880J0D01*
G01*
X12490967Y-3056000D02*
G75*
G02*
X12550727Y-3056000I29880J0D01*
G01*
D10*
X12556000Y-14125000D02*
G75*
G02*
X12496000Y-14125000I-30000J0D01*
G01*
X12496000Y-14125000D02*
G75*
G02*
X12556000Y-14125000I30000J0D01*
G01*
X12687000Y-11931000D02*
G75*
G02*
X12387000Y-11931000I-150000J0D01*
G01*
X12387000Y-11931000D02*
G75*
G02*
X12687000Y-11931000I150000J0D01*
G01*
X12707000Y-6932000D02*
G75*
G02*
X12407000Y-6932000I-150000J0D01*
G01*
X12407000Y-6932000D02*
G75*
G02*
X12707000Y-6932000I150000J0D01*
G01*
D12*
X12640369Y-3056000D02*
G75*
G02*
X12580608Y-3056000I-29880J0D01*
G01*
X12580608Y-3056000D02*
G75*
G02*
X12640369Y-3056000I29880J0D01*
G01*
D10*
X12646000Y-14125000D02*
G75*
G02*
X12586000Y-14125000I-30000J0D01*
G01*
X12586000Y-14125000D02*
G75*
G02*
X12646000Y-14125000I30000J0D01*
G01*
D12*
X12730010Y-3056000D02*
G75*
G02*
X12670249Y-3056000I-29880J0D01*
G01*
X12670249Y-3056000D02*
G75*
G02*
X12730010Y-3056000I29880J0D01*
G01*
D10*
X12736000Y-14125000D02*
G75*
G02*
X12676000Y-14125000I-30000J0D01*
G01*
X12676000Y-14125000D02*
G75*
G02*
X12736000Y-14125000I30000J0D01*
G01*
X12735711Y-2066711D02*
X12735711Y-2993289D01*
X12735711Y-2066711D02*
G75*
G02*
X12835711Y-1966711I99999J1D01*
G01*
X12735711Y-14192711D02*
X12735711Y-15119289D01*
X12735711Y-14192711D02*
G75*
G02*
X12835711Y-14092711I99999J1D01*
G01*
X12835711Y-1966711D02*
X17402000Y-1969000D01*
X12835711Y-3093289D02*
G75*
G02*
X12735711Y-2993289I-1J99999D01*
G01*
X12835711Y-14092711D02*
X15010852Y-14092931D01*
X12835711Y-15219289D02*
G75*
G02*
X12735711Y-15119289I-1J99999D01*
G01*
X13766000Y-11931000D02*
G75*
G02*
X13466000Y-11931000I-150000J0D01*
G01*
X13466000Y-11931000D02*
G75*
G02*
X13766000Y-11931000I150000J0D01*
G01*
X13786000Y-6931000D02*
G75*
G02*
X13486000Y-6931000I-150000J0D01*
G01*
X13486000Y-6931000D02*
G75*
G02*
X13786000Y-6931000I150000J0D01*
G01*
X15010852Y-3092931D02*
X12835711Y-3093289D01*
X15010852Y-14092931D02*
X15010852Y-3092931D01*
X15215000Y-2169000D02*
X15215000Y-15019000D01*
X15215000Y-15019000D02*
X17395000Y-15019000D01*
X16909000Y-11928000D02*
G75*
G02*
X16289000Y-11928000I-310000J0D01*
G01*
X16289000Y-11928000D02*
G75*
G02*
X16909000Y-11928000I310000J0D01*
G01*
X16927000Y-6924000D02*
G75*
G02*
X16307000Y-6924000I-310000J0D01*
G01*
X16307000Y-6924000D02*
G75*
G02*
X16927000Y-6924000I310000J0D01*
G01*
X16919000Y-9969000D02*
G75*
G02*
X16319000Y-9969000I-300000J0D01*
G01*
X16319000Y-9969000D02*
G75*
G02*
X16919000Y-9969000I300000J0D01*
G01*
X17370000Y-5837000D02*
G75*
G02*
X17050000Y-5837000I-160000J0D01*
G01*
X17050000Y-5837000D02*
G75*
G02*
X17370000Y-5837000I160000J0D01*
G01*
X17737000Y-4399000D02*
G75*
G02*
X16827000Y-4399000I-455000J0D01*
G01*
X16827000Y-4399000D02*
G75*
G02*
X17737000Y-4399000I455000J0D01*
G01*
X17395000Y-15019000D02*
G75*
G02*
X17395000Y-15219000I0J-100000D01*
G01*
X17395000Y-15219000D02*
X12835711Y-15219289D01*
X17402000Y-1969000D02*
G75*
G02*
X17402000Y-2169000I0J-100000D01*
G01*
X17402000Y-2169000D02*
X15215000Y-2169000D01*
X17555000Y-15049000D02*
G75*
G02*
X17495000Y-15049000I-30000J0D01*
G01*
X17495000Y-15049000D02*
G75*
G02*
X17555000Y-15049000I30000J0D01*
G01*
X17562000Y-2139000D02*
G75*
G02*
X17502000Y-2139000I-30000J0D01*
G01*
X17502000Y-2139000D02*
G75*
G02*
X17562000Y-2139000I30000J0D01*
G01*
X17645000Y-15049000D02*
G75*
G02*
X17585000Y-15049000I-30000J0D01*
G01*
X17585000Y-15049000D02*
G75*
G02*
X17645000Y-15049000I30000J0D01*
G01*
X17652000Y-2139000D02*
G75*
G02*
X17592000Y-2139000I-30000J0D01*
G01*
X17592000Y-2139000D02*
G75*
G02*
X17652000Y-2139000I30000J0D01*
G01*
X17986000Y-11928000D02*
G75*
G02*
X17366000Y-11928000I-310000J0D01*
G01*
X17366000Y-11928000D02*
G75*
G02*
X17986000Y-11928000I310000J0D01*
G01*
X17928000Y-9956000D02*
G75*
G02*
X17428000Y-9956000I-250000J0D01*
G01*
X17428000Y-9956000D02*
G75*
G02*
X17928000Y-9956000I250000J0D01*
G01*
X18098000Y-8371000D02*
G75*
G02*
X17278000Y-8371000I-410000J0D01*
G01*
X17278000Y-8371000D02*
G75*
G02*
X18098000Y-8371000I410000J0D01*
G01*
X18006000Y-6927000D02*
G75*
G02*
X17386000Y-6927000I-310000J0D01*
G01*
X17386000Y-6927000D02*
G75*
G02*
X18006000Y-6927000I310000J0D01*
G01*
X17735000Y-15049000D02*
G75*
G02*
X17675000Y-15049000I-30000J0D01*
G01*
X17675000Y-15049000D02*
G75*
G02*
X17735000Y-15049000I30000J0D01*
G01*
X17742000Y-2139000D02*
G75*
G02*
X17682000Y-2139000I-30000J0D01*
G01*
X17682000Y-2139000D02*
G75*
G02*
X17742000Y-2139000I30000J0D01*
G01*
X17825000Y-15049000D02*
G75*
G02*
X17765000Y-15049000I-30000J0D01*
G01*
X17765000Y-15049000D02*
G75*
G02*
X17825000Y-15049000I30000J0D01*
G01*
X17832000Y-2139000D02*
G75*
G02*
X17772000Y-2139000I-30000J0D01*
G01*
X17772000Y-2139000D02*
G75*
G02*
X17832000Y-2139000I30000J0D01*
G01*
X17915000Y-15049000D02*
G75*
G02*
X17855000Y-15049000I-30000J0D01*
G01*
X17855000Y-15049000D02*
G75*
G02*
X17915000Y-15049000I30000J0D01*
G01*
X17922000Y-2139000D02*
G75*
G02*
X17862000Y-2139000I-30000J0D01*
G01*
X17862000Y-2139000D02*
G75*
G02*
X17922000Y-2139000I30000J0D01*
G01*
X18005000Y-15049000D02*
G75*
G02*
X17945000Y-15049000I-30000J0D01*
G01*
X17945000Y-15049000D02*
G75*
G02*
X18005000Y-15049000I30000J0D01*
G01*
X18012000Y-2139000D02*
G75*
G02*
X17952000Y-2139000I-30000J0D01*
G01*
X17952000Y-2139000D02*
G75*
G02*
X18012000Y-2139000I30000J0D01*
G01*
X18095000Y-15049000D02*
G75*
G02*
X18035000Y-15049000I-30000J0D01*
G01*
X18035000Y-15049000D02*
G75*
G02*
X18095000Y-15049000I30000J0D01*
G01*
X18102000Y-2139000D02*
G75*
G02*
X18042000Y-2139000I-30000J0D01*
G01*
X18042000Y-2139000D02*
G75*
G02*
X18102000Y-2139000I30000J0D01*
G01*
X18185000Y-15049000D02*
G75*
G02*
X18125000Y-15049000I-30000J0D01*
G01*
X18125000Y-15049000D02*
G75*
G02*
X18185000Y-15049000I30000J0D01*
G01*
X18192000Y-2139000D02*
G75*
G02*
X18132000Y-2139000I-30000J0D01*
G01*
X18132000Y-2139000D02*
G75*
G02*
X18192000Y-2139000I30000J0D01*
G01*
X18387812Y-13020515D02*
G75*
G02*
X18067812Y-13020515I-160000J0D01*
G01*
X18067812Y-13020515D02*
G75*
G02*
X18387812Y-13020515I160000J0D01*
G01*
X18392000Y-5841000D02*
G75*
G02*
X18072000Y-5841000I-160000J0D01*
G01*
X18072000Y-5841000D02*
G75*
G02*
X18392000Y-5841000I160000J0D01*
G01*
X18275000Y-15049000D02*
G75*
G02*
X18215000Y-15049000I-30000J0D01*
G01*
X18215000Y-15049000D02*
G75*
G02*
X18275000Y-15049000I30000J0D01*
G01*
X18282000Y-2139000D02*
G75*
G02*
X18222000Y-2139000I-30000J0D01*
G01*
X18222000Y-2139000D02*
G75*
G02*
X18282000Y-2139000I30000J0D01*
G01*
X18365000Y-15049000D02*
G75*
G02*
X18305000Y-15049000I-30000J0D01*
G01*
X18305000Y-15049000D02*
G75*
G02*
X18365000Y-15049000I30000J0D01*
G01*
X18372000Y-2139000D02*
G75*
G02*
X18312000Y-2139000I-30000J0D01*
G01*
X18312000Y-2139000D02*
G75*
G02*
X18372000Y-2139000I30000J0D01*
G01*
X18455000Y-15049000D02*
G75*
G02*
X18395000Y-15049000I-30000J0D01*
G01*
X18395000Y-15049000D02*
G75*
G02*
X18455000Y-15049000I30000J0D01*
G01*
X18462000Y-2139000D02*
G75*
G02*
X18402000Y-2139000I-30000J0D01*
G01*
X18402000Y-2139000D02*
G75*
G02*
X18462000Y-2139000I30000J0D01*
G01*
X18545000Y-15049000D02*
G75*
G02*
X18485000Y-15049000I-30000J0D01*
G01*
X18485000Y-15049000D02*
G75*
G02*
X18545000Y-15049000I30000J0D01*
G01*
X18552000Y-2139000D02*
G75*
G02*
X18492000Y-2139000I-30000J0D01*
G01*
X18492000Y-2139000D02*
G75*
G02*
X18552000Y-2139000I30000J0D01*
G01*
X18635000Y-15049000D02*
G75*
G02*
X18575000Y-15049000I-30000J0D01*
G01*
X18575000Y-15049000D02*
G75*
G02*
X18635000Y-15049000I30000J0D01*
G01*
X18642000Y-2139000D02*
G75*
G02*
X18582000Y-2139000I-30000J0D01*
G01*
X18582000Y-2139000D02*
G75*
G02*
X18642000Y-2139000I30000J0D01*
G01*
X18725000Y-15049000D02*
G75*
G02*
X18665000Y-15049000I-30000J0D01*
G01*
X18665000Y-15049000D02*
G75*
G02*
X18725000Y-15049000I30000J0D01*
G01*
X18732000Y-2139000D02*
G75*
G02*
X18672000Y-2139000I-30000J0D01*
G01*
X18672000Y-2139000D02*
G75*
G02*
X18732000Y-2139000I30000J0D01*
G01*
X19066383Y-11927327D02*
G75*
G02*
X18446383Y-11927327I-310000J0D01*
G01*
X18446383Y-11927327D02*
G75*
G02*
X19066383Y-11927327I310000J0D01*
G01*
X19087000Y-6925000D02*
G75*
G02*
X18467000Y-6925000I-310000J0D01*
G01*
X18467000Y-6925000D02*
G75*
G02*
X19087000Y-6925000I310000J0D01*
G01*
X18815000Y-15049000D02*
G75*
G02*
X18755000Y-15049000I-30000J0D01*
G01*
X18755000Y-15049000D02*
G75*
G02*
X18815000Y-15049000I30000J0D01*
G01*
X18822000Y-2139000D02*
G75*
G02*
X18762000Y-2139000I-30000J0D01*
G01*
X18762000Y-2139000D02*
G75*
G02*
X18822000Y-2139000I30000J0D01*
G01*
X18905000Y-15049000D02*
G75*
G02*
X18845000Y-15049000I-30000J0D01*
G01*
X18845000Y-15049000D02*
G75*
G02*
X18905000Y-15049000I30000J0D01*
G01*
X18912000Y-2139000D02*
G75*
G02*
X18852000Y-2139000I-30000J0D01*
G01*
X18852000Y-2139000D02*
G75*
G02*
X18912000Y-2139000I30000J0D01*
G01*
X18995000Y-15049000D02*
G75*
G02*
X18935000Y-15049000I-30000J0D01*
G01*
X18935000Y-15049000D02*
G75*
G02*
X18995000Y-15049000I30000J0D01*
G01*
X19002000Y-2139000D02*
G75*
G02*
X18942000Y-2139000I-30000J0D01*
G01*
X18942000Y-2139000D02*
G75*
G02*
X19002000Y-2139000I30000J0D01*
G01*
X19095000Y-15019000D02*
X21275000Y-15019000D01*
X19095000Y-15219000D02*
G75*
G02*
X19095000Y-15019000I0J100000D01*
G01*
X19102000Y-1969000D02*
X21275000Y-1969000D01*
X19102000Y-2169000D02*
G75*
G02*
X19102000Y-1969000I0J100000D01*
G01*
X19646000Y-4397000D02*
G75*
G02*
X18826000Y-4397000I-410000J0D01*
G01*
X18826000Y-4397000D02*
G75*
G02*
X19646000Y-4397000I410000J0D01*
G01*
X19410000Y-5834000D02*
G75*
G02*
X19090000Y-5834000I-160000J0D01*
G01*
X19090000Y-5834000D02*
G75*
G02*
X19410000Y-5834000I160000J0D01*
G01*
X20150000Y-11925000D02*
G75*
G02*
X19530000Y-11925000I-310000J0D01*
G01*
X19530000Y-11925000D02*
G75*
G02*
X20150000Y-11925000I310000J0D01*
G01*
X20256000Y-9934000D02*
G75*
G02*
X19436000Y-9934000I-410000J0D01*
G01*
X19436000Y-9934000D02*
G75*
G02*
X20256000Y-9934000I410000J0D01*
G01*
X20257000Y-8412000D02*
G75*
G02*
X19437000Y-8412000I-410000J0D01*
G01*
X19437000Y-8412000D02*
G75*
G02*
X20257000Y-8412000I410000J0D01*
G01*
X20167000Y-6925000D02*
G75*
G02*
X19547000Y-6925000I-310000J0D01*
G01*
X19547000Y-6925000D02*
G75*
G02*
X20167000Y-6925000I310000J0D01*
G01*
X20075488Y-1719000D02*
G75*
G02*
X19974512Y-1719000I-50488J0D01*
G01*
X19974512Y-1719000D02*
G75*
G02*
X20075488Y-1719000I50488J0D01*
G01*
X20075000Y-15471000D02*
G75*
G02*
X19975000Y-15471000I-50000J0D01*
G01*
X19975000Y-15471000D02*
G75*
G02*
X20075000Y-15471000I50000J0D01*
G01*
D11*
X21125000Y-1719000D02*
G75*
G02*
X20925000Y-1719000I-100000J0D01*
G01*
X20925000Y-1719000D02*
G75*
G02*
X21125000Y-1719000I100000J0D01*
G01*
X21125000Y-15471000D02*
G75*
G02*
X20925000Y-15471000I-100000J0D01*
G01*
X20925000Y-15471000D02*
G75*
G02*
X21125000Y-15471000I100000J0D01*
G01*
D10*
X21275000Y-1469000D02*
X2710000Y-1469000D01*
X21275000Y-1969000D02*
X21275000Y-1469000D01*
X21275000Y-2169000D02*
X19102000Y-2169000D01*
X21275000Y-15019000D02*
X21275000Y-2169000D01*
X21275000Y-15219000D02*
X19095000Y-15219000D01*
X21275000Y-15219000D02*
X21275000Y-15719000D01*
X21275000Y-15719000D02*
X2710000Y-15719000D01*
D13*
D14*
X3070000Y-3409000D02*
X3340000Y-3679000D01*
X3340000Y-3409000D02*
X3070000Y-3679000D01*
X3070000Y-13449000D02*
X3340000Y-13719000D01*
X3340000Y-13449000D02*
X3070000Y-13719000D01*
X8130000Y-3409000D02*
X8400000Y-3679000D01*
X8400000Y-3409000D02*
X8130000Y-3679000D01*
X8130000Y-13449000D02*
X8400000Y-13719000D01*
X8400000Y-13449000D02*
X8130000Y-13719000D01*
X9320852Y-3406931D02*
X9590852Y-3676931D01*
X9590852Y-3406931D02*
X9320852Y-3676931D01*
X9320852Y-13446931D02*
X9590852Y-13716931D01*
X9590852Y-13446931D02*
X9320852Y-13716931D01*
X14380852Y-3406931D02*
X14650852Y-3676931D01*
X14650852Y-3406931D02*
X14380852Y-3676931D01*
X14380852Y-13446931D02*
X14650852Y-13716931D01*
X14650852Y-13446931D02*
X14380852Y-13716931D01*
D15*
X16130000Y-14714000D02*
G75*
G02*
X15810000Y-14714000I-160000J0D01*
G01*
X15810000Y-14714000D02*
G75*
G02*
X16130000Y-14714000I160000J0D01*
G01*
X16132000Y-2475000D02*
G75*
G02*
X15812000Y-2475000I-160000J0D01*
G01*
X15812000Y-2475000D02*
G75*
G02*
X16132000Y-2475000I160000J0D01*
G01*
X20680000Y-2475000D02*
G75*
G02*
X20360000Y-2475000I-160000J0D01*
G01*
X20360000Y-2475000D02*
G75*
G02*
X20680000Y-2475000I160000J0D01*
G01*
X20680000Y-14714000D02*
G75*
G02*
X20360000Y-14714000I-160000J0D01*
G01*
X20360000Y-14714000D02*
G75*
G02*
X20680000Y-14714000I160000J0D01*
G01*
D13*
X2968277Y-16032984D02*
X2968277Y-15832984D01*
X2968277Y-15832984D02*
X3015896Y-15832984D01*
X3015896Y-15832984D02*
X3044467Y-15842508D01*
X3044467Y-15842508D02*
X3063515Y-15861555D01*
X3063515Y-15861555D02*
X3073039Y-15880603D01*
X3073039Y-15880603D02*
X3082562Y-15918698D01*
X3082562Y-15918698D02*
X3082562Y-15947269D01*
X3082562Y-15947269D02*
X3073039Y-15985365D01*
X3073039Y-15985365D02*
X3063515Y-16004412D01*
X3063515Y-16004412D02*
X3044467Y-16023460D01*
X3044467Y-16023460D02*
X3015896Y-16032984D01*
X3015896Y-16032984D02*
X2968277Y-16032984D01*
X3168277Y-16032984D02*
X3168277Y-15899650D01*
X3168277Y-15937746D02*
X3177801Y-15918698D01*
X3177801Y-15918698D02*
X3187324Y-15909174D01*
X3187324Y-15909174D02*
X3206372Y-15899650D01*
X3206372Y-15899650D02*
X3225420Y-15899650D01*
X3292086Y-16032984D02*
X3292086Y-15899650D01*
X3292086Y-15832984D02*
X3282562Y-15842508D01*
X3282562Y-15842508D02*
X3292086Y-15852031D01*
X3292086Y-15852031D02*
X3301610Y-15842508D01*
X3301610Y-15842508D02*
X3292086Y-15832984D01*
X3292086Y-15832984D02*
X3292086Y-15852031D01*
X3415896Y-16032984D02*
X3396848Y-16023460D01*
X3396848Y-16023460D02*
X3387324Y-16004412D01*
X3387324Y-16004412D02*
X3387324Y-15832984D01*
X3520658Y-16032984D02*
X3501610Y-16023460D01*
X3501610Y-16023460D02*
X3492086Y-16004412D01*
X3492086Y-16004412D02*
X3492086Y-15832984D01*
X3749229Y-16032984D02*
X3749229Y-15832984D01*
X3749229Y-15832984D02*
X3815896Y-15975841D01*
X3815896Y-15975841D02*
X3882562Y-15832984D01*
X3882562Y-15832984D02*
X3882562Y-16032984D01*
X4063515Y-16032984D02*
X4063515Y-15928222D01*
X4063515Y-15928222D02*
X4053991Y-15909174D01*
X4053991Y-15909174D02*
X4034943Y-15899650D01*
X4034943Y-15899650D02*
X3996848Y-15899650D01*
X3996848Y-15899650D02*
X3977801Y-15909174D01*
X4063515Y-16023460D02*
X4044467Y-16032984D01*
X4044467Y-16032984D02*
X3996848Y-16032984D01*
X3996848Y-16032984D02*
X3977801Y-16023460D01*
X3977801Y-16023460D02*
X3968277Y-16004412D01*
X3968277Y-16004412D02*
X3968277Y-15985365D01*
X3968277Y-15985365D02*
X3977801Y-15966317D01*
X3977801Y-15966317D02*
X3996848Y-15956793D01*
X3996848Y-15956793D02*
X4044467Y-15956793D01*
X4044467Y-15956793D02*
X4063515Y-15947269D01*
X4158753Y-15899650D02*
X4158753Y-16099650D01*
X4158753Y-15909174D02*
X4177801Y-15899650D01*
X4177801Y-15899650D02*
X4215896Y-15899650D01*
X4215896Y-15899650D02*
X4234944Y-15909174D01*
X4234944Y-15909174D02*
X4244467Y-15918698D01*
X4244467Y-15918698D02*
X4253991Y-15937746D01*
X4253991Y-15937746D02*
X4253991Y-15994888D01*
X4253991Y-15994888D02*
X4244467Y-16013936D01*
X4244467Y-16013936D02*
X4234944Y-16023460D01*
X4234944Y-16023460D02*
X4215896Y-16032984D01*
X4215896Y-16032984D02*
X4177801Y-16032984D01*
X4177801Y-16032984D02*
X4158753Y-16023460D01*
X4339705Y-16013936D02*
X4349229Y-16023460D01*
X4349229Y-16023460D02*
X4339705Y-16032984D01*
X4339705Y-16032984D02*
X4330182Y-16023460D01*
X4330182Y-16023460D02*
X4339705Y-16013936D01*
X4339705Y-16013936D02*
X4339705Y-16032984D01*
X4339705Y-15909174D02*
X4349229Y-15918698D01*
X4349229Y-15918698D02*
X4339705Y-15928222D01*
X4339705Y-15928222D02*
X4330182Y-15918698D01*
X4330182Y-15918698D02*
X4339705Y-15909174D01*
X4339705Y-15909174D02*
X4339705Y-15928222D01*
X2507500Y-16261500D02*
X2707500Y-16461500D01*
X2707500Y-16261500D02*
X2507500Y-16461500D01*
X2958753Y-16272031D02*
X2968277Y-16262508D01*
X2968277Y-16262508D02*
X2987324Y-16252984D01*
X2987324Y-16252984D02*
X3034943Y-16252984D01*
X3034943Y-16252984D02*
X3053991Y-16262508D01*
X3053991Y-16262508D02*
X3063515Y-16272031D01*
X3063515Y-16272031D02*
X3073039Y-16291079D01*
X3073039Y-16291079D02*
X3073039Y-16310127D01*
X3073039Y-16310127D02*
X3063515Y-16338698D01*
X3063515Y-16338698D02*
X2949229Y-16452984D01*
X2949229Y-16452984D02*
X3073039Y-16452984D01*
X3158753Y-16433936D02*
X3168277Y-16443460D01*
X3168277Y-16443460D02*
X3158753Y-16452984D01*
X3158753Y-16452984D02*
X3149229Y-16443460D01*
X3149229Y-16443460D02*
X3158753Y-16433936D01*
X3158753Y-16433936D02*
X3158753Y-16452984D01*
X3234943Y-16252984D02*
X3368277Y-16252984D01*
X3368277Y-16252984D02*
X3282562Y-16452984D01*
X3482562Y-16252984D02*
X3501610Y-16252984D01*
X3501610Y-16252984D02*
X3520658Y-16262508D01*
X3520658Y-16262508D02*
X3530182Y-16272031D01*
X3530182Y-16272031D02*
X3539705Y-16291079D01*
X3539705Y-16291079D02*
X3549229Y-16329174D01*
X3549229Y-16329174D02*
X3549229Y-16376793D01*
X3549229Y-16376793D02*
X3539705Y-16414888D01*
X3539705Y-16414888D02*
X3530182Y-16433936D01*
X3530182Y-16433936D02*
X3520658Y-16443460D01*
X3520658Y-16443460D02*
X3501610Y-16452984D01*
X3501610Y-16452984D02*
X3482562Y-16452984D01*
X3482562Y-16452984D02*
X3463515Y-16443460D01*
X3463515Y-16443460D02*
X3453991Y-16433936D01*
X3453991Y-16433936D02*
X3444467Y-16414888D01*
X3444467Y-16414888D02*
X3434943Y-16376793D01*
X3434943Y-16376793D02*
X3434943Y-16329174D01*
X3434943Y-16329174D02*
X3444467Y-16291079D01*
X3444467Y-16291079D02*
X3453991Y-16272031D01*
X3453991Y-16272031D02*
X3463515Y-16262508D01*
X3463515Y-16262508D02*
X3482562Y-16252984D01*
X3673039Y-16252984D02*
X3692086Y-16252984D01*
X3692086Y-16252984D02*
X3711134Y-16262508D01*
X3711134Y-16262508D02*
X3720658Y-16272031D01*
X3720658Y-16272031D02*
X3730182Y-16291079D01*
X3730182Y-16291079D02*
X3739705Y-16329174D01*
X3739705Y-16329174D02*
X3739705Y-16376793D01*
X3739705Y-16376793D02*
X3730182Y-16414888D01*
X3730182Y-16414888D02*
X3720658Y-16433936D01*
X3720658Y-16433936D02*
X3711134Y-16443460D01*
X3711134Y-16443460D02*
X3692086Y-16452984D01*
X3692086Y-16452984D02*
X3673039Y-16452984D01*
X3673039Y-16452984D02*
X3653991Y-16443460D01*
X3653991Y-16443460D02*
X3644467Y-16433936D01*
X3644467Y-16433936D02*
X3634943Y-16414888D01*
X3634943Y-16414888D02*
X3625420Y-16376793D01*
X3625420Y-16376793D02*
X3625420Y-16329174D01*
X3625420Y-16329174D02*
X3634943Y-16291079D01*
X3634943Y-16291079D02*
X3644467Y-16272031D01*
X3644467Y-16272031D02*
X3653991Y-16262508D01*
X3653991Y-16262508D02*
X3673039Y-16252984D01*
X3825420Y-16452984D02*
X3825420Y-16319650D01*
X3825420Y-16338698D02*
X3834943Y-16329174D01*
X3834943Y-16329174D02*
X3853991Y-16319650D01*
X3853991Y-16319650D02*
X3882563Y-16319650D01*
X3882563Y-16319650D02*
X3901610Y-16329174D01*
X3901610Y-16329174D02*
X3911134Y-16348222D01*
X3911134Y-16348222D02*
X3911134Y-16452984D01*
X3911134Y-16348222D02*
X3920658Y-16329174D01*
X3920658Y-16329174D02*
X3939705Y-16319650D01*
X3939705Y-16319650D02*
X3968277Y-16319650D01*
X3968277Y-16319650D02*
X3987324Y-16329174D01*
X3987324Y-16329174D02*
X3996848Y-16348222D01*
X3996848Y-16348222D02*
X3996848Y-16452984D01*
X4092086Y-16452984D02*
X4092086Y-16319650D01*
X4092086Y-16338698D02*
X4101610Y-16329174D01*
X4101610Y-16329174D02*
X4120658Y-16319650D01*
X4120658Y-16319650D02*
X4149229Y-16319650D01*
X4149229Y-16319650D02*
X4168277Y-16329174D01*
X4168277Y-16329174D02*
X4177801Y-16348222D01*
X4177801Y-16348222D02*
X4177801Y-16452984D01*
X4177801Y-16348222D02*
X4187324Y-16329174D01*
X4187324Y-16329174D02*
X4206372Y-16319650D01*
X4206372Y-16319650D02*
X4234944Y-16319650D01*
X4234944Y-16319650D02*
X4253991Y-16329174D01*
X4253991Y-16329174D02*
X4263515Y-16348222D01*
X4263515Y-16348222D02*
X4263515Y-16452984D01*
X4653991Y-16243460D02*
X4482563Y-16500603D01*
X4911134Y-16252984D02*
X4930182Y-16252984D01*
X4930182Y-16252984D02*
X4949229Y-16262508D01*
X4949229Y-16262508D02*
X4958753Y-16272031D01*
X4958753Y-16272031D02*
X4968277Y-16291079D01*
X4968277Y-16291079D02*
X4977801Y-16329174D01*
X4977801Y-16329174D02*
X4977801Y-16376793D01*
X4977801Y-16376793D02*
X4968277Y-16414888D01*
X4968277Y-16414888D02*
X4958753Y-16433936D01*
X4958753Y-16433936D02*
X4949229Y-16443460D01*
X4949229Y-16443460D02*
X4930182Y-16452984D01*
X4930182Y-16452984D02*
X4911134Y-16452984D01*
X4911134Y-16452984D02*
X4892087Y-16443460D01*
X4892087Y-16443460D02*
X4882563Y-16433936D01*
X4882563Y-16433936D02*
X4873039Y-16414888D01*
X4873039Y-16414888D02*
X4863515Y-16376793D01*
X4863515Y-16376793D02*
X4863515Y-16329174D01*
X4863515Y-16329174D02*
X4873039Y-16291079D01*
X4873039Y-16291079D02*
X4882563Y-16272031D01*
X4882563Y-16272031D02*
X4892087Y-16262508D01*
X4892087Y-16262508D02*
X4911134Y-16252984D01*
X5063515Y-16433936D02*
X5073039Y-16443460D01*
X5073039Y-16443460D02*
X5063515Y-16452984D01*
X5063515Y-16452984D02*
X5053991Y-16443460D01*
X5053991Y-16443460D02*
X5063515Y-16433936D01*
X5063515Y-16433936D02*
X5063515Y-16452984D01*
X5263515Y-16452984D02*
X5149229Y-16452984D01*
X5206372Y-16452984D02*
X5206372Y-16252984D01*
X5206372Y-16252984D02*
X5187325Y-16281555D01*
X5187325Y-16281555D02*
X5168277Y-16300603D01*
X5168277Y-16300603D02*
X5149229Y-16310127D01*
X5387325Y-16252984D02*
X5406372Y-16252984D01*
X5406372Y-16252984D02*
X5425420Y-16262508D01*
X5425420Y-16262508D02*
X5434944Y-16272031D01*
X5434944Y-16272031D02*
X5444468Y-16291079D01*
X5444468Y-16291079D02*
X5453991Y-16329174D01*
X5453991Y-16329174D02*
X5453991Y-16376793D01*
X5453991Y-16376793D02*
X5444468Y-16414888D01*
X5444468Y-16414888D02*
X5434944Y-16433936D01*
X5434944Y-16433936D02*
X5425420Y-16443460D01*
X5425420Y-16443460D02*
X5406372Y-16452984D01*
X5406372Y-16452984D02*
X5387325Y-16452984D01*
X5387325Y-16452984D02*
X5368277Y-16443460D01*
X5368277Y-16443460D02*
X5358753Y-16433936D01*
X5358753Y-16433936D02*
X5349229Y-16414888D01*
X5349229Y-16414888D02*
X5339706Y-16376793D01*
X5339706Y-16376793D02*
X5339706Y-16329174D01*
X5339706Y-16329174D02*
X5349229Y-16291079D01*
X5349229Y-16291079D02*
X5358753Y-16272031D01*
X5358753Y-16272031D02*
X5368277Y-16262508D01*
X5368277Y-16262508D02*
X5387325Y-16252984D01*
X5625420Y-16252984D02*
X5587325Y-16252984D01*
X5587325Y-16252984D02*
X5568277Y-16262508D01*
X5568277Y-16262508D02*
X5558753Y-16272031D01*
X5558753Y-16272031D02*
X5539706Y-16300603D01*
X5539706Y-16300603D02*
X5530182Y-16338698D01*
X5530182Y-16338698D02*
X5530182Y-16414888D01*
X5530182Y-16414888D02*
X5539706Y-16433936D01*
X5539706Y-16433936D02*
X5549229Y-16443460D01*
X5549229Y-16443460D02*
X5568277Y-16452984D01*
X5568277Y-16452984D02*
X5606372Y-16452984D01*
X5606372Y-16452984D02*
X5625420Y-16443460D01*
X5625420Y-16443460D02*
X5634944Y-16433936D01*
X5634944Y-16433936D02*
X5644467Y-16414888D01*
X5644467Y-16414888D02*
X5644467Y-16367269D01*
X5644467Y-16367269D02*
X5634944Y-16348222D01*
X5634944Y-16348222D02*
X5625420Y-16338698D01*
X5625420Y-16338698D02*
X5606372Y-16329174D01*
X5606372Y-16329174D02*
X5568277Y-16329174D01*
X5568277Y-16329174D02*
X5549229Y-16338698D01*
X5549229Y-16338698D02*
X5539706Y-16348222D01*
X5539706Y-16348222D02*
X5530182Y-16367269D01*
X5711134Y-16252984D02*
X5834944Y-16252984D01*
X5834944Y-16252984D02*
X5768277Y-16329174D01*
X5768277Y-16329174D02*
X5796848Y-16329174D01*
X5796848Y-16329174D02*
X5815896Y-16338698D01*
X5815896Y-16338698D02*
X5825420Y-16348222D01*
X5825420Y-16348222D02*
X5834944Y-16367269D01*
X5834944Y-16367269D02*
X5834944Y-16414888D01*
X5834944Y-16414888D02*
X5825420Y-16433936D01*
X5825420Y-16433936D02*
X5815896Y-16443460D01*
X5815896Y-16443460D02*
X5796848Y-16452984D01*
X5796848Y-16452984D02*
X5739706Y-16452984D01*
X5739706Y-16452984D02*
X5720658Y-16443460D01*
X5720658Y-16443460D02*
X5711134Y-16433936D01*
X5911134Y-16252984D02*
X5911134Y-16291079D01*
X5987325Y-16252984D02*
X5987325Y-16291079D01*
X6282563Y-16529174D02*
X6273039Y-16519650D01*
X6273039Y-16519650D02*
X6253991Y-16491079D01*
X6253991Y-16491079D02*
X6244468Y-16472031D01*
X6244468Y-16472031D02*
X6234944Y-16443460D01*
X6234944Y-16443460D02*
X6225420Y-16395841D01*
X6225420Y-16395841D02*
X6225420Y-16357746D01*
X6225420Y-16357746D02*
X6234944Y-16310127D01*
X6234944Y-16310127D02*
X6244468Y-16281555D01*
X6244468Y-16281555D02*
X6253991Y-16262508D01*
X6253991Y-16262508D02*
X6273039Y-16233936D01*
X6273039Y-16233936D02*
X6282563Y-16224412D01*
X6387325Y-16338698D02*
X6368277Y-16329174D01*
X6368277Y-16329174D02*
X6358753Y-16319650D01*
X6358753Y-16319650D02*
X6349229Y-16300603D01*
X6349229Y-16300603D02*
X6349229Y-16291079D01*
X6349229Y-16291079D02*
X6358753Y-16272031D01*
X6358753Y-16272031D02*
X6368277Y-16262508D01*
X6368277Y-16262508D02*
X6387325Y-16252984D01*
X6387325Y-16252984D02*
X6425420Y-16252984D01*
X6425420Y-16252984D02*
X6444468Y-16262508D01*
X6444468Y-16262508D02*
X6453991Y-16272031D01*
X6453991Y-16272031D02*
X6463515Y-16291079D01*
X6463515Y-16291079D02*
X6463515Y-16300603D01*
X6463515Y-16300603D02*
X6453991Y-16319650D01*
X6453991Y-16319650D02*
X6444468Y-16329174D01*
X6444468Y-16329174D02*
X6425420Y-16338698D01*
X6425420Y-16338698D02*
X6387325Y-16338698D01*
X6387325Y-16338698D02*
X6368277Y-16348222D01*
X6368277Y-16348222D02*
X6358753Y-16357746D01*
X6358753Y-16357746D02*
X6349229Y-16376793D01*
X6349229Y-16376793D02*
X6349229Y-16414888D01*
X6349229Y-16414888D02*
X6358753Y-16433936D01*
X6358753Y-16433936D02*
X6368277Y-16443460D01*
X6368277Y-16443460D02*
X6387325Y-16452984D01*
X6387325Y-16452984D02*
X6425420Y-16452984D01*
X6425420Y-16452984D02*
X6444468Y-16443460D01*
X6444468Y-16443460D02*
X6453991Y-16433936D01*
X6453991Y-16433936D02*
X6463515Y-16414888D01*
X6463515Y-16414888D02*
X6463515Y-16376793D01*
X6463515Y-16376793D02*
X6453991Y-16357746D01*
X6453991Y-16357746D02*
X6444468Y-16348222D01*
X6444468Y-16348222D02*
X6425420Y-16338698D01*
X6701610Y-16452984D02*
X6701610Y-16252984D01*
X6787325Y-16452984D02*
X6787325Y-16348222D01*
X6787325Y-16348222D02*
X6777801Y-16329174D01*
X6777801Y-16329174D02*
X6758753Y-16319650D01*
X6758753Y-16319650D02*
X6730182Y-16319650D01*
X6730182Y-16319650D02*
X6711134Y-16329174D01*
X6711134Y-16329174D02*
X6701610Y-16338698D01*
X6911134Y-16452984D02*
X6892087Y-16443460D01*
X6892087Y-16443460D02*
X6882563Y-16433936D01*
X6882563Y-16433936D02*
X6873039Y-16414888D01*
X6873039Y-16414888D02*
X6873039Y-16357746D01*
X6873039Y-16357746D02*
X6882563Y-16338698D01*
X6882563Y-16338698D02*
X6892087Y-16329174D01*
X6892087Y-16329174D02*
X6911134Y-16319650D01*
X6911134Y-16319650D02*
X6939706Y-16319650D01*
X6939706Y-16319650D02*
X6958753Y-16329174D01*
X6958753Y-16329174D02*
X6968277Y-16338698D01*
X6968277Y-16338698D02*
X6977801Y-16357746D01*
X6977801Y-16357746D02*
X6977801Y-16414888D01*
X6977801Y-16414888D02*
X6968277Y-16433936D01*
X6968277Y-16433936D02*
X6958753Y-16443460D01*
X6958753Y-16443460D02*
X6939706Y-16452984D01*
X6939706Y-16452984D02*
X6911134Y-16452984D01*
X7092087Y-16452984D02*
X7073039Y-16443460D01*
X7073039Y-16443460D02*
X7063515Y-16424412D01*
X7063515Y-16424412D02*
X7063515Y-16252984D01*
X7244468Y-16443460D02*
X7225420Y-16452984D01*
X7225420Y-16452984D02*
X7187325Y-16452984D01*
X7187325Y-16452984D02*
X7168277Y-16443460D01*
X7168277Y-16443460D02*
X7158753Y-16424412D01*
X7158753Y-16424412D02*
X7158753Y-16348222D01*
X7158753Y-16348222D02*
X7168277Y-16329174D01*
X7168277Y-16329174D02*
X7187325Y-16319650D01*
X7187325Y-16319650D02*
X7225420Y-16319650D01*
X7225420Y-16319650D02*
X7244468Y-16329174D01*
X7244468Y-16329174D02*
X7253991Y-16348222D01*
X7253991Y-16348222D02*
X7253991Y-16367269D01*
X7253991Y-16367269D02*
X7158753Y-16386317D01*
X7330182Y-16443460D02*
X7349230Y-16452984D01*
X7349230Y-16452984D02*
X7387325Y-16452984D01*
X7387325Y-16452984D02*
X7406372Y-16443460D01*
X7406372Y-16443460D02*
X7415896Y-16424412D01*
X7415896Y-16424412D02*
X7415896Y-16414888D01*
X7415896Y-16414888D02*
X7406372Y-16395841D01*
X7406372Y-16395841D02*
X7387325Y-16386317D01*
X7387325Y-16386317D02*
X7358753Y-16386317D01*
X7358753Y-16386317D02*
X7339706Y-16376793D01*
X7339706Y-16376793D02*
X7330182Y-16357746D01*
X7330182Y-16357746D02*
X7330182Y-16348222D01*
X7330182Y-16348222D02*
X7339706Y-16329174D01*
X7339706Y-16329174D02*
X7358753Y-16319650D01*
X7358753Y-16319650D02*
X7387325Y-16319650D01*
X7387325Y-16319650D02*
X7406372Y-16329174D01*
X7482563Y-16529174D02*
X7492087Y-16519650D01*
X7492087Y-16519650D02*
X7511134Y-16491079D01*
X7511134Y-16491079D02*
X7520658Y-16472031D01*
X7520658Y-16472031D02*
X7530182Y-16443460D01*
X7530182Y-16443460D02*
X7539706Y-16395841D01*
X7539706Y-16395841D02*
X7539706Y-16357746D01*
X7539706Y-16357746D02*
X7530182Y-16310127D01*
X7530182Y-16310127D02*
X7520658Y-16281555D01*
X7520658Y-16281555D02*
X7511134Y-16262508D01*
X7511134Y-16262508D02*
X7492087Y-16233936D01*
X7492087Y-16233936D02*
X7482563Y-16224412D01*
X7844468Y-16529174D02*
X7834944Y-16519650D01*
X7834944Y-16519650D02*
X7815896Y-16491079D01*
X7815896Y-16491079D02*
X7806372Y-16472031D01*
X7806372Y-16472031D02*
X7796849Y-16443460D01*
X7796849Y-16443460D02*
X7787325Y-16395841D01*
X7787325Y-16395841D02*
X7787325Y-16357746D01*
X7787325Y-16357746D02*
X7796849Y-16310127D01*
X7796849Y-16310127D02*
X7806372Y-16281555D01*
X7806372Y-16281555D02*
X7815896Y-16262508D01*
X7815896Y-16262508D02*
X7834944Y-16233936D01*
X7834944Y-16233936D02*
X7844468Y-16224412D01*
X7920658Y-16319650D02*
X7920658Y-16452984D01*
X7920658Y-16338698D02*
X7930182Y-16329174D01*
X7930182Y-16329174D02*
X7949230Y-16319650D01*
X7949230Y-16319650D02*
X7977801Y-16319650D01*
X7977801Y-16319650D02*
X7996849Y-16329174D01*
X7996849Y-16329174D02*
X8006372Y-16348222D01*
X8006372Y-16348222D02*
X8006372Y-16452984D01*
X8130182Y-16452984D02*
X8111134Y-16443460D01*
X8111134Y-16443460D02*
X8101611Y-16433936D01*
X8101611Y-16433936D02*
X8092087Y-16414888D01*
X8092087Y-16414888D02*
X8092087Y-16357746D01*
X8092087Y-16357746D02*
X8101611Y-16338698D01*
X8101611Y-16338698D02*
X8111134Y-16329174D01*
X8111134Y-16329174D02*
X8130182Y-16319650D01*
X8130182Y-16319650D02*
X8158753Y-16319650D01*
X8158753Y-16319650D02*
X8177801Y-16329174D01*
X8177801Y-16329174D02*
X8187325Y-16338698D01*
X8187325Y-16338698D02*
X8196849Y-16357746D01*
X8196849Y-16357746D02*
X8196849Y-16414888D01*
X8196849Y-16414888D02*
X8187325Y-16433936D01*
X8187325Y-16433936D02*
X8177801Y-16443460D01*
X8177801Y-16443460D02*
X8158753Y-16452984D01*
X8158753Y-16452984D02*
X8130182Y-16452984D01*
X8253992Y-16319650D02*
X8330182Y-16319650D01*
X8282563Y-16252984D02*
X8282563Y-16424412D01*
X8282563Y-16424412D02*
X8292087Y-16443460D01*
X8292087Y-16443460D02*
X8311134Y-16452984D01*
X8311134Y-16452984D02*
X8330182Y-16452984D01*
X8549230Y-16319650D02*
X8549230Y-16519650D01*
X8549230Y-16329174D02*
X8568277Y-16319650D01*
X8568277Y-16319650D02*
X8606373Y-16319650D01*
X8606373Y-16319650D02*
X8625420Y-16329174D01*
X8625420Y-16329174D02*
X8634944Y-16338698D01*
X8634944Y-16338698D02*
X8644468Y-16357746D01*
X8644468Y-16357746D02*
X8644468Y-16414888D01*
X8644468Y-16414888D02*
X8634944Y-16433936D01*
X8634944Y-16433936D02*
X8625420Y-16443460D01*
X8625420Y-16443460D02*
X8606373Y-16452984D01*
X8606373Y-16452984D02*
X8568277Y-16452984D01*
X8568277Y-16452984D02*
X8549230Y-16443460D01*
X8758754Y-16452984D02*
X8739706Y-16443460D01*
X8739706Y-16443460D02*
X8730182Y-16424412D01*
X8730182Y-16424412D02*
X8730182Y-16252984D01*
X8920658Y-16452984D02*
X8920658Y-16348222D01*
X8920658Y-16348222D02*
X8911135Y-16329174D01*
X8911135Y-16329174D02*
X8892087Y-16319650D01*
X8892087Y-16319650D02*
X8853992Y-16319650D01*
X8853992Y-16319650D02*
X8834944Y-16329174D01*
X8920658Y-16443460D02*
X8901611Y-16452984D01*
X8901611Y-16452984D02*
X8853992Y-16452984D01*
X8853992Y-16452984D02*
X8834944Y-16443460D01*
X8834944Y-16443460D02*
X8825420Y-16424412D01*
X8825420Y-16424412D02*
X8825420Y-16405365D01*
X8825420Y-16405365D02*
X8834944Y-16386317D01*
X8834944Y-16386317D02*
X8853992Y-16376793D01*
X8853992Y-16376793D02*
X8901611Y-16376793D01*
X8901611Y-16376793D02*
X8920658Y-16367269D01*
X8987325Y-16319650D02*
X9063515Y-16319650D01*
X9015896Y-16252984D02*
X9015896Y-16424412D01*
X9015896Y-16424412D02*
X9025420Y-16443460D01*
X9025420Y-16443460D02*
X9044468Y-16452984D01*
X9044468Y-16452984D02*
X9063515Y-16452984D01*
X9206373Y-16443460D02*
X9187325Y-16452984D01*
X9187325Y-16452984D02*
X9149230Y-16452984D01*
X9149230Y-16452984D02*
X9130182Y-16443460D01*
X9130182Y-16443460D02*
X9120658Y-16424412D01*
X9120658Y-16424412D02*
X9120658Y-16348222D01*
X9120658Y-16348222D02*
X9130182Y-16329174D01*
X9130182Y-16329174D02*
X9149230Y-16319650D01*
X9149230Y-16319650D02*
X9187325Y-16319650D01*
X9187325Y-16319650D02*
X9206373Y-16329174D01*
X9206373Y-16329174D02*
X9215896Y-16348222D01*
X9215896Y-16348222D02*
X9215896Y-16367269D01*
X9215896Y-16367269D02*
X9120658Y-16386317D01*
X9387325Y-16452984D02*
X9387325Y-16252984D01*
X9387325Y-16443460D02*
X9368277Y-16452984D01*
X9368277Y-16452984D02*
X9330182Y-16452984D01*
X9330182Y-16452984D02*
X9311135Y-16443460D01*
X9311135Y-16443460D02*
X9301611Y-16433936D01*
X9301611Y-16433936D02*
X9292087Y-16414888D01*
X9292087Y-16414888D02*
X9292087Y-16357746D01*
X9292087Y-16357746D02*
X9301611Y-16338698D01*
X9301611Y-16338698D02*
X9311135Y-16329174D01*
X9311135Y-16329174D02*
X9330182Y-16319650D01*
X9330182Y-16319650D02*
X9368277Y-16319650D01*
X9368277Y-16319650D02*
X9387325Y-16329174D01*
X9463516Y-16529174D02*
X9473039Y-16519650D01*
X9473039Y-16519650D02*
X9492087Y-16491079D01*
X9492087Y-16491079D02*
X9501611Y-16472031D01*
X9501611Y-16472031D02*
X9511135Y-16443460D01*
X9511135Y-16443460D02*
X9520658Y-16395841D01*
X9520658Y-16395841D02*
X9520658Y-16357746D01*
X9520658Y-16357746D02*
X9511135Y-16310127D01*
X9511135Y-16310127D02*
X9501611Y-16281555D01*
X9501611Y-16281555D02*
X9492087Y-16262508D01*
X9492087Y-16262508D02*
X9473039Y-16233936D01*
X9473039Y-16233936D02*
X9463516Y-16224412D01*
X2707500Y-16681500D02*
G75*
G02*
X2507500Y-16681500I-100000J0D01*
G01*
X2507500Y-16681500D02*
G75*
G02*
X2707500Y-16681500I100000J0D01*
G01*
X2949229Y-16572984D02*
X3073039Y-16572984D01*
X3073039Y-16572984D02*
X3006372Y-16649174D01*
X3006372Y-16649174D02*
X3034943Y-16649174D01*
X3034943Y-16649174D02*
X3053991Y-16658698D01*
X3053991Y-16658698D02*
X3063515Y-16668222D01*
X3063515Y-16668222D02*
X3073039Y-16687269D01*
X3073039Y-16687269D02*
X3073039Y-16734888D01*
X3073039Y-16734888D02*
X3063515Y-16753936D01*
X3063515Y-16753936D02*
X3053991Y-16763460D01*
X3053991Y-16763460D02*
X3034943Y-16772984D01*
X3034943Y-16772984D02*
X2977801Y-16772984D01*
X2977801Y-16772984D02*
X2958753Y-16763460D01*
X2958753Y-16763460D02*
X2949229Y-16753936D01*
X3158753Y-16753936D02*
X3168277Y-16763460D01*
X3168277Y-16763460D02*
X3158753Y-16772984D01*
X3158753Y-16772984D02*
X3149229Y-16763460D01*
X3149229Y-16763460D02*
X3158753Y-16753936D01*
X3158753Y-16753936D02*
X3158753Y-16772984D01*
X3244467Y-16592031D02*
X3253991Y-16582508D01*
X3253991Y-16582508D02*
X3273039Y-16572984D01*
X3273039Y-16572984D02*
X3320658Y-16572984D01*
X3320658Y-16572984D02*
X3339705Y-16582508D01*
X3339705Y-16582508D02*
X3349229Y-16592031D01*
X3349229Y-16592031D02*
X3358753Y-16611079D01*
X3358753Y-16611079D02*
X3358753Y-16630127D01*
X3358753Y-16630127D02*
X3349229Y-16658698D01*
X3349229Y-16658698D02*
X3234943Y-16772984D01*
X3234943Y-16772984D02*
X3358753Y-16772984D01*
X3482562Y-16572984D02*
X3501610Y-16572984D01*
X3501610Y-16572984D02*
X3520658Y-16582508D01*
X3520658Y-16582508D02*
X3530182Y-16592031D01*
X3530182Y-16592031D02*
X3539705Y-16611079D01*
X3539705Y-16611079D02*
X3549229Y-16649174D01*
X3549229Y-16649174D02*
X3549229Y-16696793D01*
X3549229Y-16696793D02*
X3539705Y-16734888D01*
X3539705Y-16734888D02*
X3530182Y-16753936D01*
X3530182Y-16753936D02*
X3520658Y-16763460D01*
X3520658Y-16763460D02*
X3501610Y-16772984D01*
X3501610Y-16772984D02*
X3482562Y-16772984D01*
X3482562Y-16772984D02*
X3463515Y-16763460D01*
X3463515Y-16763460D02*
X3453991Y-16753936D01*
X3453991Y-16753936D02*
X3444467Y-16734888D01*
X3444467Y-16734888D02*
X3434943Y-16696793D01*
X3434943Y-16696793D02*
X3434943Y-16649174D01*
X3434943Y-16649174D02*
X3444467Y-16611079D01*
X3444467Y-16611079D02*
X3453991Y-16592031D01*
X3453991Y-16592031D02*
X3463515Y-16582508D01*
X3463515Y-16582508D02*
X3482562Y-16572984D01*
X3673039Y-16572984D02*
X3692086Y-16572984D01*
X3692086Y-16572984D02*
X3711134Y-16582508D01*
X3711134Y-16582508D02*
X3720658Y-16592031D01*
X3720658Y-16592031D02*
X3730182Y-16611079D01*
X3730182Y-16611079D02*
X3739705Y-16649174D01*
X3739705Y-16649174D02*
X3739705Y-16696793D01*
X3739705Y-16696793D02*
X3730182Y-16734888D01*
X3730182Y-16734888D02*
X3720658Y-16753936D01*
X3720658Y-16753936D02*
X3711134Y-16763460D01*
X3711134Y-16763460D02*
X3692086Y-16772984D01*
X3692086Y-16772984D02*
X3673039Y-16772984D01*
X3673039Y-16772984D02*
X3653991Y-16763460D01*
X3653991Y-16763460D02*
X3644467Y-16753936D01*
X3644467Y-16753936D02*
X3634943Y-16734888D01*
X3634943Y-16734888D02*
X3625420Y-16696793D01*
X3625420Y-16696793D02*
X3625420Y-16649174D01*
X3625420Y-16649174D02*
X3634943Y-16611079D01*
X3634943Y-16611079D02*
X3644467Y-16592031D01*
X3644467Y-16592031D02*
X3653991Y-16582508D01*
X3653991Y-16582508D02*
X3673039Y-16572984D01*
X3825420Y-16772984D02*
X3825420Y-16639650D01*
X3825420Y-16658698D02*
X3834943Y-16649174D01*
X3834943Y-16649174D02*
X3853991Y-16639650D01*
X3853991Y-16639650D02*
X3882563Y-16639650D01*
X3882563Y-16639650D02*
X3901610Y-16649174D01*
X3901610Y-16649174D02*
X3911134Y-16668222D01*
X3911134Y-16668222D02*
X3911134Y-16772984D01*
X3911134Y-16668222D02*
X3920658Y-16649174D01*
X3920658Y-16649174D02*
X3939705Y-16639650D01*
X3939705Y-16639650D02*
X3968277Y-16639650D01*
X3968277Y-16639650D02*
X3987324Y-16649174D01*
X3987324Y-16649174D02*
X3996848Y-16668222D01*
X3996848Y-16668222D02*
X3996848Y-16772984D01*
X4092086Y-16772984D02*
X4092086Y-16639650D01*
X4092086Y-16658698D02*
X4101610Y-16649174D01*
X4101610Y-16649174D02*
X4120658Y-16639650D01*
X4120658Y-16639650D02*
X4149229Y-16639650D01*
X4149229Y-16639650D02*
X4168277Y-16649174D01*
X4168277Y-16649174D02*
X4177801Y-16668222D01*
X4177801Y-16668222D02*
X4177801Y-16772984D01*
X4177801Y-16668222D02*
X4187324Y-16649174D01*
X4187324Y-16649174D02*
X4206372Y-16639650D01*
X4206372Y-16639650D02*
X4234944Y-16639650D01*
X4234944Y-16639650D02*
X4253991Y-16649174D01*
X4253991Y-16649174D02*
X4263515Y-16668222D01*
X4263515Y-16668222D02*
X4263515Y-16772984D01*
X4653991Y-16563460D02*
X4482563Y-16820603D01*
X4911134Y-16572984D02*
X4930182Y-16572984D01*
X4930182Y-16572984D02*
X4949229Y-16582508D01*
X4949229Y-16582508D02*
X4958753Y-16592031D01*
X4958753Y-16592031D02*
X4968277Y-16611079D01*
X4968277Y-16611079D02*
X4977801Y-16649174D01*
X4977801Y-16649174D02*
X4977801Y-16696793D01*
X4977801Y-16696793D02*
X4968277Y-16734888D01*
X4968277Y-16734888D02*
X4958753Y-16753936D01*
X4958753Y-16753936D02*
X4949229Y-16763460D01*
X4949229Y-16763460D02*
X4930182Y-16772984D01*
X4930182Y-16772984D02*
X4911134Y-16772984D01*
X4911134Y-16772984D02*
X4892087Y-16763460D01*
X4892087Y-16763460D02*
X4882563Y-16753936D01*
X4882563Y-16753936D02*
X4873039Y-16734888D01*
X4873039Y-16734888D02*
X4863515Y-16696793D01*
X4863515Y-16696793D02*
X4863515Y-16649174D01*
X4863515Y-16649174D02*
X4873039Y-16611079D01*
X4873039Y-16611079D02*
X4882563Y-16592031D01*
X4882563Y-16592031D02*
X4892087Y-16582508D01*
X4892087Y-16582508D02*
X4911134Y-16572984D01*
X5063515Y-16753936D02*
X5073039Y-16763460D01*
X5073039Y-16763460D02*
X5063515Y-16772984D01*
X5063515Y-16772984D02*
X5053991Y-16763460D01*
X5053991Y-16763460D02*
X5063515Y-16753936D01*
X5063515Y-16753936D02*
X5063515Y-16772984D01*
X5263515Y-16772984D02*
X5149229Y-16772984D01*
X5206372Y-16772984D02*
X5206372Y-16572984D01*
X5206372Y-16572984D02*
X5187325Y-16601555D01*
X5187325Y-16601555D02*
X5168277Y-16620603D01*
X5168277Y-16620603D02*
X5149229Y-16630127D01*
X5339706Y-16592031D02*
X5349229Y-16582508D01*
X5349229Y-16582508D02*
X5368277Y-16572984D01*
X5368277Y-16572984D02*
X5415896Y-16572984D01*
X5415896Y-16572984D02*
X5434944Y-16582508D01*
X5434944Y-16582508D02*
X5444468Y-16592031D01*
X5444468Y-16592031D02*
X5453991Y-16611079D01*
X5453991Y-16611079D02*
X5453991Y-16630127D01*
X5453991Y-16630127D02*
X5444468Y-16658698D01*
X5444468Y-16658698D02*
X5330182Y-16772984D01*
X5330182Y-16772984D02*
X5453991Y-16772984D01*
X5625420Y-16572984D02*
X5587325Y-16572984D01*
X5587325Y-16572984D02*
X5568277Y-16582508D01*
X5568277Y-16582508D02*
X5558753Y-16592031D01*
X5558753Y-16592031D02*
X5539706Y-16620603D01*
X5539706Y-16620603D02*
X5530182Y-16658698D01*
X5530182Y-16658698D02*
X5530182Y-16734888D01*
X5530182Y-16734888D02*
X5539706Y-16753936D01*
X5539706Y-16753936D02*
X5549229Y-16763460D01*
X5549229Y-16763460D02*
X5568277Y-16772984D01*
X5568277Y-16772984D02*
X5606372Y-16772984D01*
X5606372Y-16772984D02*
X5625420Y-16763460D01*
X5625420Y-16763460D02*
X5634944Y-16753936D01*
X5634944Y-16753936D02*
X5644467Y-16734888D01*
X5644467Y-16734888D02*
X5644467Y-16687269D01*
X5644467Y-16687269D02*
X5634944Y-16668222D01*
X5634944Y-16668222D02*
X5625420Y-16658698D01*
X5625420Y-16658698D02*
X5606372Y-16649174D01*
X5606372Y-16649174D02*
X5568277Y-16649174D01*
X5568277Y-16649174D02*
X5549229Y-16658698D01*
X5549229Y-16658698D02*
X5539706Y-16668222D01*
X5539706Y-16668222D02*
X5530182Y-16687269D01*
X5768277Y-16572984D02*
X5787325Y-16572984D01*
X5787325Y-16572984D02*
X5806372Y-16582508D01*
X5806372Y-16582508D02*
X5815896Y-16592031D01*
X5815896Y-16592031D02*
X5825420Y-16611079D01*
X5825420Y-16611079D02*
X5834944Y-16649174D01*
X5834944Y-16649174D02*
X5834944Y-16696793D01*
X5834944Y-16696793D02*
X5825420Y-16734888D01*
X5825420Y-16734888D02*
X5815896Y-16753936D01*
X5815896Y-16753936D02*
X5806372Y-16763460D01*
X5806372Y-16763460D02*
X5787325Y-16772984D01*
X5787325Y-16772984D02*
X5768277Y-16772984D01*
X5768277Y-16772984D02*
X5749229Y-16763460D01*
X5749229Y-16763460D02*
X5739706Y-16753936D01*
X5739706Y-16753936D02*
X5730182Y-16734888D01*
X5730182Y-16734888D02*
X5720658Y-16696793D01*
X5720658Y-16696793D02*
X5720658Y-16649174D01*
X5720658Y-16649174D02*
X5730182Y-16611079D01*
X5730182Y-16611079D02*
X5739706Y-16592031D01*
X5739706Y-16592031D02*
X5749229Y-16582508D01*
X5749229Y-16582508D02*
X5768277Y-16572984D01*
X5911134Y-16572984D02*
X5911134Y-16611079D01*
X5987325Y-16572984D02*
X5987325Y-16611079D01*
X6282563Y-16849174D02*
X6273039Y-16839650D01*
X6273039Y-16839650D02*
X6253991Y-16811079D01*
X6253991Y-16811079D02*
X6244468Y-16792031D01*
X6244468Y-16792031D02*
X6234944Y-16763460D01*
X6234944Y-16763460D02*
X6225420Y-16715841D01*
X6225420Y-16715841D02*
X6225420Y-16677746D01*
X6225420Y-16677746D02*
X6234944Y-16630127D01*
X6234944Y-16630127D02*
X6244468Y-16601555D01*
X6244468Y-16601555D02*
X6253991Y-16582508D01*
X6253991Y-16582508D02*
X6273039Y-16553936D01*
X6273039Y-16553936D02*
X6282563Y-16544412D01*
X6444468Y-16639650D02*
X6444468Y-16772984D01*
X6396848Y-16563460D02*
X6349229Y-16706317D01*
X6349229Y-16706317D02*
X6473039Y-16706317D01*
X6701610Y-16772984D02*
X6701610Y-16572984D01*
X6787325Y-16772984D02*
X6787325Y-16668222D01*
X6787325Y-16668222D02*
X6777801Y-16649174D01*
X6777801Y-16649174D02*
X6758753Y-16639650D01*
X6758753Y-16639650D02*
X6730182Y-16639650D01*
X6730182Y-16639650D02*
X6711134Y-16649174D01*
X6711134Y-16649174D02*
X6701610Y-16658698D01*
X6911134Y-16772984D02*
X6892087Y-16763460D01*
X6892087Y-16763460D02*
X6882563Y-16753936D01*
X6882563Y-16753936D02*
X6873039Y-16734888D01*
X6873039Y-16734888D02*
X6873039Y-16677746D01*
X6873039Y-16677746D02*
X6882563Y-16658698D01*
X6882563Y-16658698D02*
X6892087Y-16649174D01*
X6892087Y-16649174D02*
X6911134Y-16639650D01*
X6911134Y-16639650D02*
X6939706Y-16639650D01*
X6939706Y-16639650D02*
X6958753Y-16649174D01*
X6958753Y-16649174D02*
X6968277Y-16658698D01*
X6968277Y-16658698D02*
X6977801Y-16677746D01*
X6977801Y-16677746D02*
X6977801Y-16734888D01*
X6977801Y-16734888D02*
X6968277Y-16753936D01*
X6968277Y-16753936D02*
X6958753Y-16763460D01*
X6958753Y-16763460D02*
X6939706Y-16772984D01*
X6939706Y-16772984D02*
X6911134Y-16772984D01*
X7092087Y-16772984D02*
X7073039Y-16763460D01*
X7073039Y-16763460D02*
X7063515Y-16744412D01*
X7063515Y-16744412D02*
X7063515Y-16572984D01*
X7244468Y-16763460D02*
X7225420Y-16772984D01*
X7225420Y-16772984D02*
X7187325Y-16772984D01*
X7187325Y-16772984D02*
X7168277Y-16763460D01*
X7168277Y-16763460D02*
X7158753Y-16744412D01*
X7158753Y-16744412D02*
X7158753Y-16668222D01*
X7158753Y-16668222D02*
X7168277Y-16649174D01*
X7168277Y-16649174D02*
X7187325Y-16639650D01*
X7187325Y-16639650D02*
X7225420Y-16639650D01*
X7225420Y-16639650D02*
X7244468Y-16649174D01*
X7244468Y-16649174D02*
X7253991Y-16668222D01*
X7253991Y-16668222D02*
X7253991Y-16687269D01*
X7253991Y-16687269D02*
X7158753Y-16706317D01*
X7330182Y-16763460D02*
X7349230Y-16772984D01*
X7349230Y-16772984D02*
X7387325Y-16772984D01*
X7387325Y-16772984D02*
X7406372Y-16763460D01*
X7406372Y-16763460D02*
X7415896Y-16744412D01*
X7415896Y-16744412D02*
X7415896Y-16734888D01*
X7415896Y-16734888D02*
X7406372Y-16715841D01*
X7406372Y-16715841D02*
X7387325Y-16706317D01*
X7387325Y-16706317D02*
X7358753Y-16706317D01*
X7358753Y-16706317D02*
X7339706Y-16696793D01*
X7339706Y-16696793D02*
X7330182Y-16677746D01*
X7330182Y-16677746D02*
X7330182Y-16668222D01*
X7330182Y-16668222D02*
X7339706Y-16649174D01*
X7339706Y-16649174D02*
X7358753Y-16639650D01*
X7358753Y-16639650D02*
X7387325Y-16639650D01*
X7387325Y-16639650D02*
X7406372Y-16649174D01*
X7482563Y-16849174D02*
X7492087Y-16839650D01*
X7492087Y-16839650D02*
X7511134Y-16811079D01*
X7511134Y-16811079D02*
X7520658Y-16792031D01*
X7520658Y-16792031D02*
X7530182Y-16763460D01*
X7530182Y-16763460D02*
X7539706Y-16715841D01*
X7539706Y-16715841D02*
X7539706Y-16677746D01*
X7539706Y-16677746D02*
X7530182Y-16630127D01*
X7530182Y-16630127D02*
X7520658Y-16601555D01*
X7520658Y-16601555D02*
X7511134Y-16582508D01*
X7511134Y-16582508D02*
X7492087Y-16553936D01*
X7492087Y-16553936D02*
X7482563Y-16544412D01*
X7844468Y-16849174D02*
X7834944Y-16839650D01*
X7834944Y-16839650D02*
X7815896Y-16811079D01*
X7815896Y-16811079D02*
X7806372Y-16792031D01*
X7806372Y-16792031D02*
X7796849Y-16763460D01*
X7796849Y-16763460D02*
X7787325Y-16715841D01*
X7787325Y-16715841D02*
X7787325Y-16677746D01*
X7787325Y-16677746D02*
X7796849Y-16630127D01*
X7796849Y-16630127D02*
X7806372Y-16601555D01*
X7806372Y-16601555D02*
X7815896Y-16582508D01*
X7815896Y-16582508D02*
X7834944Y-16553936D01*
X7834944Y-16553936D02*
X7844468Y-16544412D01*
X7920658Y-16639650D02*
X7920658Y-16772984D01*
X7920658Y-16658698D02*
X7930182Y-16649174D01*
X7930182Y-16649174D02*
X7949230Y-16639650D01*
X7949230Y-16639650D02*
X7977801Y-16639650D01*
X7977801Y-16639650D02*
X7996849Y-16649174D01*
X7996849Y-16649174D02*
X8006372Y-16668222D01*
X8006372Y-16668222D02*
X8006372Y-16772984D01*
X8130182Y-16772984D02*
X8111134Y-16763460D01*
X8111134Y-16763460D02*
X8101611Y-16753936D01*
X8101611Y-16753936D02*
X8092087Y-16734888D01*
X8092087Y-16734888D02*
X8092087Y-16677746D01*
X8092087Y-16677746D02*
X8101611Y-16658698D01*
X8101611Y-16658698D02*
X8111134Y-16649174D01*
X8111134Y-16649174D02*
X8130182Y-16639650D01*
X8130182Y-16639650D02*
X8158753Y-16639650D01*
X8158753Y-16639650D02*
X8177801Y-16649174D01*
X8177801Y-16649174D02*
X8187325Y-16658698D01*
X8187325Y-16658698D02*
X8196849Y-16677746D01*
X8196849Y-16677746D02*
X8196849Y-16734888D01*
X8196849Y-16734888D02*
X8187325Y-16753936D01*
X8187325Y-16753936D02*
X8177801Y-16763460D01*
X8177801Y-16763460D02*
X8158753Y-16772984D01*
X8158753Y-16772984D02*
X8130182Y-16772984D01*
X8253992Y-16639650D02*
X8330182Y-16639650D01*
X8282563Y-16572984D02*
X8282563Y-16744412D01*
X8282563Y-16744412D02*
X8292087Y-16763460D01*
X8292087Y-16763460D02*
X8311134Y-16772984D01*
X8311134Y-16772984D02*
X8330182Y-16772984D01*
X8549230Y-16639650D02*
X8549230Y-16839650D01*
X8549230Y-16649174D02*
X8568277Y-16639650D01*
X8568277Y-16639650D02*
X8606373Y-16639650D01*
X8606373Y-16639650D02*
X8625420Y-16649174D01*
X8625420Y-16649174D02*
X8634944Y-16658698D01*
X8634944Y-16658698D02*
X8644468Y-16677746D01*
X8644468Y-16677746D02*
X8644468Y-16734888D01*
X8644468Y-16734888D02*
X8634944Y-16753936D01*
X8634944Y-16753936D02*
X8625420Y-16763460D01*
X8625420Y-16763460D02*
X8606373Y-16772984D01*
X8606373Y-16772984D02*
X8568277Y-16772984D01*
X8568277Y-16772984D02*
X8549230Y-16763460D01*
X8758754Y-16772984D02*
X8739706Y-16763460D01*
X8739706Y-16763460D02*
X8730182Y-16744412D01*
X8730182Y-16744412D02*
X8730182Y-16572984D01*
X8920658Y-16772984D02*
X8920658Y-16668222D01*
X8920658Y-16668222D02*
X8911135Y-16649174D01*
X8911135Y-16649174D02*
X8892087Y-16639650D01*
X8892087Y-16639650D02*
X8853992Y-16639650D01*
X8853992Y-16639650D02*
X8834944Y-16649174D01*
X8920658Y-16763460D02*
X8901611Y-16772984D01*
X8901611Y-16772984D02*
X8853992Y-16772984D01*
X8853992Y-16772984D02*
X8834944Y-16763460D01*
X8834944Y-16763460D02*
X8825420Y-16744412D01*
X8825420Y-16744412D02*
X8825420Y-16725365D01*
X8825420Y-16725365D02*
X8834944Y-16706317D01*
X8834944Y-16706317D02*
X8853992Y-16696793D01*
X8853992Y-16696793D02*
X8901611Y-16696793D01*
X8901611Y-16696793D02*
X8920658Y-16687269D01*
X8987325Y-16639650D02*
X9063515Y-16639650D01*
X9015896Y-16572984D02*
X9015896Y-16744412D01*
X9015896Y-16744412D02*
X9025420Y-16763460D01*
X9025420Y-16763460D02*
X9044468Y-16772984D01*
X9044468Y-16772984D02*
X9063515Y-16772984D01*
X9206373Y-16763460D02*
X9187325Y-16772984D01*
X9187325Y-16772984D02*
X9149230Y-16772984D01*
X9149230Y-16772984D02*
X9130182Y-16763460D01*
X9130182Y-16763460D02*
X9120658Y-16744412D01*
X9120658Y-16744412D02*
X9120658Y-16668222D01*
X9120658Y-16668222D02*
X9130182Y-16649174D01*
X9130182Y-16649174D02*
X9149230Y-16639650D01*
X9149230Y-16639650D02*
X9187325Y-16639650D01*
X9187325Y-16639650D02*
X9206373Y-16649174D01*
X9206373Y-16649174D02*
X9215896Y-16668222D01*
X9215896Y-16668222D02*
X9215896Y-16687269D01*
X9215896Y-16687269D02*
X9120658Y-16706317D01*
X9387325Y-16772984D02*
X9387325Y-16572984D01*
X9387325Y-16763460D02*
X9368277Y-16772984D01*
X9368277Y-16772984D02*
X9330182Y-16772984D01*
X9330182Y-16772984D02*
X9311135Y-16763460D01*
X9311135Y-16763460D02*
X9301611Y-16753936D01*
X9301611Y-16753936D02*
X9292087Y-16734888D01*
X9292087Y-16734888D02*
X9292087Y-16677746D01*
X9292087Y-16677746D02*
X9301611Y-16658698D01*
X9301611Y-16658698D02*
X9311135Y-16649174D01*
X9311135Y-16649174D02*
X9330182Y-16639650D01*
X9330182Y-16639650D02*
X9368277Y-16639650D01*
X9368277Y-16639650D02*
X9387325Y-16649174D01*
X9463516Y-16849174D02*
X9473039Y-16839650D01*
X9473039Y-16839650D02*
X9492087Y-16811079D01*
X9492087Y-16811079D02*
X9501611Y-16792031D01*
X9501611Y-16792031D02*
X9511135Y-16763460D01*
X9511135Y-16763460D02*
X9520658Y-16715841D01*
X9520658Y-16715841D02*
X9520658Y-16677746D01*
X9520658Y-16677746D02*
X9511135Y-16630127D01*
X9511135Y-16630127D02*
X9501611Y-16601555D01*
X9501611Y-16601555D02*
X9492087Y-16582508D01*
X9492087Y-16582508D02*
X9473039Y-16553936D01*
X9473039Y-16553936D02*
X9463516Y-16544412D01*
M02*
