G04 #@! TF.GenerationSoftware,KiCad,Pcbnew,10.0.0*
G04 #@! TF.CreationDate,2026-04-01T18:41:47-07:00*
G04 #@! TF.ProjectId,VCO 2,56434f20-322e-46b6-9963-61645f706362,rev?*
G04 #@! TF.SameCoordinates,Original*
G04 #@! TF.FileFunction,Legend,Bot*
G04 #@! TF.FilePolarity,Positive*
%FSLAX46Y46*%
G04 Gerber Fmt 4.6, Leading zero omitted, Abs format (unit mm)*
G04 Created by KiCad (PCBNEW 10.0.0) date 2026-04-01 18:41:47*
%MOMM*%
%LPD*%
G01*
G04 APERTURE LIST*
%ADD10C,0.153000*%
%ADD11C,0.120000*%
%ADD12C,0.508000*%
G04 APERTURE END LIST*
D10*
X137333333Y-98874663D02*
X137333333Y-99588948D01*
X137333333Y-99588948D02*
X137380952Y-99731805D01*
X137380952Y-99731805D02*
X137476190Y-99827044D01*
X137476190Y-99827044D02*
X137619047Y-99874663D01*
X137619047Y-99874663D02*
X137714285Y-99874663D01*
X136952380Y-98874663D02*
X136333333Y-98874663D01*
X136333333Y-98874663D02*
X136666666Y-99255615D01*
X136666666Y-99255615D02*
X136523809Y-99255615D01*
X136523809Y-99255615D02*
X136428571Y-99303234D01*
X136428571Y-99303234D02*
X136380952Y-99350853D01*
X136380952Y-99350853D02*
X136333333Y-99446091D01*
X136333333Y-99446091D02*
X136333333Y-99684186D01*
X136333333Y-99684186D02*
X136380952Y-99779424D01*
X136380952Y-99779424D02*
X136428571Y-99827044D01*
X136428571Y-99827044D02*
X136523809Y-99874663D01*
X136523809Y-99874663D02*
X136809523Y-99874663D01*
X136809523Y-99874663D02*
X136904761Y-99827044D01*
X136904761Y-99827044D02*
X136952380Y-99779424D01*
X86333333Y-90874663D02*
X86333333Y-91588948D01*
X86333333Y-91588948D02*
X86380952Y-91731805D01*
X86380952Y-91731805D02*
X86476190Y-91827044D01*
X86476190Y-91827044D02*
X86619047Y-91874663D01*
X86619047Y-91874663D02*
X86714285Y-91874663D01*
X85952380Y-90874663D02*
X85285714Y-90874663D01*
X85285714Y-90874663D02*
X85714285Y-91874663D01*
X86849523Y-70414663D02*
X86849523Y-71128948D01*
X86849523Y-71128948D02*
X86897142Y-71271805D01*
X86897142Y-71271805D02*
X86992380Y-71367044D01*
X86992380Y-71367044D02*
X87135237Y-71414663D01*
X87135237Y-71414663D02*
X87230475Y-71414663D01*
X85849523Y-71414663D02*
X86420951Y-71414663D01*
X86135237Y-71414663D02*
X86135237Y-70414663D01*
X86135237Y-70414663D02*
X86230475Y-70557520D01*
X86230475Y-70557520D02*
X86325713Y-70652758D01*
X86325713Y-70652758D02*
X86420951Y-70700377D01*
X85230475Y-70414663D02*
X85135237Y-70414663D01*
X85135237Y-70414663D02*
X85039999Y-70462282D01*
X85039999Y-70462282D02*
X84992380Y-70509901D01*
X84992380Y-70509901D02*
X84944761Y-70605139D01*
X84944761Y-70605139D02*
X84897142Y-70795615D01*
X84897142Y-70795615D02*
X84897142Y-71033710D01*
X84897142Y-71033710D02*
X84944761Y-71224186D01*
X84944761Y-71224186D02*
X84992380Y-71319424D01*
X84992380Y-71319424D02*
X85039999Y-71367044D01*
X85039999Y-71367044D02*
X85135237Y-71414663D01*
X85135237Y-71414663D02*
X85230475Y-71414663D01*
X85230475Y-71414663D02*
X85325713Y-71367044D01*
X85325713Y-71367044D02*
X85373332Y-71319424D01*
X85373332Y-71319424D02*
X85420951Y-71224186D01*
X85420951Y-71224186D02*
X85468570Y-71033710D01*
X85468570Y-71033710D02*
X85468570Y-70795615D01*
X85468570Y-70795615D02*
X85420951Y-70605139D01*
X85420951Y-70605139D02*
X85373332Y-70509901D01*
X85373332Y-70509901D02*
X85325713Y-70462282D01*
X85325713Y-70462282D02*
X85230475Y-70414663D01*
X137809523Y-47874663D02*
X137809523Y-48588948D01*
X137809523Y-48588948D02*
X137857142Y-48731805D01*
X137857142Y-48731805D02*
X137952380Y-48827044D01*
X137952380Y-48827044D02*
X138095237Y-48874663D01*
X138095237Y-48874663D02*
X138190475Y-48874663D01*
X136809523Y-48874663D02*
X137380951Y-48874663D01*
X137095237Y-48874663D02*
X137095237Y-47874663D01*
X137095237Y-47874663D02*
X137190475Y-48017520D01*
X137190475Y-48017520D02*
X137285713Y-48112758D01*
X137285713Y-48112758D02*
X137380951Y-48160377D01*
X136333332Y-48874663D02*
X136142856Y-48874663D01*
X136142856Y-48874663D02*
X136047618Y-48827044D01*
X136047618Y-48827044D02*
X135999999Y-48779424D01*
X135999999Y-48779424D02*
X135904761Y-48636567D01*
X135904761Y-48636567D02*
X135857142Y-48446091D01*
X135857142Y-48446091D02*
X135857142Y-48065139D01*
X135857142Y-48065139D02*
X135904761Y-47969901D01*
X135904761Y-47969901D02*
X135952380Y-47922282D01*
X135952380Y-47922282D02*
X136047618Y-47874663D01*
X136047618Y-47874663D02*
X136238094Y-47874663D01*
X136238094Y-47874663D02*
X136333332Y-47922282D01*
X136333332Y-47922282D02*
X136380951Y-47969901D01*
X136380951Y-47969901D02*
X136428570Y-48065139D01*
X136428570Y-48065139D02*
X136428570Y-48303234D01*
X136428570Y-48303234D02*
X136380951Y-48398472D01*
X136380951Y-48398472D02*
X136333332Y-48446091D01*
X136333332Y-48446091D02*
X136238094Y-48493710D01*
X136238094Y-48493710D02*
X136047618Y-48493710D01*
X136047618Y-48493710D02*
X135952380Y-48446091D01*
X135952380Y-48446091D02*
X135904761Y-48398472D01*
X135904761Y-48398472D02*
X135857142Y-48303234D01*
X108534663Y-142990476D02*
X109248948Y-142990476D01*
X109248948Y-142990476D02*
X109391805Y-142942857D01*
X109391805Y-142942857D02*
X109487044Y-142847619D01*
X109487044Y-142847619D02*
X109534663Y-142704762D01*
X109534663Y-142704762D02*
X109534663Y-142609524D01*
X108629901Y-143419048D02*
X108582282Y-143466667D01*
X108582282Y-143466667D02*
X108534663Y-143561905D01*
X108534663Y-143561905D02*
X108534663Y-143800000D01*
X108534663Y-143800000D02*
X108582282Y-143895238D01*
X108582282Y-143895238D02*
X108629901Y-143942857D01*
X108629901Y-143942857D02*
X108725139Y-143990476D01*
X108725139Y-143990476D02*
X108820377Y-143990476D01*
X108820377Y-143990476D02*
X108963234Y-143942857D01*
X108963234Y-143942857D02*
X109534663Y-143371429D01*
X109534663Y-143371429D02*
X109534663Y-143990476D01*
X109534663Y-144942857D02*
X109534663Y-144371429D01*
X109534663Y-144657143D02*
X108534663Y-144657143D01*
X108534663Y-144657143D02*
X108677520Y-144561905D01*
X108677520Y-144561905D02*
X108772758Y-144466667D01*
X108772758Y-144466667D02*
X108820377Y-144371429D01*
X75339523Y-114784663D02*
X75339523Y-115498948D01*
X75339523Y-115498948D02*
X75387142Y-115641805D01*
X75387142Y-115641805D02*
X75482380Y-115737044D01*
X75482380Y-115737044D02*
X75625237Y-115784663D01*
X75625237Y-115784663D02*
X75720475Y-115784663D01*
X74720475Y-115213234D02*
X74815713Y-115165615D01*
X74815713Y-115165615D02*
X74863332Y-115117996D01*
X74863332Y-115117996D02*
X74910951Y-115022758D01*
X74910951Y-115022758D02*
X74910951Y-114975139D01*
X74910951Y-114975139D02*
X74863332Y-114879901D01*
X74863332Y-114879901D02*
X74815713Y-114832282D01*
X74815713Y-114832282D02*
X74720475Y-114784663D01*
X74720475Y-114784663D02*
X74529999Y-114784663D01*
X74529999Y-114784663D02*
X74434761Y-114832282D01*
X74434761Y-114832282D02*
X74387142Y-114879901D01*
X74387142Y-114879901D02*
X74339523Y-114975139D01*
X74339523Y-114975139D02*
X74339523Y-115022758D01*
X74339523Y-115022758D02*
X74387142Y-115117996D01*
X74387142Y-115117996D02*
X74434761Y-115165615D01*
X74434761Y-115165615D02*
X74529999Y-115213234D01*
X74529999Y-115213234D02*
X74720475Y-115213234D01*
X74720475Y-115213234D02*
X74815713Y-115260853D01*
X74815713Y-115260853D02*
X74863332Y-115308472D01*
X74863332Y-115308472D02*
X74910951Y-115403710D01*
X74910951Y-115403710D02*
X74910951Y-115594186D01*
X74910951Y-115594186D02*
X74863332Y-115689424D01*
X74863332Y-115689424D02*
X74815713Y-115737044D01*
X74815713Y-115737044D02*
X74720475Y-115784663D01*
X74720475Y-115784663D02*
X74529999Y-115784663D01*
X74529999Y-115784663D02*
X74434761Y-115737044D01*
X74434761Y-115737044D02*
X74387142Y-115689424D01*
X74387142Y-115689424D02*
X74339523Y-115594186D01*
X74339523Y-115594186D02*
X74339523Y-115403710D01*
X74339523Y-115403710D02*
X74387142Y-115308472D01*
X74387142Y-115308472D02*
X74434761Y-115260853D01*
X74434761Y-115260853D02*
X74529999Y-115213234D01*
X73434761Y-114784663D02*
X73910951Y-114784663D01*
X73910951Y-114784663D02*
X73958570Y-115260853D01*
X73958570Y-115260853D02*
X73910951Y-115213234D01*
X73910951Y-115213234D02*
X73815713Y-115165615D01*
X73815713Y-115165615D02*
X73577618Y-115165615D01*
X73577618Y-115165615D02*
X73482380Y-115213234D01*
X73482380Y-115213234D02*
X73434761Y-115260853D01*
X73434761Y-115260853D02*
X73387142Y-115356091D01*
X73387142Y-115356091D02*
X73387142Y-115594186D01*
X73387142Y-115594186D02*
X73434761Y-115689424D01*
X73434761Y-115689424D02*
X73482380Y-115737044D01*
X73482380Y-115737044D02*
X73577618Y-115784663D01*
X73577618Y-115784663D02*
X73815713Y-115784663D01*
X73815713Y-115784663D02*
X73910951Y-115737044D01*
X73910951Y-115737044D02*
X73958570Y-115689424D01*
X59561904Y-44554663D02*
X58990476Y-44554663D01*
X59276190Y-45554663D02*
X59276190Y-44554663D01*
X58657142Y-45554663D02*
X58657142Y-44554663D01*
X58657142Y-44554663D02*
X58276190Y-44554663D01*
X58276190Y-44554663D02*
X58180952Y-44602282D01*
X58180952Y-44602282D02*
X58133333Y-44649901D01*
X58133333Y-44649901D02*
X58085714Y-44745139D01*
X58085714Y-44745139D02*
X58085714Y-44887996D01*
X58085714Y-44887996D02*
X58133333Y-44983234D01*
X58133333Y-44983234D02*
X58180952Y-45030853D01*
X58180952Y-45030853D02*
X58276190Y-45078472D01*
X58276190Y-45078472D02*
X58657142Y-45078472D01*
X57133333Y-45554663D02*
X57704761Y-45554663D01*
X57419047Y-45554663D02*
X57419047Y-44554663D01*
X57419047Y-44554663D02*
X57514285Y-44697520D01*
X57514285Y-44697520D02*
X57609523Y-44792758D01*
X57609523Y-44792758D02*
X57704761Y-44840377D01*
X32361904Y-140954663D02*
X31790476Y-140954663D01*
X32076190Y-141954663D02*
X32076190Y-140954663D01*
X31457142Y-141954663D02*
X31457142Y-140954663D01*
X31457142Y-140954663D02*
X31076190Y-140954663D01*
X31076190Y-140954663D02*
X30980952Y-141002282D01*
X30980952Y-141002282D02*
X30933333Y-141049901D01*
X30933333Y-141049901D02*
X30885714Y-141145139D01*
X30885714Y-141145139D02*
X30885714Y-141287996D01*
X30885714Y-141287996D02*
X30933333Y-141383234D01*
X30933333Y-141383234D02*
X30980952Y-141430853D01*
X30980952Y-141430853D02*
X31076190Y-141478472D01*
X31076190Y-141478472D02*
X31457142Y-141478472D01*
X30504761Y-141049901D02*
X30457142Y-141002282D01*
X30457142Y-141002282D02*
X30361904Y-140954663D01*
X30361904Y-140954663D02*
X30123809Y-140954663D01*
X30123809Y-140954663D02*
X30028571Y-141002282D01*
X30028571Y-141002282D02*
X29980952Y-141049901D01*
X29980952Y-141049901D02*
X29933333Y-141145139D01*
X29933333Y-141145139D02*
X29933333Y-141240377D01*
X29933333Y-141240377D02*
X29980952Y-141383234D01*
X29980952Y-141383234D02*
X30552380Y-141954663D01*
X30552380Y-141954663D02*
X29933333Y-141954663D01*
X38161904Y-140954663D02*
X37590476Y-140954663D01*
X37876190Y-141954663D02*
X37876190Y-140954663D01*
X37257142Y-141954663D02*
X37257142Y-140954663D01*
X37257142Y-140954663D02*
X36876190Y-140954663D01*
X36876190Y-140954663D02*
X36780952Y-141002282D01*
X36780952Y-141002282D02*
X36733333Y-141049901D01*
X36733333Y-141049901D02*
X36685714Y-141145139D01*
X36685714Y-141145139D02*
X36685714Y-141287996D01*
X36685714Y-141287996D02*
X36733333Y-141383234D01*
X36733333Y-141383234D02*
X36780952Y-141430853D01*
X36780952Y-141430853D02*
X36876190Y-141478472D01*
X36876190Y-141478472D02*
X37257142Y-141478472D01*
X36352380Y-140954663D02*
X35733333Y-140954663D01*
X35733333Y-140954663D02*
X36066666Y-141335615D01*
X36066666Y-141335615D02*
X35923809Y-141335615D01*
X35923809Y-141335615D02*
X35828571Y-141383234D01*
X35828571Y-141383234D02*
X35780952Y-141430853D01*
X35780952Y-141430853D02*
X35733333Y-141526091D01*
X35733333Y-141526091D02*
X35733333Y-141764186D01*
X35733333Y-141764186D02*
X35780952Y-141859424D01*
X35780952Y-141859424D02*
X35828571Y-141907044D01*
X35828571Y-141907044D02*
X35923809Y-141954663D01*
X35923809Y-141954663D02*
X36209523Y-141954663D01*
X36209523Y-141954663D02*
X36304761Y-141907044D01*
X36304761Y-141907044D02*
X36352380Y-141859424D01*
X44161904Y-140954663D02*
X43590476Y-140954663D01*
X43876190Y-141954663D02*
X43876190Y-140954663D01*
X43257142Y-141954663D02*
X43257142Y-140954663D01*
X43257142Y-140954663D02*
X42876190Y-140954663D01*
X42876190Y-140954663D02*
X42780952Y-141002282D01*
X42780952Y-141002282D02*
X42733333Y-141049901D01*
X42733333Y-141049901D02*
X42685714Y-141145139D01*
X42685714Y-141145139D02*
X42685714Y-141287996D01*
X42685714Y-141287996D02*
X42733333Y-141383234D01*
X42733333Y-141383234D02*
X42780952Y-141430853D01*
X42780952Y-141430853D02*
X42876190Y-141478472D01*
X42876190Y-141478472D02*
X43257142Y-141478472D01*
X41828571Y-141287996D02*
X41828571Y-141954663D01*
X42066666Y-140907044D02*
X42304761Y-141621329D01*
X42304761Y-141621329D02*
X41685714Y-141621329D01*
X26954663Y-116038095D02*
X26954663Y-116609523D01*
X27954663Y-116323809D02*
X26954663Y-116323809D01*
X27954663Y-116942857D02*
X26954663Y-116942857D01*
X26954663Y-116942857D02*
X26954663Y-117323809D01*
X26954663Y-117323809D02*
X27002282Y-117419047D01*
X27002282Y-117419047D02*
X27049901Y-117466666D01*
X27049901Y-117466666D02*
X27145139Y-117514285D01*
X27145139Y-117514285D02*
X27287996Y-117514285D01*
X27287996Y-117514285D02*
X27383234Y-117466666D01*
X27383234Y-117466666D02*
X27430853Y-117419047D01*
X27430853Y-117419047D02*
X27478472Y-117323809D01*
X27478472Y-117323809D02*
X27478472Y-116942857D01*
X26954663Y-118419047D02*
X26954663Y-117942857D01*
X26954663Y-117942857D02*
X27430853Y-117895238D01*
X27430853Y-117895238D02*
X27383234Y-117942857D01*
X27383234Y-117942857D02*
X27335615Y-118038095D01*
X27335615Y-118038095D02*
X27335615Y-118276190D01*
X27335615Y-118276190D02*
X27383234Y-118371428D01*
X27383234Y-118371428D02*
X27430853Y-118419047D01*
X27430853Y-118419047D02*
X27526091Y-118466666D01*
X27526091Y-118466666D02*
X27764186Y-118466666D01*
X27764186Y-118466666D02*
X27859424Y-118419047D01*
X27859424Y-118419047D02*
X27907044Y-118371428D01*
X27907044Y-118371428D02*
X27954663Y-118276190D01*
X27954663Y-118276190D02*
X27954663Y-118038095D01*
X27954663Y-118038095D02*
X27907044Y-117942857D01*
X27907044Y-117942857D02*
X27859424Y-117895238D01*
X66888094Y-140954663D02*
X66316666Y-140954663D01*
X66602380Y-141954663D02*
X66602380Y-140954663D01*
X65983332Y-141954663D02*
X65983332Y-140954663D01*
X65983332Y-140954663D02*
X65602380Y-140954663D01*
X65602380Y-140954663D02*
X65507142Y-141002282D01*
X65507142Y-141002282D02*
X65459523Y-141049901D01*
X65459523Y-141049901D02*
X65411904Y-141145139D01*
X65411904Y-141145139D02*
X65411904Y-141287996D01*
X65411904Y-141287996D02*
X65459523Y-141383234D01*
X65459523Y-141383234D02*
X65507142Y-141430853D01*
X65507142Y-141430853D02*
X65602380Y-141478472D01*
X65602380Y-141478472D02*
X65983332Y-141478472D01*
X65030951Y-141049901D02*
X64983332Y-141002282D01*
X64983332Y-141002282D02*
X64888094Y-140954663D01*
X64888094Y-140954663D02*
X64649999Y-140954663D01*
X64649999Y-140954663D02*
X64554761Y-141002282D01*
X64554761Y-141002282D02*
X64507142Y-141049901D01*
X64507142Y-141049901D02*
X64459523Y-141145139D01*
X64459523Y-141145139D02*
X64459523Y-141240377D01*
X64459523Y-141240377D02*
X64507142Y-141383234D01*
X64507142Y-141383234D02*
X65078570Y-141954663D01*
X65078570Y-141954663D02*
X64459523Y-141954663D01*
X64078570Y-141049901D02*
X64030951Y-141002282D01*
X64030951Y-141002282D02*
X63935713Y-140954663D01*
X63935713Y-140954663D02*
X63697618Y-140954663D01*
X63697618Y-140954663D02*
X63602380Y-141002282D01*
X63602380Y-141002282D02*
X63554761Y-141049901D01*
X63554761Y-141049901D02*
X63507142Y-141145139D01*
X63507142Y-141145139D02*
X63507142Y-141240377D01*
X63507142Y-141240377D02*
X63554761Y-141383234D01*
X63554761Y-141383234D02*
X64126189Y-141954663D01*
X64126189Y-141954663D02*
X63507142Y-141954663D01*
X86809523Y-47874663D02*
X86809523Y-48588948D01*
X86809523Y-48588948D02*
X86857142Y-48731805D01*
X86857142Y-48731805D02*
X86952380Y-48827044D01*
X86952380Y-48827044D02*
X87095237Y-48874663D01*
X87095237Y-48874663D02*
X87190475Y-48874663D01*
X86380951Y-47969901D02*
X86333332Y-47922282D01*
X86333332Y-47922282D02*
X86238094Y-47874663D01*
X86238094Y-47874663D02*
X85999999Y-47874663D01*
X85999999Y-47874663D02*
X85904761Y-47922282D01*
X85904761Y-47922282D02*
X85857142Y-47969901D01*
X85857142Y-47969901D02*
X85809523Y-48065139D01*
X85809523Y-48065139D02*
X85809523Y-48160377D01*
X85809523Y-48160377D02*
X85857142Y-48303234D01*
X85857142Y-48303234D02*
X86428570Y-48874663D01*
X86428570Y-48874663D02*
X85809523Y-48874663D01*
X85428570Y-47969901D02*
X85380951Y-47922282D01*
X85380951Y-47922282D02*
X85285713Y-47874663D01*
X85285713Y-47874663D02*
X85047618Y-47874663D01*
X85047618Y-47874663D02*
X84952380Y-47922282D01*
X84952380Y-47922282D02*
X84904761Y-47969901D01*
X84904761Y-47969901D02*
X84857142Y-48065139D01*
X84857142Y-48065139D02*
X84857142Y-48160377D01*
X84857142Y-48160377D02*
X84904761Y-48303234D01*
X84904761Y-48303234D02*
X85476189Y-48874663D01*
X85476189Y-48874663D02*
X84857142Y-48874663D01*
D11*
X135620000Y-103070000D02*
X135620000Y-110800000D01*
X138380000Y-110800000D02*
X135620000Y-110800000D01*
X138380000Y-103070000D02*
X135620000Y-103070000D01*
X138380000Y-103070000D02*
X138380000Y-110800000D01*
X138380000Y-101800000D02*
X138380000Y-100420000D01*
X138380000Y-100420000D02*
X137000000Y-100420000D01*
X84620000Y-95070000D02*
X84620000Y-112960000D01*
X87380000Y-112960000D02*
X84620000Y-112960000D01*
X87380000Y-95070000D02*
X84620000Y-95070000D01*
X87380000Y-95070000D02*
X87380000Y-112960000D01*
X87380000Y-93800000D02*
X87380000Y-92420000D01*
X87380000Y-92420000D02*
X86000000Y-92420000D01*
X87420000Y-71960000D02*
X86040000Y-71960000D01*
X87420000Y-73340000D02*
X87420000Y-71960000D01*
X87420000Y-74610000D02*
X87420000Y-87420000D01*
X87420000Y-74610000D02*
X84660000Y-74610000D01*
X87420000Y-87420000D02*
X84660000Y-87420000D01*
X84660000Y-74610000D02*
X84660000Y-87420000D01*
X135620000Y-52070000D02*
X135620000Y-64880000D01*
X138380000Y-64880000D02*
X135620000Y-64880000D01*
X138380000Y-52070000D02*
X135620000Y-52070000D01*
X138380000Y-52070000D02*
X138380000Y-64880000D01*
X138380000Y-50800000D02*
X138380000Y-49420000D01*
X138380000Y-49420000D02*
X137000000Y-49420000D01*
X112730000Y-145180000D02*
X115380000Y-145180000D01*
X115380000Y-142420000D02*
X115380000Y-145180000D01*
X112730000Y-142420000D02*
X112730000Y-145180000D01*
X112730000Y-142420000D02*
X115380000Y-142420000D01*
X111460000Y-142420000D02*
X110080000Y-142420000D01*
X110080000Y-142420000D02*
X110080000Y-143800000D01*
X71880000Y-116330000D02*
X71880000Y-136870000D01*
X74530000Y-118980000D02*
X74530000Y-116330000D01*
X74530000Y-116330000D02*
X71880000Y-116330000D01*
X77180000Y-136870000D02*
X71880000Y-136870000D01*
X77180000Y-118980000D02*
X74530000Y-118980000D01*
X77180000Y-118980000D02*
X77180000Y-136870000D01*
X77180000Y-117710000D02*
X77180000Y-116330000D01*
X77180000Y-116330000D02*
X75800000Y-116330000D01*
D12*
X92281001Y-63016299D02*
G75*
G02*
X91519001Y-63016299I-381000J0D01*
G01*
X91519001Y-63016299D02*
G75*
G02*
X92281001Y-63016299I381000J0D01*
G01*
D11*
X60500000Y-42600000D02*
G75*
G02*
X57500000Y-42600000I-1500000J0D01*
G01*
X57500000Y-42600000D02*
G75*
G02*
X60500000Y-42600000I1500000J0D01*
G01*
X31900000Y-144000000D02*
G75*
G02*
X28900000Y-144000000I-1500000J0D01*
G01*
X28900000Y-144000000D02*
G75*
G02*
X31900000Y-144000000I1500000J0D01*
G01*
X37700000Y-144000000D02*
G75*
G02*
X34700000Y-144000000I-1500000J0D01*
G01*
X34700000Y-144000000D02*
G75*
G02*
X37700000Y-144000000I1500000J0D01*
G01*
X43700000Y-144000000D02*
G75*
G02*
X40700000Y-144000000I-1500000J0D01*
G01*
X40700000Y-144000000D02*
G75*
G02*
X43700000Y-144000000I1500000J0D01*
G01*
X26500000Y-116600000D02*
G75*
G02*
X23500000Y-116600000I-1500000J0D01*
G01*
X23500000Y-116600000D02*
G75*
G02*
X26500000Y-116600000I1500000J0D01*
G01*
X65950000Y-144000000D02*
G75*
G02*
X62950000Y-144000000I-1500000J0D01*
G01*
X62950000Y-144000000D02*
G75*
G02*
X65950000Y-144000000I1500000J0D01*
G01*
X87380000Y-49420000D02*
X86000000Y-49420000D01*
X87380000Y-50800000D02*
X87380000Y-49420000D01*
X87380000Y-52070000D02*
X87380000Y-64880000D01*
X87380000Y-52070000D02*
X84620000Y-52070000D01*
X87380000Y-64880000D02*
X84620000Y-64880000D01*
X84620000Y-52070000D02*
X84620000Y-64880000D01*
M02*
