G04 #@! TF.GenerationSoftware,KiCad,Pcbnew,10.0.0*
G04 #@! TF.CreationDate,2026-04-01T18:41:47-07:00*
G04 #@! TF.ProjectId,VCO 2,56434f20-322e-46b6-9963-61645f706362,rev?*
G04 #@! TF.SameCoordinates,Original*
G04 #@! TF.FileFunction,Soldermask,Top*
G04 #@! TF.FilePolarity,Negative*
%FSLAX46Y46*%
G04 Gerber Fmt 4.6, Leading zero omitted, Abs format (unit mm)*
G04 Created by KiCad (PCBNEW 10.0.0) date 2026-04-01 18:41:47*
%MOMM*%
%LPD*%
G01*
G04 APERTURE LIST*
G04 Aperture macros list*
%AMRoundRect*
0 Rectangle with rounded corners*
0 $1 Rounding radius*
0 $2 $3 $4 $5 $6 $7 $8 $9 X,Y pos of 4 corners*
0 Add a 4 corners polygon primitive as box body*
4,1,4,$2,$3,$4,$5,$6,$7,$8,$9,$2,$3,0*
0 Add four circle primitives for the rounded corners*
1,1,$1+$1,$2,$3*
1,1,$1+$1,$4,$5*
1,1,$1+$1,$6,$7*
1,1,$1+$1,$8,$9*
0 Add four rect primitives between the rounded corners*
20,1,$1+$1,$2,$3,$4,$5,0*
20,1,$1+$1,$4,$5,$6,$7,0*
20,1,$1+$1,$6,$7,$8,$9,0*
20,1,$1+$1,$8,$9,$2,$3,0*%
G04 Aperture macros list end*
%ADD10RoundRect,0.500000X-0.500000X-1.000000X0.500000X-1.000000X0.500000X1.000000X-0.500000X1.000000X0*%
%ADD11C,1.800000*%
%ADD12R,1.800000X1.800000*%
%ADD13C,1.400000*%
%ADD14R,1.397000X1.397000*%
%ADD15C,1.397000*%
%ADD16C,1.500000*%
%ADD17R,1.500000X1.500000*%
%ADD18C,1.600000*%
%ADD19RoundRect,0.250000X-0.550000X0.550000X-0.550000X-0.550000X0.550000X-0.550000X0.550000X0.550000X0*%
%ADD20RoundRect,0.250000X0.550000X-0.550000X0.550000X0.550000X-0.550000X0.550000X-0.550000X-0.550000X0*%
%ADD21C,2.130000*%
%ADD22R,1.930000X1.830000*%
%ADD23C,2.200000*%
%ADD24RoundRect,0.249999X0.850001X0.850001X-0.850001X0.850001X-0.850001X-0.850001X0.850001X-0.850001X0*%
%ADD25RoundRect,0.249999X-0.850001X-0.850001X0.850001X-0.850001X0.850001X0.850001X-0.850001X0.850001X0*%
%ADD26C,2.700000*%
%ADD27C,1.700000*%
%ADD28R,1.700000X1.700000*%
%ADD29C,1.440000*%
%ADD30C,2.514600*%
%ADD31C,2.000000*%
%ADD32RoundRect,0.250000X-0.550000X-0.550000X0.550000X-0.550000X0.550000X0.550000X-0.550000X0.550000X0*%
%ADD33C,3.200000*%
G04 APERTURE END LIST*
D10*
X106100000Y-96050000D03*
X106100000Y-86550000D03*
D11*
X98600000Y-93800000D03*
X98600000Y-91300000D03*
D12*
X98600000Y-88800000D03*
D13*
X71400000Y-64000000D03*
X68860000Y-64000000D03*
X71400000Y-60200000D03*
X68860000Y-60200000D03*
D14*
X53470000Y-41400000D03*
D15*
X52200000Y-43940000D03*
X50930000Y-41400000D03*
D13*
X30600000Y-53200000D03*
X28060000Y-53200000D03*
X67800000Y-103220000D03*
X67800000Y-100680000D03*
D16*
X54200000Y-87600000D03*
X54200000Y-82600000D03*
D17*
X67600000Y-115400000D03*
D16*
X65060000Y-115400000D03*
X62520000Y-115400000D03*
D17*
X67600000Y-107600000D03*
D16*
X65060000Y-107600000D03*
X62520000Y-107600000D03*
X75800000Y-68600000D03*
X75800000Y-73600000D03*
D18*
X42600000Y-53000000D03*
X42600000Y-48000000D03*
X36600000Y-87400000D03*
X41600000Y-87400000D03*
X23600000Y-128000000D03*
X23600000Y-123000000D03*
X42700000Y-126000000D03*
X37700000Y-126000000D03*
D16*
X37100000Y-109800000D03*
X32100000Y-109800000D03*
D18*
X46600000Y-58800000D03*
X51600000Y-58800000D03*
X51800000Y-74700000D03*
X51800000Y-79700000D03*
D16*
X36000000Y-96700000D03*
X36000000Y-91700000D03*
X34900000Y-75600000D03*
X29900000Y-75600000D03*
D18*
X46500000Y-42000000D03*
X41500000Y-42000000D03*
D16*
X36600000Y-56800000D03*
X41600000Y-56800000D03*
D18*
X62400000Y-88000000D03*
X62400000Y-83000000D03*
X52800000Y-138700000D03*
D19*
X52800000Y-136200000D03*
D18*
X52600000Y-129100000D03*
D20*
X52600000Y-131600000D03*
D18*
X45400000Y-141200000D03*
X45400000Y-136200000D03*
X45400000Y-128100000D03*
X45400000Y-133100000D03*
D11*
X110260000Y-137800000D03*
D12*
X112800000Y-137800000D03*
D21*
X95400000Y-103920000D03*
X95400000Y-112220000D03*
D22*
X95400000Y-100820000D03*
D23*
X58440000Y-128600000D03*
D24*
X68600000Y-128600000D03*
D23*
X69200000Y-139200000D03*
D25*
X59040000Y-139200000D03*
D26*
X25000000Y-43000000D03*
X75800000Y-43000000D03*
X25000000Y-143400000D03*
X75600000Y-143400000D03*
X86000000Y-43000000D03*
X137000000Y-43000000D03*
X136800000Y-143400000D03*
X85800000Y-143400000D03*
D27*
X75800000Y-109420000D03*
X75800000Y-106880000D03*
X75800000Y-104340000D03*
D28*
X75800000Y-101800000D03*
D22*
X116800000Y-120400000D03*
D21*
X116800000Y-131800000D03*
X116800000Y-123500000D03*
D27*
X137000000Y-109420000D03*
X137000000Y-106880000D03*
X137000000Y-104340000D03*
D28*
X137000000Y-101800000D03*
D22*
X106000000Y-120400000D03*
D21*
X106000000Y-131800000D03*
X106000000Y-123500000D03*
D22*
X95200000Y-120400000D03*
D21*
X95200000Y-131800000D03*
X95200000Y-123500000D03*
X127600000Y-123500000D03*
X127600000Y-131800000D03*
D22*
X127600000Y-120400000D03*
D27*
X86000000Y-111580000D03*
X86000000Y-109040000D03*
X86000000Y-106500000D03*
X86000000Y-103960000D03*
X86000000Y-101420000D03*
X86000000Y-98880000D03*
X86000000Y-96340000D03*
D28*
X86000000Y-93800000D03*
D27*
X25000000Y-111580000D03*
X25000000Y-109040000D03*
X25000000Y-106500000D03*
X25000000Y-103960000D03*
X25000000Y-101420000D03*
X25000000Y-98880000D03*
X25000000Y-96340000D03*
D28*
X25000000Y-93800000D03*
X25000000Y-73800000D03*
D27*
X25000000Y-76340000D03*
X25000000Y-78880000D03*
X25000000Y-81420000D03*
X25000000Y-83960000D03*
X25000000Y-86500000D03*
D28*
X86040000Y-73340000D03*
D27*
X86040000Y-75880000D03*
X86040000Y-78420000D03*
X86040000Y-80960000D03*
X86040000Y-83500000D03*
X86040000Y-86040000D03*
D21*
X127800000Y-73500000D03*
X127800000Y-81800000D03*
D22*
X127800000Y-70400000D03*
D21*
X106200000Y-73520000D03*
X106200000Y-81820000D03*
D22*
X106200000Y-70420000D03*
D21*
X95400000Y-73500000D03*
X95400000Y-81800000D03*
D22*
X95400000Y-70400000D03*
D21*
X117000000Y-73500000D03*
X117000000Y-81800000D03*
D22*
X117000000Y-70400000D03*
D27*
X75800000Y-63500000D03*
X75800000Y-60960000D03*
X75800000Y-58420000D03*
X75800000Y-55880000D03*
X75800000Y-53340000D03*
D28*
X75800000Y-50800000D03*
D27*
X137000000Y-63500000D03*
X137000000Y-60960000D03*
X137000000Y-58420000D03*
X137000000Y-55880000D03*
X137000000Y-53340000D03*
D28*
X137000000Y-50800000D03*
D27*
X52800000Y-143800000D03*
D28*
X50260000Y-143800000D03*
D27*
X114000000Y-143800000D03*
D28*
X111460000Y-143800000D03*
D27*
X73260000Y-135490000D03*
X75800000Y-135490000D03*
X73260000Y-132950000D03*
X75800000Y-132950000D03*
X73260000Y-130410000D03*
X75800000Y-130410000D03*
X73260000Y-127870000D03*
X75800000Y-127870000D03*
X73260000Y-125330000D03*
X75800000Y-125330000D03*
X73260000Y-122790000D03*
X75800000Y-122790000D03*
X73260000Y-120250000D03*
X75800000Y-120250000D03*
X73260000Y-117710000D03*
D28*
X75800000Y-117710000D03*
D29*
X95320000Y-64800000D03*
X97860000Y-64800000D03*
X100400000Y-64800000D03*
D10*
X127700000Y-96450000D03*
X127700000Y-86950000D03*
D11*
X120200000Y-94200000D03*
X120200000Y-91700000D03*
D12*
X120200000Y-89200000D03*
D29*
X64120000Y-48000000D03*
X66660000Y-48000000D03*
X69200000Y-48000000D03*
D12*
X114100000Y-49050000D03*
D11*
X114100000Y-51550000D03*
X114100000Y-54050000D03*
D10*
X121600000Y-46800000D03*
X121600000Y-56300000D03*
D29*
X120800000Y-64800000D03*
X118260000Y-64800000D03*
X115720000Y-64800000D03*
X110600000Y-64800000D03*
X108060000Y-64800000D03*
X105520000Y-64800000D03*
D12*
X120200000Y-104400000D03*
D11*
X120200000Y-106900000D03*
X120200000Y-109400000D03*
D10*
X127700000Y-102150000D03*
X127700000Y-111650000D03*
D29*
X69805000Y-79860000D03*
X69805000Y-82400000D03*
X69805000Y-84940000D03*
X69625000Y-95540000D03*
X69625000Y-93000000D03*
X69625000Y-90460000D03*
D15*
X91900001Y-56599998D03*
X91900001Y-54099998D03*
X91900001Y-51599998D03*
X91900001Y-49099998D03*
X91900001Y-46599998D03*
X110200000Y-56599998D03*
X110200000Y-54099998D03*
X110200000Y-51599998D03*
X110200000Y-49099998D03*
X110200000Y-46599998D03*
D30*
X102029933Y-59600000D03*
X102029933Y-43599996D03*
D31*
X59000000Y-42600000D03*
X30400000Y-144000000D03*
X36200000Y-144000000D03*
X42200000Y-144000000D03*
X25000000Y-116600000D03*
X64450000Y-144000000D03*
D18*
X41580000Y-90580000D03*
X44120000Y-90580000D03*
X46660000Y-90580000D03*
X49200000Y-90580000D03*
X51740000Y-90580000D03*
X54280000Y-90580000D03*
X56820000Y-90580000D03*
X59360000Y-90580000D03*
X59360000Y-98200000D03*
X56820000Y-98200000D03*
X54280000Y-98200000D03*
X51740000Y-98200000D03*
X49200000Y-98200000D03*
X46660000Y-98200000D03*
X44120000Y-98200000D03*
D20*
X41580000Y-98200000D03*
D18*
X35000000Y-120200000D03*
X35000000Y-122740000D03*
X35000000Y-125280000D03*
X35000000Y-127820000D03*
X35000000Y-130360000D03*
X35000000Y-132900000D03*
X35000000Y-135440000D03*
X27380000Y-135440000D03*
X27380000Y-132900000D03*
X27380000Y-130360000D03*
X27380000Y-127820000D03*
X27380000Y-125280000D03*
X27380000Y-122740000D03*
D32*
X27380000Y-120200000D03*
D19*
X59420000Y-63400000D03*
D18*
X56880000Y-63400000D03*
X54340000Y-63400000D03*
X51800000Y-63400000D03*
X49260000Y-63400000D03*
X46720000Y-63400000D03*
X44180000Y-63400000D03*
X44180000Y-71020000D03*
X46720000Y-71020000D03*
X49260000Y-71020000D03*
X51800000Y-71020000D03*
X54340000Y-71020000D03*
X56880000Y-71020000D03*
X59420000Y-71020000D03*
D27*
X25000000Y-63500000D03*
X25000000Y-60960000D03*
X25000000Y-58420000D03*
X25000000Y-55880000D03*
X25000000Y-53340000D03*
D28*
X25000000Y-50800000D03*
X86000000Y-50800000D03*
D27*
X86000000Y-53340000D03*
X86000000Y-55880000D03*
X86000000Y-58420000D03*
X86000000Y-60960000D03*
X86000000Y-63500000D03*
D13*
X59520000Y-74200000D03*
X56980000Y-74200000D03*
X30930000Y-104000000D03*
X28390000Y-104000000D03*
X46600000Y-87740000D03*
X46600000Y-85200000D03*
X38600000Y-119260000D03*
X38600000Y-121800000D03*
X23800000Y-138540000D03*
X23800000Y-136000000D03*
X40800000Y-135520000D03*
X40800000Y-132980000D03*
X64400000Y-74860000D03*
X64400000Y-77400000D03*
X54400000Y-117140000D03*
X54400000Y-114600000D03*
X39130000Y-105600000D03*
X36590000Y-105600000D03*
X50000000Y-101400000D03*
X52540000Y-101400000D03*
X61860000Y-102200000D03*
X64400000Y-102200000D03*
X71600000Y-100680000D03*
X71600000Y-103220000D03*
X62460000Y-122200000D03*
X65000000Y-122200000D03*
X48600000Y-117140000D03*
X48600000Y-114600000D03*
X35460000Y-42000000D03*
X38000000Y-42000000D03*
X28060000Y-55800000D03*
X30600000Y-55800000D03*
X28080000Y-58400000D03*
X30620000Y-58400000D03*
X28000000Y-61200000D03*
X30540000Y-61200000D03*
X28060000Y-64000000D03*
X30600000Y-64000000D03*
X68860000Y-68000000D03*
X71400000Y-68000000D03*
X68860000Y-72000000D03*
X71400000Y-72000000D03*
X44120000Y-109800000D03*
X41580000Y-109800000D03*
X26740000Y-68000000D03*
X24200000Y-68000000D03*
X31330000Y-91200000D03*
X28790000Y-91200000D03*
X59600000Y-80930000D03*
X59600000Y-78390000D03*
X46600000Y-103920000D03*
X46600000Y-101380000D03*
X32600000Y-68080000D03*
X32600000Y-70620000D03*
X35460000Y-48000000D03*
X38000000Y-48000000D03*
X51460000Y-49000000D03*
X54000000Y-49000000D03*
X48600000Y-53940000D03*
X48600000Y-51400000D03*
X54800000Y-55940000D03*
X54800000Y-53400000D03*
X59000000Y-58800000D03*
X61540000Y-58800000D03*
X58860000Y-53400000D03*
X61400000Y-53400000D03*
X21880000Y-119800000D03*
X24420000Y-119800000D03*
X30000000Y-138600000D03*
X27460000Y-138600000D03*
X38060000Y-139200000D03*
X40600000Y-139200000D03*
X40920000Y-130000000D03*
X38380000Y-130000000D03*
X23800000Y-133320000D03*
X23800000Y-130780000D03*
X59930000Y-143800000D03*
X57390000Y-143800000D03*
X59860000Y-134800000D03*
X62400000Y-134800000D03*
X65280000Y-133000000D03*
X67820000Y-133000000D03*
X44200000Y-81610000D03*
X44200000Y-73990000D03*
X36210000Y-81200000D03*
X28590000Y-81200000D03*
X36220000Y-84200000D03*
X28600000Y-84200000D03*
X39400000Y-67970000D03*
X39400000Y-75590000D03*
X30960000Y-116600000D03*
X38580000Y-116600000D03*
X36600000Y-68010000D03*
X36600000Y-60390000D03*
X58800000Y-108980000D03*
X58800000Y-116600000D03*
X41620000Y-102400000D03*
X34000000Y-102400000D03*
D33*
X153000000Y-26400000D03*
X191400000Y-26400000D03*
X191400000Y-142200000D03*
X153000000Y-142200000D03*
M02*
