G04 #@! TF.GenerationSoftware,KiCad,Pcbnew,10.0.0*
G04 #@! TF.CreationDate,2026-04-13T13:59:17-07:00*
G04 #@! TF.ProjectId,VCO 2,56434f20-322e-46b6-9963-61645f706362,rev?*
G04 #@! TF.SameCoordinates,Original*
G04 #@! TF.FileFunction,AssemblyDrawing,Bot*
%FSLAX46Y46*%
G04 Gerber Fmt 4.6, Leading zero omitted, Abs format (unit mm)*
G04 Created by KiCad (PCBNEW 10.0.0) date 2026-04-13 13:59:17*
%MOMM*%
%LPD*%
G01*
G04 APERTURE LIST*
%ADD10C,0.153000*%
%ADD11C,0.100000*%
%ADD12C,0.120000*%
G04 APERTURE END LIST*
D10*
X85580853Y-114220951D02*
X85580853Y-114554284D01*
X86104663Y-114697141D02*
X86104663Y-114220951D01*
X86104663Y-114220951D02*
X85104663Y-114220951D01*
X85104663Y-114220951D02*
X85104663Y-114697141D01*
X85437996Y-115554284D02*
X86104663Y-115554284D01*
X85437996Y-115125713D02*
X85961805Y-115125713D01*
X85961805Y-115125713D02*
X86057044Y-115173332D01*
X86057044Y-115173332D02*
X86104663Y-115268570D01*
X86104663Y-115268570D02*
X86104663Y-115411427D01*
X86104663Y-115411427D02*
X86057044Y-115506665D01*
X86057044Y-115506665D02*
X86009424Y-115554284D01*
X86104663Y-116030475D02*
X85437996Y-116030475D01*
X85628472Y-116030475D02*
X85533234Y-116078094D01*
X85533234Y-116078094D02*
X85485615Y-116125713D01*
X85485615Y-116125713D02*
X85437996Y-116220951D01*
X85437996Y-116220951D02*
X85437996Y-116316189D01*
X86104663Y-116792380D02*
X86057044Y-116697142D01*
X86057044Y-116697142D02*
X86009424Y-116649523D01*
X86009424Y-116649523D02*
X85914186Y-116601904D01*
X85914186Y-116601904D02*
X85628472Y-116601904D01*
X85628472Y-116601904D02*
X85533234Y-116649523D01*
X85533234Y-116649523D02*
X85485615Y-116697142D01*
X85485615Y-116697142D02*
X85437996Y-116792380D01*
X85437996Y-116792380D02*
X85437996Y-116935237D01*
X85437996Y-116935237D02*
X85485615Y-117030475D01*
X85485615Y-117030475D02*
X85533234Y-117078094D01*
X85533234Y-117078094D02*
X85628472Y-117125713D01*
X85628472Y-117125713D02*
X85914186Y-117125713D01*
X85914186Y-117125713D02*
X86009424Y-117078094D01*
X86009424Y-117078094D02*
X86057044Y-117030475D01*
X86057044Y-117030475D02*
X86104663Y-116935237D01*
X86104663Y-116935237D02*
X86104663Y-116792380D01*
X86104663Y-117554285D02*
X85437996Y-117554285D01*
X85628472Y-117554285D02*
X85533234Y-117601904D01*
X85533234Y-117601904D02*
X85485615Y-117649523D01*
X85485615Y-117649523D02*
X85437996Y-117744761D01*
X85437996Y-117744761D02*
X85437996Y-117839999D01*
X86104663Y-118601904D02*
X85580853Y-118601904D01*
X85580853Y-118601904D02*
X85485615Y-118554285D01*
X85485615Y-118554285D02*
X85437996Y-118459047D01*
X85437996Y-118459047D02*
X85437996Y-118268571D01*
X85437996Y-118268571D02*
X85485615Y-118173333D01*
X86057044Y-118601904D02*
X86104663Y-118506666D01*
X86104663Y-118506666D02*
X86104663Y-118268571D01*
X86104663Y-118268571D02*
X86057044Y-118173333D01*
X86057044Y-118173333D02*
X85961805Y-118125714D01*
X85961805Y-118125714D02*
X85866567Y-118125714D01*
X85866567Y-118125714D02*
X85771329Y-118173333D01*
X85771329Y-118173333D02*
X85723710Y-118268571D01*
X85723710Y-118268571D02*
X85723710Y-118506666D01*
X85723710Y-118506666D02*
X85676091Y-118601904D01*
X86057044Y-119506666D02*
X86104663Y-119411428D01*
X86104663Y-119411428D02*
X86104663Y-119220952D01*
X86104663Y-119220952D02*
X86057044Y-119125714D01*
X86057044Y-119125714D02*
X86009424Y-119078095D01*
X86009424Y-119078095D02*
X85914186Y-119030476D01*
X85914186Y-119030476D02*
X85628472Y-119030476D01*
X85628472Y-119030476D02*
X85533234Y-119078095D01*
X85533234Y-119078095D02*
X85485615Y-119125714D01*
X85485615Y-119125714D02*
X85437996Y-119220952D01*
X85437996Y-119220952D02*
X85437996Y-119411428D01*
X85437996Y-119411428D02*
X85485615Y-119506666D01*
X86104663Y-119935238D02*
X85104663Y-119935238D01*
X85723710Y-120030476D02*
X86104663Y-120316190D01*
X85437996Y-120316190D02*
X85818948Y-119935238D01*
X85199901Y-121459048D02*
X85152282Y-121506667D01*
X85152282Y-121506667D02*
X85104663Y-121601905D01*
X85104663Y-121601905D02*
X85104663Y-121840000D01*
X85104663Y-121840000D02*
X85152282Y-121935238D01*
X85152282Y-121935238D02*
X85199901Y-121982857D01*
X85199901Y-121982857D02*
X85295139Y-122030476D01*
X85295139Y-122030476D02*
X85390377Y-122030476D01*
X85390377Y-122030476D02*
X85533234Y-121982857D01*
X85533234Y-121982857D02*
X86104663Y-121411429D01*
X86104663Y-121411429D02*
X86104663Y-122030476D01*
X86104663Y-122363810D02*
X85437996Y-122887619D01*
X85437996Y-122363810D02*
X86104663Y-122887619D01*
X85533234Y-123411429D02*
X85485615Y-123316191D01*
X85485615Y-123316191D02*
X85437996Y-123268572D01*
X85437996Y-123268572D02*
X85342758Y-123220953D01*
X85342758Y-123220953D02*
X85295139Y-123220953D01*
X85295139Y-123220953D02*
X85199901Y-123268572D01*
X85199901Y-123268572D02*
X85152282Y-123316191D01*
X85152282Y-123316191D02*
X85104663Y-123411429D01*
X85104663Y-123411429D02*
X85104663Y-123601905D01*
X85104663Y-123601905D02*
X85152282Y-123697143D01*
X85152282Y-123697143D02*
X85199901Y-123744762D01*
X85199901Y-123744762D02*
X85295139Y-123792381D01*
X85295139Y-123792381D02*
X85342758Y-123792381D01*
X85342758Y-123792381D02*
X85437996Y-123744762D01*
X85437996Y-123744762D02*
X85485615Y-123697143D01*
X85485615Y-123697143D02*
X85533234Y-123601905D01*
X85533234Y-123601905D02*
X85533234Y-123411429D01*
X85533234Y-123411429D02*
X85580853Y-123316191D01*
X85580853Y-123316191D02*
X85628472Y-123268572D01*
X85628472Y-123268572D02*
X85723710Y-123220953D01*
X85723710Y-123220953D02*
X85914186Y-123220953D01*
X85914186Y-123220953D02*
X86009424Y-123268572D01*
X86009424Y-123268572D02*
X86057044Y-123316191D01*
X86057044Y-123316191D02*
X86104663Y-123411429D01*
X86104663Y-123411429D02*
X86104663Y-123601905D01*
X86104663Y-123601905D02*
X86057044Y-123697143D01*
X86057044Y-123697143D02*
X86009424Y-123744762D01*
X86009424Y-123744762D02*
X85914186Y-123792381D01*
X85914186Y-123792381D02*
X85723710Y-123792381D01*
X85723710Y-123792381D02*
X85628472Y-123744762D01*
X85628472Y-123744762D02*
X85580853Y-123697143D01*
X85580853Y-123697143D02*
X85533234Y-123601905D01*
X86104663Y-124220953D02*
X85104663Y-124220953D01*
X86104663Y-124649524D02*
X85580853Y-124649524D01*
X85580853Y-124649524D02*
X85485615Y-124601905D01*
X85485615Y-124601905D02*
X85437996Y-124506667D01*
X85437996Y-124506667D02*
X85437996Y-124363810D01*
X85437996Y-124363810D02*
X85485615Y-124268572D01*
X85485615Y-124268572D02*
X85533234Y-124220953D01*
X86057044Y-125078096D02*
X86104663Y-125173334D01*
X86104663Y-125173334D02*
X86104663Y-125363810D01*
X86104663Y-125363810D02*
X86057044Y-125459048D01*
X86057044Y-125459048D02*
X85961805Y-125506667D01*
X85961805Y-125506667D02*
X85914186Y-125506667D01*
X85914186Y-125506667D02*
X85818948Y-125459048D01*
X85818948Y-125459048D02*
X85771329Y-125363810D01*
X85771329Y-125363810D02*
X85771329Y-125220953D01*
X85771329Y-125220953D02*
X85723710Y-125125715D01*
X85723710Y-125125715D02*
X85628472Y-125078096D01*
X85628472Y-125078096D02*
X85580853Y-125078096D01*
X85580853Y-125078096D02*
X85485615Y-125125715D01*
X85485615Y-125125715D02*
X85437996Y-125220953D01*
X85437996Y-125220953D02*
X85437996Y-125363810D01*
X85437996Y-125363810D02*
X85485615Y-125459048D01*
X38497618Y-139647044D02*
X38354761Y-139694663D01*
X38354761Y-139694663D02*
X38116666Y-139694663D01*
X38116666Y-139694663D02*
X38021428Y-139647044D01*
X38021428Y-139647044D02*
X37973809Y-139599424D01*
X37973809Y-139599424D02*
X37926190Y-139504186D01*
X37926190Y-139504186D02*
X37926190Y-139408948D01*
X37926190Y-139408948D02*
X37973809Y-139313710D01*
X37973809Y-139313710D02*
X38021428Y-139266091D01*
X38021428Y-139266091D02*
X38116666Y-139218472D01*
X38116666Y-139218472D02*
X38307142Y-139170853D01*
X38307142Y-139170853D02*
X38402380Y-139123234D01*
X38402380Y-139123234D02*
X38449999Y-139075615D01*
X38449999Y-139075615D02*
X38497618Y-138980377D01*
X38497618Y-138980377D02*
X38497618Y-138885139D01*
X38497618Y-138885139D02*
X38449999Y-138789901D01*
X38449999Y-138789901D02*
X38402380Y-138742282D01*
X38402380Y-138742282D02*
X38307142Y-138694663D01*
X38307142Y-138694663D02*
X38069047Y-138694663D01*
X38069047Y-138694663D02*
X37926190Y-138742282D01*
X37069047Y-139027996D02*
X37069047Y-140027996D01*
X37069047Y-139647044D02*
X37164285Y-139694663D01*
X37164285Y-139694663D02*
X37354761Y-139694663D01*
X37354761Y-139694663D02*
X37449999Y-139647044D01*
X37449999Y-139647044D02*
X37497618Y-139599424D01*
X37497618Y-139599424D02*
X37545237Y-139504186D01*
X37545237Y-139504186D02*
X37545237Y-139218472D01*
X37545237Y-139218472D02*
X37497618Y-139123234D01*
X37497618Y-139123234D02*
X37449999Y-139075615D01*
X37449999Y-139075615D02*
X37354761Y-139027996D01*
X37354761Y-139027996D02*
X37164285Y-139027996D01*
X37164285Y-139027996D02*
X37069047Y-139075615D01*
X36592856Y-139694663D02*
X36592856Y-139027996D01*
X36592856Y-139218472D02*
X36545237Y-139123234D01*
X36545237Y-139123234D02*
X36497618Y-139075615D01*
X36497618Y-139075615D02*
X36402380Y-139027996D01*
X36402380Y-139027996D02*
X36307142Y-139027996D01*
X39411904Y-133394663D02*
X38840476Y-133394663D01*
X39126190Y-134394663D02*
X39126190Y-133394663D01*
X38507142Y-134394663D02*
X38507142Y-133394663D01*
X38507142Y-133394663D02*
X38126190Y-133394663D01*
X38126190Y-133394663D02*
X38030952Y-133442282D01*
X38030952Y-133442282D02*
X37983333Y-133489901D01*
X37983333Y-133489901D02*
X37935714Y-133585139D01*
X37935714Y-133585139D02*
X37935714Y-133727996D01*
X37935714Y-133727996D02*
X37983333Y-133823234D01*
X37983333Y-133823234D02*
X38030952Y-133870853D01*
X38030952Y-133870853D02*
X38126190Y-133918472D01*
X38126190Y-133918472D02*
X38507142Y-133918472D01*
X37554761Y-133489901D02*
X37507142Y-133442282D01*
X37507142Y-133442282D02*
X37411904Y-133394663D01*
X37411904Y-133394663D02*
X37173809Y-133394663D01*
X37173809Y-133394663D02*
X37078571Y-133442282D01*
X37078571Y-133442282D02*
X37030952Y-133489901D01*
X37030952Y-133489901D02*
X36983333Y-133585139D01*
X36983333Y-133585139D02*
X36983333Y-133680377D01*
X36983333Y-133680377D02*
X37030952Y-133823234D01*
X37030952Y-133823234D02*
X37602380Y-134394663D01*
X37602380Y-134394663D02*
X36983333Y-134394663D01*
X29657044Y-107635238D02*
X29704663Y-107778095D01*
X29704663Y-107778095D02*
X29704663Y-108016190D01*
X29704663Y-108016190D02*
X29657044Y-108111428D01*
X29657044Y-108111428D02*
X29609424Y-108159047D01*
X29609424Y-108159047D02*
X29514186Y-108206666D01*
X29514186Y-108206666D02*
X29418948Y-108206666D01*
X29418948Y-108206666D02*
X29323710Y-108159047D01*
X29323710Y-108159047D02*
X29276091Y-108111428D01*
X29276091Y-108111428D02*
X29228472Y-108016190D01*
X29228472Y-108016190D02*
X29180853Y-107825714D01*
X29180853Y-107825714D02*
X29133234Y-107730476D01*
X29133234Y-107730476D02*
X29085615Y-107682857D01*
X29085615Y-107682857D02*
X28990377Y-107635238D01*
X28990377Y-107635238D02*
X28895139Y-107635238D01*
X28895139Y-107635238D02*
X28799901Y-107682857D01*
X28799901Y-107682857D02*
X28752282Y-107730476D01*
X28752282Y-107730476D02*
X28704663Y-107825714D01*
X28704663Y-107825714D02*
X28704663Y-108063809D01*
X28704663Y-108063809D02*
X28752282Y-108206666D01*
X29704663Y-108635238D02*
X29037996Y-108635238D01*
X28704663Y-108635238D02*
X28752282Y-108587619D01*
X28752282Y-108587619D02*
X28799901Y-108635238D01*
X28799901Y-108635238D02*
X28752282Y-108682857D01*
X28752282Y-108682857D02*
X28704663Y-108635238D01*
X28704663Y-108635238D02*
X28799901Y-108635238D01*
X29037996Y-109111428D02*
X29704663Y-109111428D01*
X29133234Y-109111428D02*
X29085615Y-109159047D01*
X29085615Y-109159047D02*
X29037996Y-109254285D01*
X29037996Y-109254285D02*
X29037996Y-109397142D01*
X29037996Y-109397142D02*
X29085615Y-109492380D01*
X29085615Y-109492380D02*
X29180853Y-109539999D01*
X29180853Y-109539999D02*
X29704663Y-109539999D01*
X29657044Y-110397142D02*
X29704663Y-110301904D01*
X29704663Y-110301904D02*
X29704663Y-110111428D01*
X29704663Y-110111428D02*
X29657044Y-110016190D01*
X29657044Y-110016190D02*
X29561805Y-109968571D01*
X29561805Y-109968571D02*
X29180853Y-109968571D01*
X29180853Y-109968571D02*
X29085615Y-110016190D01*
X29085615Y-110016190D02*
X29037996Y-110111428D01*
X29037996Y-110111428D02*
X29037996Y-110301904D01*
X29037996Y-110301904D02*
X29085615Y-110397142D01*
X29085615Y-110397142D02*
X29180853Y-110444761D01*
X29180853Y-110444761D02*
X29276091Y-110444761D01*
X29276091Y-110444761D02*
X29371329Y-109968571D01*
X34004663Y-108478095D02*
X34004663Y-109049523D01*
X35004663Y-108763809D02*
X34004663Y-108763809D01*
X35004663Y-109382857D02*
X34004663Y-109382857D01*
X34004663Y-109382857D02*
X34004663Y-109763809D01*
X34004663Y-109763809D02*
X34052282Y-109859047D01*
X34052282Y-109859047D02*
X34099901Y-109906666D01*
X34099901Y-109906666D02*
X34195139Y-109954285D01*
X34195139Y-109954285D02*
X34337996Y-109954285D01*
X34337996Y-109954285D02*
X34433234Y-109906666D01*
X34433234Y-109906666D02*
X34480853Y-109859047D01*
X34480853Y-109859047D02*
X34528472Y-109763809D01*
X34528472Y-109763809D02*
X34528472Y-109382857D01*
X34004663Y-110859047D02*
X34004663Y-110382857D01*
X34004663Y-110382857D02*
X34480853Y-110335238D01*
X34480853Y-110335238D02*
X34433234Y-110382857D01*
X34433234Y-110382857D02*
X34385615Y-110478095D01*
X34385615Y-110478095D02*
X34385615Y-110716190D01*
X34385615Y-110716190D02*
X34433234Y-110811428D01*
X34433234Y-110811428D02*
X34480853Y-110859047D01*
X34480853Y-110859047D02*
X34576091Y-110906666D01*
X34576091Y-110906666D02*
X34814186Y-110906666D01*
X34814186Y-110906666D02*
X34909424Y-110859047D01*
X34909424Y-110859047D02*
X34957044Y-110811428D01*
X34957044Y-110811428D02*
X35004663Y-110716190D01*
X35004663Y-110716190D02*
X35004663Y-110478095D01*
X35004663Y-110478095D02*
X34957044Y-110382857D01*
X34957044Y-110382857D02*
X34909424Y-110335238D01*
X50083332Y-138694663D02*
X49511904Y-138694663D01*
X49797618Y-139694663D02*
X49797618Y-138694663D01*
X49178570Y-139694663D02*
X49178570Y-139027996D01*
X49178570Y-139218472D02*
X49130951Y-139123234D01*
X49130951Y-139123234D02*
X49083332Y-139075615D01*
X49083332Y-139075615D02*
X48988094Y-139027996D01*
X48988094Y-139027996D02*
X48892856Y-139027996D01*
X48559522Y-139694663D02*
X48559522Y-139027996D01*
X48559522Y-138694663D02*
X48607141Y-138742282D01*
X48607141Y-138742282D02*
X48559522Y-138789901D01*
X48559522Y-138789901D02*
X48511903Y-138742282D01*
X48511903Y-138742282D02*
X48559522Y-138694663D01*
X48559522Y-138694663D02*
X48559522Y-138789901D01*
X51211904Y-133394663D02*
X50640476Y-133394663D01*
X50926190Y-134394663D02*
X50926190Y-133394663D01*
X50307142Y-134394663D02*
X50307142Y-133394663D01*
X50307142Y-133394663D02*
X49926190Y-133394663D01*
X49926190Y-133394663D02*
X49830952Y-133442282D01*
X49830952Y-133442282D02*
X49783333Y-133489901D01*
X49783333Y-133489901D02*
X49735714Y-133585139D01*
X49735714Y-133585139D02*
X49735714Y-133727996D01*
X49735714Y-133727996D02*
X49783333Y-133823234D01*
X49783333Y-133823234D02*
X49830952Y-133870853D01*
X49830952Y-133870853D02*
X49926190Y-133918472D01*
X49926190Y-133918472D02*
X50307142Y-133918472D01*
X48878571Y-133727996D02*
X48878571Y-134394663D01*
X49116666Y-133347044D02*
X49354761Y-134061329D01*
X49354761Y-134061329D02*
X48735714Y-134061329D01*
X68930952Y-32313710D02*
X68169048Y-32313710D01*
X68550000Y-32694663D02*
X68550000Y-31932758D01*
X67216667Y-31694663D02*
X67692857Y-31694663D01*
X67692857Y-31694663D02*
X67740476Y-32170853D01*
X67740476Y-32170853D02*
X67692857Y-32123234D01*
X67692857Y-32123234D02*
X67597619Y-32075615D01*
X67597619Y-32075615D02*
X67359524Y-32075615D01*
X67359524Y-32075615D02*
X67264286Y-32123234D01*
X67264286Y-32123234D02*
X67216667Y-32170853D01*
X67216667Y-32170853D02*
X67169048Y-32266091D01*
X67169048Y-32266091D02*
X67169048Y-32504186D01*
X67169048Y-32504186D02*
X67216667Y-32599424D01*
X67216667Y-32599424D02*
X67264286Y-32647044D01*
X67264286Y-32647044D02*
X67359524Y-32694663D01*
X67359524Y-32694663D02*
X67597619Y-32694663D01*
X67597619Y-32694663D02*
X67692857Y-32647044D01*
X67692857Y-32647044D02*
X67740476Y-32599424D01*
X66883333Y-31694663D02*
X66550000Y-32694663D01*
X66550000Y-32694663D02*
X66216667Y-31694663D01*
X64550000Y-32694663D02*
X64883333Y-32218472D01*
X65121428Y-32694663D02*
X65121428Y-31694663D01*
X65121428Y-31694663D02*
X64740476Y-31694663D01*
X64740476Y-31694663D02*
X64645238Y-31742282D01*
X64645238Y-31742282D02*
X64597619Y-31789901D01*
X64597619Y-31789901D02*
X64550000Y-31885139D01*
X64550000Y-31885139D02*
X64550000Y-32027996D01*
X64550000Y-32027996D02*
X64597619Y-32123234D01*
X64597619Y-32123234D02*
X64645238Y-32170853D01*
X64645238Y-32170853D02*
X64740476Y-32218472D01*
X64740476Y-32218472D02*
X65121428Y-32218472D01*
X63740476Y-32647044D02*
X63835714Y-32694663D01*
X63835714Y-32694663D02*
X64026190Y-32694663D01*
X64026190Y-32694663D02*
X64121428Y-32647044D01*
X64121428Y-32647044D02*
X64169047Y-32551805D01*
X64169047Y-32551805D02*
X64169047Y-32170853D01*
X64169047Y-32170853D02*
X64121428Y-32075615D01*
X64121428Y-32075615D02*
X64026190Y-32027996D01*
X64026190Y-32027996D02*
X63835714Y-32027996D01*
X63835714Y-32027996D02*
X63740476Y-32075615D01*
X63740476Y-32075615D02*
X63692857Y-32170853D01*
X63692857Y-32170853D02*
X63692857Y-32266091D01*
X63692857Y-32266091D02*
X64169047Y-32361329D01*
X63407142Y-32027996D02*
X63026190Y-32027996D01*
X63264285Y-32694663D02*
X63264285Y-31837520D01*
X63264285Y-31837520D02*
X63216666Y-31742282D01*
X63216666Y-31742282D02*
X63121428Y-31694663D01*
X63121428Y-31694663D02*
X63026190Y-31694663D01*
X66611904Y-36994663D02*
X66040476Y-36994663D01*
X66326190Y-37994663D02*
X66326190Y-36994663D01*
X65707142Y-37994663D02*
X65707142Y-36994663D01*
X65707142Y-36994663D02*
X65326190Y-36994663D01*
X65326190Y-36994663D02*
X65230952Y-37042282D01*
X65230952Y-37042282D02*
X65183333Y-37089901D01*
X65183333Y-37089901D02*
X65135714Y-37185139D01*
X65135714Y-37185139D02*
X65135714Y-37327996D01*
X65135714Y-37327996D02*
X65183333Y-37423234D01*
X65183333Y-37423234D02*
X65230952Y-37470853D01*
X65230952Y-37470853D02*
X65326190Y-37518472D01*
X65326190Y-37518472D02*
X65707142Y-37518472D01*
X64183333Y-37994663D02*
X64754761Y-37994663D01*
X64469047Y-37994663D02*
X64469047Y-36994663D01*
X64469047Y-36994663D02*
X64564285Y-37137520D01*
X64564285Y-37137520D02*
X64659523Y-37232758D01*
X64659523Y-37232758D02*
X64754761Y-37280377D01*
X92413184Y-69705026D02*
X91413184Y-69705026D01*
X92413184Y-70181216D02*
X91413184Y-70181216D01*
X91413184Y-70181216D02*
X92413184Y-70752644D01*
X92413184Y-70752644D02*
X91413184Y-70752644D01*
X92413184Y-72514549D02*
X92413184Y-71943121D01*
X92413184Y-72228835D02*
X91413184Y-72228835D01*
X91413184Y-72228835D02*
X91556041Y-72133597D01*
X91556041Y-72133597D02*
X91651279Y-72038359D01*
X91651279Y-72038359D02*
X91698898Y-71943121D01*
X92413184Y-72847883D02*
X91746517Y-73371692D01*
X91746517Y-72847883D02*
X92413184Y-73371692D01*
X91413184Y-74181216D02*
X91413184Y-73990740D01*
X91413184Y-73990740D02*
X91460803Y-73895502D01*
X91460803Y-73895502D02*
X91508422Y-73847883D01*
X91508422Y-73847883D02*
X91651279Y-73752645D01*
X91651279Y-73752645D02*
X91841755Y-73705026D01*
X91841755Y-73705026D02*
X92222707Y-73705026D01*
X92222707Y-73705026D02*
X92317945Y-73752645D01*
X92317945Y-73752645D02*
X92365565Y-73800264D01*
X92365565Y-73800264D02*
X92413184Y-73895502D01*
X92413184Y-73895502D02*
X92413184Y-74085978D01*
X92413184Y-74085978D02*
X92365565Y-74181216D01*
X92365565Y-74181216D02*
X92317945Y-74228835D01*
X92317945Y-74228835D02*
X92222707Y-74276454D01*
X92222707Y-74276454D02*
X91984612Y-74276454D01*
X91984612Y-74276454D02*
X91889374Y-74228835D01*
X91889374Y-74228835D02*
X91841755Y-74181216D01*
X91841755Y-74181216D02*
X91794136Y-74085978D01*
X91794136Y-74085978D02*
X91794136Y-73895502D01*
X91794136Y-73895502D02*
X91841755Y-73800264D01*
X91841755Y-73800264D02*
X91889374Y-73752645D01*
X91889374Y-73752645D02*
X91984612Y-73705026D01*
X92413184Y-74705026D02*
X91413184Y-74705026D01*
X92413184Y-75133597D02*
X91889374Y-75133597D01*
X91889374Y-75133597D02*
X91794136Y-75085978D01*
X91794136Y-75085978D02*
X91746517Y-74990740D01*
X91746517Y-74990740D02*
X91746517Y-74847883D01*
X91746517Y-74847883D02*
X91794136Y-74752645D01*
X91794136Y-74752645D02*
X91841755Y-74705026D01*
X94053184Y-71299788D02*
X94767469Y-71299788D01*
X94767469Y-71299788D02*
X94910326Y-71252169D01*
X94910326Y-71252169D02*
X95005565Y-71156931D01*
X95005565Y-71156931D02*
X95053184Y-71014074D01*
X95053184Y-71014074D02*
X95053184Y-70918836D01*
X95053184Y-72299788D02*
X95053184Y-71728360D01*
X95053184Y-72014074D02*
X94053184Y-72014074D01*
X94053184Y-72014074D02*
X94196041Y-71918836D01*
X94196041Y-71918836D02*
X94291279Y-71823598D01*
X94291279Y-71823598D02*
X94338898Y-71728360D01*
X94053184Y-72918836D02*
X94053184Y-73014074D01*
X94053184Y-73014074D02*
X94100803Y-73109312D01*
X94100803Y-73109312D02*
X94148422Y-73156931D01*
X94148422Y-73156931D02*
X94243660Y-73204550D01*
X94243660Y-73204550D02*
X94434136Y-73252169D01*
X94434136Y-73252169D02*
X94672231Y-73252169D01*
X94672231Y-73252169D02*
X94862707Y-73204550D01*
X94862707Y-73204550D02*
X94957945Y-73156931D01*
X94957945Y-73156931D02*
X95005565Y-73109312D01*
X95005565Y-73109312D02*
X95053184Y-73014074D01*
X95053184Y-73014074D02*
X95053184Y-72918836D01*
X95053184Y-72918836D02*
X95005565Y-72823598D01*
X95005565Y-72823598D02*
X94957945Y-72775979D01*
X94957945Y-72775979D02*
X94862707Y-72728360D01*
X94862707Y-72728360D02*
X94672231Y-72680741D01*
X94672231Y-72680741D02*
X94434136Y-72680741D01*
X94434136Y-72680741D02*
X94243660Y-72728360D01*
X94243660Y-72728360D02*
X94148422Y-72775979D01*
X94148422Y-72775979D02*
X94100803Y-72823598D01*
X94100803Y-72823598D02*
X94053184Y-72918836D01*
X91613184Y-46252645D02*
X91613184Y-46443121D01*
X91613184Y-46443121D02*
X91660803Y-46538359D01*
X91660803Y-46538359D02*
X91756041Y-46633597D01*
X91756041Y-46633597D02*
X91946517Y-46681216D01*
X91946517Y-46681216D02*
X92279850Y-46681216D01*
X92279850Y-46681216D02*
X92470326Y-46633597D01*
X92470326Y-46633597D02*
X92565565Y-46538359D01*
X92565565Y-46538359D02*
X92613184Y-46443121D01*
X92613184Y-46443121D02*
X92613184Y-46252645D01*
X92613184Y-46252645D02*
X92565565Y-46157407D01*
X92565565Y-46157407D02*
X92470326Y-46062169D01*
X92470326Y-46062169D02*
X92279850Y-46014550D01*
X92279850Y-46014550D02*
X91946517Y-46014550D01*
X91946517Y-46014550D02*
X91756041Y-46062169D01*
X91756041Y-46062169D02*
X91660803Y-46157407D01*
X91660803Y-46157407D02*
X91613184Y-46252645D01*
X92517945Y-47681216D02*
X92565565Y-47633597D01*
X92565565Y-47633597D02*
X92613184Y-47490740D01*
X92613184Y-47490740D02*
X92613184Y-47395502D01*
X92613184Y-47395502D02*
X92565565Y-47252645D01*
X92565565Y-47252645D02*
X92470326Y-47157407D01*
X92470326Y-47157407D02*
X92375088Y-47109788D01*
X92375088Y-47109788D02*
X92184612Y-47062169D01*
X92184612Y-47062169D02*
X92041755Y-47062169D01*
X92041755Y-47062169D02*
X91851279Y-47109788D01*
X91851279Y-47109788D02*
X91756041Y-47157407D01*
X91756041Y-47157407D02*
X91660803Y-47252645D01*
X91660803Y-47252645D02*
X91613184Y-47395502D01*
X91613184Y-47395502D02*
X91613184Y-47490740D01*
X91613184Y-47490740D02*
X91660803Y-47633597D01*
X91660803Y-47633597D02*
X91708422Y-47681216D01*
X91613184Y-47966931D02*
X91613184Y-48538359D01*
X92613184Y-48252645D02*
X91613184Y-48252645D01*
X92613184Y-50157407D02*
X92613184Y-49585979D01*
X92613184Y-49871693D02*
X91613184Y-49871693D01*
X91613184Y-49871693D02*
X91756041Y-49776455D01*
X91756041Y-49776455D02*
X91851279Y-49681217D01*
X91851279Y-49681217D02*
X91898898Y-49585979D01*
X92613184Y-50490741D02*
X91946517Y-51014550D01*
X91946517Y-50490741D02*
X92613184Y-51014550D01*
X91613184Y-51824074D02*
X91613184Y-51633598D01*
X91613184Y-51633598D02*
X91660803Y-51538360D01*
X91660803Y-51538360D02*
X91708422Y-51490741D01*
X91708422Y-51490741D02*
X91851279Y-51395503D01*
X91851279Y-51395503D02*
X92041755Y-51347884D01*
X92041755Y-51347884D02*
X92422707Y-51347884D01*
X92422707Y-51347884D02*
X92517945Y-51395503D01*
X92517945Y-51395503D02*
X92565565Y-51443122D01*
X92565565Y-51443122D02*
X92613184Y-51538360D01*
X92613184Y-51538360D02*
X92613184Y-51728836D01*
X92613184Y-51728836D02*
X92565565Y-51824074D01*
X92565565Y-51824074D02*
X92517945Y-51871693D01*
X92517945Y-51871693D02*
X92422707Y-51919312D01*
X92422707Y-51919312D02*
X92184612Y-51919312D01*
X92184612Y-51919312D02*
X92089374Y-51871693D01*
X92089374Y-51871693D02*
X92041755Y-51824074D01*
X92041755Y-51824074D02*
X91994136Y-51728836D01*
X91994136Y-51728836D02*
X91994136Y-51538360D01*
X91994136Y-51538360D02*
X92041755Y-51443122D01*
X92041755Y-51443122D02*
X92089374Y-51395503D01*
X92089374Y-51395503D02*
X92184612Y-51347884D01*
X92613184Y-52347884D02*
X91613184Y-52347884D01*
X92613184Y-52776455D02*
X92089374Y-52776455D01*
X92089374Y-52776455D02*
X91994136Y-52728836D01*
X91994136Y-52728836D02*
X91946517Y-52633598D01*
X91946517Y-52633598D02*
X91946517Y-52490741D01*
X91946517Y-52490741D02*
X91994136Y-52395503D01*
X91994136Y-52395503D02*
X92041755Y-52347884D01*
X94013184Y-48759788D02*
X94727469Y-48759788D01*
X94727469Y-48759788D02*
X94870326Y-48712169D01*
X94870326Y-48712169D02*
X94965565Y-48616931D01*
X94965565Y-48616931D02*
X95013184Y-48474074D01*
X95013184Y-48474074D02*
X95013184Y-48378836D01*
X94108422Y-49188360D02*
X94060803Y-49235979D01*
X94060803Y-49235979D02*
X94013184Y-49331217D01*
X94013184Y-49331217D02*
X94013184Y-49569312D01*
X94013184Y-49569312D02*
X94060803Y-49664550D01*
X94060803Y-49664550D02*
X94108422Y-49712169D01*
X94108422Y-49712169D02*
X94203660Y-49759788D01*
X94203660Y-49759788D02*
X94298898Y-49759788D01*
X94298898Y-49759788D02*
X94441755Y-49712169D01*
X94441755Y-49712169D02*
X95013184Y-49140741D01*
X95013184Y-49140741D02*
X95013184Y-49759788D01*
X94108422Y-50140741D02*
X94060803Y-50188360D01*
X94060803Y-50188360D02*
X94013184Y-50283598D01*
X94013184Y-50283598D02*
X94013184Y-50521693D01*
X94013184Y-50521693D02*
X94060803Y-50616931D01*
X94060803Y-50616931D02*
X94108422Y-50664550D01*
X94108422Y-50664550D02*
X94203660Y-50712169D01*
X94203660Y-50712169D02*
X94298898Y-50712169D01*
X94298898Y-50712169D02*
X94441755Y-50664550D01*
X94441755Y-50664550D02*
X95013184Y-50093122D01*
X95013184Y-50093122D02*
X95013184Y-50712169D01*
X148717945Y-47109787D02*
X148765565Y-47062168D01*
X148765565Y-47062168D02*
X148813184Y-46919311D01*
X148813184Y-46919311D02*
X148813184Y-46824073D01*
X148813184Y-46824073D02*
X148765565Y-46681216D01*
X148765565Y-46681216D02*
X148670326Y-46585978D01*
X148670326Y-46585978D02*
X148575088Y-46538359D01*
X148575088Y-46538359D02*
X148384612Y-46490740D01*
X148384612Y-46490740D02*
X148241755Y-46490740D01*
X148241755Y-46490740D02*
X148051279Y-46538359D01*
X148051279Y-46538359D02*
X147956041Y-46585978D01*
X147956041Y-46585978D02*
X147860803Y-46681216D01*
X147860803Y-46681216D02*
X147813184Y-46824073D01*
X147813184Y-46824073D02*
X147813184Y-46919311D01*
X147813184Y-46919311D02*
X147860803Y-47062168D01*
X147860803Y-47062168D02*
X147908422Y-47109787D01*
X147813184Y-47395502D02*
X148813184Y-47728835D01*
X148813184Y-47728835D02*
X147813184Y-48062168D01*
X148813184Y-49681216D02*
X148813184Y-49109788D01*
X148813184Y-49395502D02*
X147813184Y-49395502D01*
X147813184Y-49395502D02*
X147956041Y-49300264D01*
X147956041Y-49300264D02*
X148051279Y-49205026D01*
X148051279Y-49205026D02*
X148098898Y-49109788D01*
X148813184Y-50014550D02*
X148146517Y-50538359D01*
X148146517Y-50014550D02*
X148813184Y-50538359D01*
X147813184Y-51347883D02*
X147813184Y-51157407D01*
X147813184Y-51157407D02*
X147860803Y-51062169D01*
X147860803Y-51062169D02*
X147908422Y-51014550D01*
X147908422Y-51014550D02*
X148051279Y-50919312D01*
X148051279Y-50919312D02*
X148241755Y-50871693D01*
X148241755Y-50871693D02*
X148622707Y-50871693D01*
X148622707Y-50871693D02*
X148717945Y-50919312D01*
X148717945Y-50919312D02*
X148765565Y-50966931D01*
X148765565Y-50966931D02*
X148813184Y-51062169D01*
X148813184Y-51062169D02*
X148813184Y-51252645D01*
X148813184Y-51252645D02*
X148765565Y-51347883D01*
X148765565Y-51347883D02*
X148717945Y-51395502D01*
X148717945Y-51395502D02*
X148622707Y-51443121D01*
X148622707Y-51443121D02*
X148384612Y-51443121D01*
X148384612Y-51443121D02*
X148289374Y-51395502D01*
X148289374Y-51395502D02*
X148241755Y-51347883D01*
X148241755Y-51347883D02*
X148194136Y-51252645D01*
X148194136Y-51252645D02*
X148194136Y-51062169D01*
X148194136Y-51062169D02*
X148241755Y-50966931D01*
X148241755Y-50966931D02*
X148289374Y-50919312D01*
X148289374Y-50919312D02*
X148384612Y-50871693D01*
X148813184Y-51871693D02*
X147813184Y-51871693D01*
X148813184Y-52300264D02*
X148289374Y-52300264D01*
X148289374Y-52300264D02*
X148194136Y-52252645D01*
X148194136Y-52252645D02*
X148146517Y-52157407D01*
X148146517Y-52157407D02*
X148146517Y-52014550D01*
X148146517Y-52014550D02*
X148194136Y-51919312D01*
X148194136Y-51919312D02*
X148241755Y-51871693D01*
X145013184Y-48759788D02*
X145727469Y-48759788D01*
X145727469Y-48759788D02*
X145870326Y-48712169D01*
X145870326Y-48712169D02*
X145965565Y-48616931D01*
X145965565Y-48616931D02*
X146013184Y-48474074D01*
X146013184Y-48474074D02*
X146013184Y-48378836D01*
X146013184Y-49759788D02*
X146013184Y-49188360D01*
X146013184Y-49474074D02*
X145013184Y-49474074D01*
X145013184Y-49474074D02*
X145156041Y-49378836D01*
X145156041Y-49378836D02*
X145251279Y-49283598D01*
X145251279Y-49283598D02*
X145298898Y-49188360D01*
X146013184Y-50235979D02*
X146013184Y-50426455D01*
X146013184Y-50426455D02*
X145965565Y-50521693D01*
X145965565Y-50521693D02*
X145917945Y-50569312D01*
X145917945Y-50569312D02*
X145775088Y-50664550D01*
X145775088Y-50664550D02*
X145584612Y-50712169D01*
X145584612Y-50712169D02*
X145203660Y-50712169D01*
X145203660Y-50712169D02*
X145108422Y-50664550D01*
X145108422Y-50664550D02*
X145060803Y-50616931D01*
X145060803Y-50616931D02*
X145013184Y-50521693D01*
X145013184Y-50521693D02*
X145013184Y-50331217D01*
X145013184Y-50331217D02*
X145060803Y-50235979D01*
X145060803Y-50235979D02*
X145108422Y-50188360D01*
X145108422Y-50188360D02*
X145203660Y-50140741D01*
X145203660Y-50140741D02*
X145441755Y-50140741D01*
X145441755Y-50140741D02*
X145536993Y-50188360D01*
X145536993Y-50188360D02*
X145584612Y-50235979D01*
X145584612Y-50235979D02*
X145632231Y-50331217D01*
X145632231Y-50331217D02*
X145632231Y-50521693D01*
X145632231Y-50521693D02*
X145584612Y-50616931D01*
X145584612Y-50616931D02*
X145536993Y-50664550D01*
X145536993Y-50664550D02*
X145441755Y-50712169D01*
X123991854Y-139673975D02*
X124468044Y-139673975D01*
X124468044Y-139673975D02*
X124468044Y-138673975D01*
X123658520Y-139150165D02*
X123325187Y-139150165D01*
X123182330Y-139673975D02*
X123658520Y-139673975D01*
X123658520Y-139673975D02*
X123658520Y-138673975D01*
X123658520Y-138673975D02*
X123182330Y-138673975D01*
X122753758Y-139673975D02*
X122753758Y-138673975D01*
X122753758Y-138673975D02*
X122515663Y-138673975D01*
X122515663Y-138673975D02*
X122372806Y-138721594D01*
X122372806Y-138721594D02*
X122277568Y-138816832D01*
X122277568Y-138816832D02*
X122229949Y-138912070D01*
X122229949Y-138912070D02*
X122182330Y-139102546D01*
X122182330Y-139102546D02*
X122182330Y-139245403D01*
X122182330Y-139245403D02*
X122229949Y-139435879D01*
X122229949Y-139435879D02*
X122277568Y-139531117D01*
X122277568Y-139531117D02*
X122372806Y-139626356D01*
X122372806Y-139626356D02*
X122515663Y-139673975D01*
X122515663Y-139673975D02*
X122753758Y-139673975D01*
X120468044Y-139673975D02*
X121039472Y-139673975D01*
X120753758Y-139673975D02*
X120753758Y-138673975D01*
X120753758Y-138673975D02*
X120848996Y-138816832D01*
X120848996Y-138816832D02*
X120944234Y-138912070D01*
X120944234Y-138912070D02*
X121039472Y-138959689D01*
X120134710Y-139673975D02*
X119610901Y-139007308D01*
X120134710Y-139007308D02*
X119610901Y-139673975D01*
X119277567Y-138769213D02*
X119229948Y-138721594D01*
X119229948Y-138721594D02*
X119134710Y-138673975D01*
X119134710Y-138673975D02*
X118896615Y-138673975D01*
X118896615Y-138673975D02*
X118801377Y-138721594D01*
X118801377Y-138721594D02*
X118753758Y-138769213D01*
X118753758Y-138769213D02*
X118706139Y-138864451D01*
X118706139Y-138864451D02*
X118706139Y-138959689D01*
X118706139Y-138959689D02*
X118753758Y-139102546D01*
X118753758Y-139102546D02*
X119325186Y-139673975D01*
X119325186Y-139673975D02*
X118706139Y-139673975D01*
X118277567Y-139673975D02*
X118277567Y-138673975D01*
X117848996Y-139673975D02*
X117848996Y-139150165D01*
X117848996Y-139150165D02*
X117896615Y-139054927D01*
X117896615Y-139054927D02*
X117991853Y-139007308D01*
X117991853Y-139007308D02*
X118134710Y-139007308D01*
X118134710Y-139007308D02*
X118229948Y-139054927D01*
X118229948Y-139054927D02*
X118277567Y-139102546D01*
X122098044Y-135673975D02*
X122098044Y-136388260D01*
X122098044Y-136388260D02*
X122145663Y-136531117D01*
X122145663Y-136531117D02*
X122240901Y-136626356D01*
X122240901Y-136626356D02*
X122383758Y-136673975D01*
X122383758Y-136673975D02*
X122478996Y-136673975D01*
X121669472Y-135769213D02*
X121621853Y-135721594D01*
X121621853Y-135721594D02*
X121526615Y-135673975D01*
X121526615Y-135673975D02*
X121288520Y-135673975D01*
X121288520Y-135673975D02*
X121193282Y-135721594D01*
X121193282Y-135721594D02*
X121145663Y-135769213D01*
X121145663Y-135769213D02*
X121098044Y-135864451D01*
X121098044Y-135864451D02*
X121098044Y-135959689D01*
X121098044Y-135959689D02*
X121145663Y-136102546D01*
X121145663Y-136102546D02*
X121717091Y-136673975D01*
X121717091Y-136673975D02*
X121098044Y-136673975D01*
X120145663Y-136673975D02*
X120717091Y-136673975D01*
X120431377Y-136673975D02*
X120431377Y-135673975D01*
X120431377Y-135673975D02*
X120526615Y-135816832D01*
X120526615Y-135816832D02*
X120621853Y-135912070D01*
X120621853Y-135912070D02*
X120717091Y-135959689D01*
X147813184Y-95028835D02*
X147813184Y-95219311D01*
X147813184Y-95219311D02*
X147860803Y-95314549D01*
X147860803Y-95314549D02*
X147956041Y-95409787D01*
X147956041Y-95409787D02*
X148146517Y-95457406D01*
X148146517Y-95457406D02*
X148479850Y-95457406D01*
X148479850Y-95457406D02*
X148670326Y-95409787D01*
X148670326Y-95409787D02*
X148765565Y-95314549D01*
X148765565Y-95314549D02*
X148813184Y-95219311D01*
X148813184Y-95219311D02*
X148813184Y-95028835D01*
X148813184Y-95028835D02*
X148765565Y-94933597D01*
X148765565Y-94933597D02*
X148670326Y-94838359D01*
X148670326Y-94838359D02*
X148479850Y-94790740D01*
X148479850Y-94790740D02*
X148146517Y-94790740D01*
X148146517Y-94790740D02*
X147956041Y-94838359D01*
X147956041Y-94838359D02*
X147860803Y-94933597D01*
X147860803Y-94933597D02*
X147813184Y-95028835D01*
X147813184Y-95885978D02*
X148622707Y-95885978D01*
X148622707Y-95885978D02*
X148717945Y-95933597D01*
X148717945Y-95933597D02*
X148765565Y-95981216D01*
X148765565Y-95981216D02*
X148813184Y-96076454D01*
X148813184Y-96076454D02*
X148813184Y-96266930D01*
X148813184Y-96266930D02*
X148765565Y-96362168D01*
X148765565Y-96362168D02*
X148717945Y-96409787D01*
X148717945Y-96409787D02*
X148622707Y-96457406D01*
X148622707Y-96457406D02*
X147813184Y-96457406D01*
X147813184Y-96790740D02*
X147813184Y-97362168D01*
X148813184Y-97076454D02*
X147813184Y-97076454D01*
X148813184Y-98981216D02*
X148813184Y-98409788D01*
X148813184Y-98695502D02*
X147813184Y-98695502D01*
X147813184Y-98695502D02*
X147956041Y-98600264D01*
X147956041Y-98600264D02*
X148051279Y-98505026D01*
X148051279Y-98505026D02*
X148098898Y-98409788D01*
X148813184Y-99314550D02*
X148146517Y-99838359D01*
X148146517Y-99314550D02*
X148813184Y-99838359D01*
X148146517Y-100647883D02*
X148813184Y-100647883D01*
X147765565Y-100409788D02*
X148479850Y-100171693D01*
X148479850Y-100171693D02*
X148479850Y-100790740D01*
X148813184Y-101171693D02*
X147813184Y-101171693D01*
X148813184Y-101600264D02*
X148289374Y-101600264D01*
X148289374Y-101600264D02*
X148194136Y-101552645D01*
X148194136Y-101552645D02*
X148146517Y-101457407D01*
X148146517Y-101457407D02*
X148146517Y-101314550D01*
X148146517Y-101314550D02*
X148194136Y-101219312D01*
X148194136Y-101219312D02*
X148241755Y-101171693D01*
X145013184Y-97695978D02*
X145727469Y-97695978D01*
X145727469Y-97695978D02*
X145870326Y-97648359D01*
X145870326Y-97648359D02*
X145965565Y-97553121D01*
X145965565Y-97553121D02*
X146013184Y-97410264D01*
X146013184Y-97410264D02*
X146013184Y-97315026D01*
X145013184Y-98076931D02*
X145013184Y-98695978D01*
X145013184Y-98695978D02*
X145394136Y-98362645D01*
X145394136Y-98362645D02*
X145394136Y-98505502D01*
X145394136Y-98505502D02*
X145441755Y-98600740D01*
X145441755Y-98600740D02*
X145489374Y-98648359D01*
X145489374Y-98648359D02*
X145584612Y-98695978D01*
X145584612Y-98695978D02*
X145822707Y-98695978D01*
X145822707Y-98695978D02*
X145917945Y-98648359D01*
X145917945Y-98648359D02*
X145965565Y-98600740D01*
X145965565Y-98600740D02*
X146013184Y-98505502D01*
X146013184Y-98505502D02*
X146013184Y-98219788D01*
X146013184Y-98219788D02*
X145965565Y-98124550D01*
X145965565Y-98124550D02*
X145917945Y-98076931D01*
X72142857Y-138742282D02*
X72238095Y-138694663D01*
X72238095Y-138694663D02*
X72380952Y-138694663D01*
X72380952Y-138694663D02*
X72523809Y-138742282D01*
X72523809Y-138742282D02*
X72619047Y-138837520D01*
X72619047Y-138837520D02*
X72666666Y-138932758D01*
X72666666Y-138932758D02*
X72714285Y-139123234D01*
X72714285Y-139123234D02*
X72714285Y-139266091D01*
X72714285Y-139266091D02*
X72666666Y-139456567D01*
X72666666Y-139456567D02*
X72619047Y-139551805D01*
X72619047Y-139551805D02*
X72523809Y-139647044D01*
X72523809Y-139647044D02*
X72380952Y-139694663D01*
X72380952Y-139694663D02*
X72285714Y-139694663D01*
X72285714Y-139694663D02*
X72142857Y-139647044D01*
X72142857Y-139647044D02*
X72095238Y-139599424D01*
X72095238Y-139599424D02*
X72095238Y-139266091D01*
X72095238Y-139266091D02*
X72285714Y-139266091D01*
X71666666Y-139027996D02*
X71666666Y-139694663D01*
X71666666Y-139123234D02*
X71619047Y-139075615D01*
X71619047Y-139075615D02*
X71523809Y-139027996D01*
X71523809Y-139027996D02*
X71380952Y-139027996D01*
X71380952Y-139027996D02*
X71285714Y-139075615D01*
X71285714Y-139075615D02*
X71238095Y-139170853D01*
X71238095Y-139170853D02*
X71238095Y-139694663D01*
X70333333Y-139694663D02*
X70333333Y-138694663D01*
X70333333Y-139647044D02*
X70428571Y-139694663D01*
X70428571Y-139694663D02*
X70619047Y-139694663D01*
X70619047Y-139694663D02*
X70714285Y-139647044D01*
X70714285Y-139647044D02*
X70761904Y-139599424D01*
X70761904Y-139599424D02*
X70809523Y-139504186D01*
X70809523Y-139504186D02*
X70809523Y-139218472D01*
X70809523Y-139218472D02*
X70761904Y-139123234D01*
X70761904Y-139123234D02*
X70714285Y-139075615D01*
X70714285Y-139075615D02*
X70619047Y-139027996D01*
X70619047Y-139027996D02*
X70428571Y-139027996D01*
X70428571Y-139027996D02*
X70333333Y-139075615D01*
X73938094Y-133394663D02*
X73366666Y-133394663D01*
X73652380Y-134394663D02*
X73652380Y-133394663D01*
X73033332Y-134394663D02*
X73033332Y-133394663D01*
X73033332Y-133394663D02*
X72652380Y-133394663D01*
X72652380Y-133394663D02*
X72557142Y-133442282D01*
X72557142Y-133442282D02*
X72509523Y-133489901D01*
X72509523Y-133489901D02*
X72461904Y-133585139D01*
X72461904Y-133585139D02*
X72461904Y-133727996D01*
X72461904Y-133727996D02*
X72509523Y-133823234D01*
X72509523Y-133823234D02*
X72557142Y-133870853D01*
X72557142Y-133870853D02*
X72652380Y-133918472D01*
X72652380Y-133918472D02*
X73033332Y-133918472D01*
X72080951Y-133489901D02*
X72033332Y-133442282D01*
X72033332Y-133442282D02*
X71938094Y-133394663D01*
X71938094Y-133394663D02*
X71699999Y-133394663D01*
X71699999Y-133394663D02*
X71604761Y-133442282D01*
X71604761Y-133442282D02*
X71557142Y-133489901D01*
X71557142Y-133489901D02*
X71509523Y-133585139D01*
X71509523Y-133585139D02*
X71509523Y-133680377D01*
X71509523Y-133680377D02*
X71557142Y-133823234D01*
X71557142Y-133823234D02*
X72128570Y-134394663D01*
X72128570Y-134394663D02*
X71509523Y-134394663D01*
X71128570Y-133489901D02*
X71080951Y-133442282D01*
X71080951Y-133442282D02*
X70985713Y-133394663D01*
X70985713Y-133394663D02*
X70747618Y-133394663D01*
X70747618Y-133394663D02*
X70652380Y-133442282D01*
X70652380Y-133442282D02*
X70604761Y-133489901D01*
X70604761Y-133489901D02*
X70557142Y-133585139D01*
X70557142Y-133585139D02*
X70557142Y-133680377D01*
X70557142Y-133680377D02*
X70604761Y-133823234D01*
X70604761Y-133823234D02*
X71176189Y-134394663D01*
X71176189Y-134394663D02*
X70557142Y-134394663D01*
X92117945Y-91852644D02*
X92165565Y-91805025D01*
X92165565Y-91805025D02*
X92213184Y-91662168D01*
X92213184Y-91662168D02*
X92213184Y-91566930D01*
X92213184Y-91566930D02*
X92165565Y-91424073D01*
X92165565Y-91424073D02*
X92070326Y-91328835D01*
X92070326Y-91328835D02*
X91975088Y-91281216D01*
X91975088Y-91281216D02*
X91784612Y-91233597D01*
X91784612Y-91233597D02*
X91641755Y-91233597D01*
X91641755Y-91233597D02*
X91451279Y-91281216D01*
X91451279Y-91281216D02*
X91356041Y-91328835D01*
X91356041Y-91328835D02*
X91260803Y-91424073D01*
X91260803Y-91424073D02*
X91213184Y-91566930D01*
X91213184Y-91566930D02*
X91213184Y-91662168D01*
X91213184Y-91662168D02*
X91260803Y-91805025D01*
X91260803Y-91805025D02*
X91308422Y-91852644D01*
X91213184Y-92138359D02*
X91213184Y-92709787D01*
X92213184Y-92424073D02*
X91213184Y-92424073D01*
X92213184Y-93614549D02*
X91736993Y-93281216D01*
X92213184Y-93043121D02*
X91213184Y-93043121D01*
X91213184Y-93043121D02*
X91213184Y-93424073D01*
X91213184Y-93424073D02*
X91260803Y-93519311D01*
X91260803Y-93519311D02*
X91308422Y-93566930D01*
X91308422Y-93566930D02*
X91403660Y-93614549D01*
X91403660Y-93614549D02*
X91546517Y-93614549D01*
X91546517Y-93614549D02*
X91641755Y-93566930D01*
X91641755Y-93566930D02*
X91689374Y-93519311D01*
X91689374Y-93519311D02*
X91736993Y-93424073D01*
X91736993Y-93424073D02*
X91736993Y-93043121D01*
X92213184Y-94519311D02*
X92213184Y-94043121D01*
X92213184Y-94043121D02*
X91213184Y-94043121D01*
X92213184Y-96138359D02*
X92213184Y-95566931D01*
X92213184Y-95852645D02*
X91213184Y-95852645D01*
X91213184Y-95852645D02*
X91356041Y-95757407D01*
X91356041Y-95757407D02*
X91451279Y-95662169D01*
X91451279Y-95662169D02*
X91498898Y-95566931D01*
X92213184Y-96471693D02*
X91546517Y-96995502D01*
X91546517Y-96471693D02*
X92213184Y-96995502D01*
X91641755Y-97519312D02*
X91594136Y-97424074D01*
X91594136Y-97424074D02*
X91546517Y-97376455D01*
X91546517Y-97376455D02*
X91451279Y-97328836D01*
X91451279Y-97328836D02*
X91403660Y-97328836D01*
X91403660Y-97328836D02*
X91308422Y-97376455D01*
X91308422Y-97376455D02*
X91260803Y-97424074D01*
X91260803Y-97424074D02*
X91213184Y-97519312D01*
X91213184Y-97519312D02*
X91213184Y-97709788D01*
X91213184Y-97709788D02*
X91260803Y-97805026D01*
X91260803Y-97805026D02*
X91308422Y-97852645D01*
X91308422Y-97852645D02*
X91403660Y-97900264D01*
X91403660Y-97900264D02*
X91451279Y-97900264D01*
X91451279Y-97900264D02*
X91546517Y-97852645D01*
X91546517Y-97852645D02*
X91594136Y-97805026D01*
X91594136Y-97805026D02*
X91641755Y-97709788D01*
X91641755Y-97709788D02*
X91641755Y-97519312D01*
X91641755Y-97519312D02*
X91689374Y-97424074D01*
X91689374Y-97424074D02*
X91736993Y-97376455D01*
X91736993Y-97376455D02*
X91832231Y-97328836D01*
X91832231Y-97328836D02*
X92022707Y-97328836D01*
X92022707Y-97328836D02*
X92117945Y-97376455D01*
X92117945Y-97376455D02*
X92165565Y-97424074D01*
X92165565Y-97424074D02*
X92213184Y-97519312D01*
X92213184Y-97519312D02*
X92213184Y-97709788D01*
X92213184Y-97709788D02*
X92165565Y-97805026D01*
X92165565Y-97805026D02*
X92117945Y-97852645D01*
X92117945Y-97852645D02*
X92022707Y-97900264D01*
X92022707Y-97900264D02*
X91832231Y-97900264D01*
X91832231Y-97900264D02*
X91736993Y-97852645D01*
X91736993Y-97852645D02*
X91689374Y-97805026D01*
X91689374Y-97805026D02*
X91641755Y-97709788D01*
X92213184Y-98328836D02*
X91213184Y-98328836D01*
X92213184Y-98757407D02*
X91689374Y-98757407D01*
X91689374Y-98757407D02*
X91594136Y-98709788D01*
X91594136Y-98709788D02*
X91546517Y-98614550D01*
X91546517Y-98614550D02*
X91546517Y-98471693D01*
X91546517Y-98471693D02*
X91594136Y-98376455D01*
X91594136Y-98376455D02*
X91641755Y-98328836D01*
X94013184Y-94775978D02*
X94727469Y-94775978D01*
X94727469Y-94775978D02*
X94870326Y-94728359D01*
X94870326Y-94728359D02*
X94965565Y-94633121D01*
X94965565Y-94633121D02*
X95013184Y-94490264D01*
X95013184Y-94490264D02*
X95013184Y-94395026D01*
X94013184Y-95156931D02*
X94013184Y-95823597D01*
X94013184Y-95823597D02*
X95013184Y-95395026D01*
X44511904Y-139647044D02*
X44369047Y-139694663D01*
X44369047Y-139694663D02*
X44130952Y-139694663D01*
X44130952Y-139694663D02*
X44035714Y-139647044D01*
X44035714Y-139647044D02*
X43988095Y-139599424D01*
X43988095Y-139599424D02*
X43940476Y-139504186D01*
X43940476Y-139504186D02*
X43940476Y-139408948D01*
X43940476Y-139408948D02*
X43988095Y-139313710D01*
X43988095Y-139313710D02*
X44035714Y-139266091D01*
X44035714Y-139266091D02*
X44130952Y-139218472D01*
X44130952Y-139218472D02*
X44321428Y-139170853D01*
X44321428Y-139170853D02*
X44416666Y-139123234D01*
X44416666Y-139123234D02*
X44464285Y-139075615D01*
X44464285Y-139075615D02*
X44511904Y-138980377D01*
X44511904Y-138980377D02*
X44511904Y-138885139D01*
X44511904Y-138885139D02*
X44464285Y-138789901D01*
X44464285Y-138789901D02*
X44416666Y-138742282D01*
X44416666Y-138742282D02*
X44321428Y-138694663D01*
X44321428Y-138694663D02*
X44083333Y-138694663D01*
X44083333Y-138694663D02*
X43940476Y-138742282D01*
X43083333Y-139694663D02*
X43083333Y-139170853D01*
X43083333Y-139170853D02*
X43130952Y-139075615D01*
X43130952Y-139075615D02*
X43226190Y-139027996D01*
X43226190Y-139027996D02*
X43416666Y-139027996D01*
X43416666Y-139027996D02*
X43511904Y-139075615D01*
X43083333Y-139647044D02*
X43178571Y-139694663D01*
X43178571Y-139694663D02*
X43416666Y-139694663D01*
X43416666Y-139694663D02*
X43511904Y-139647044D01*
X43511904Y-139647044D02*
X43559523Y-139551805D01*
X43559523Y-139551805D02*
X43559523Y-139456567D01*
X43559523Y-139456567D02*
X43511904Y-139361329D01*
X43511904Y-139361329D02*
X43416666Y-139313710D01*
X43416666Y-139313710D02*
X43178571Y-139313710D01*
X43178571Y-139313710D02*
X43083333Y-139266091D01*
X42702380Y-139027996D02*
X42511904Y-139694663D01*
X42511904Y-139694663D02*
X42321428Y-139218472D01*
X42321428Y-139218472D02*
X42130952Y-139694663D01*
X42130952Y-139694663D02*
X41940476Y-139027996D01*
X45211904Y-133394663D02*
X44640476Y-133394663D01*
X44926190Y-134394663D02*
X44926190Y-133394663D01*
X44307142Y-134394663D02*
X44307142Y-133394663D01*
X44307142Y-133394663D02*
X43926190Y-133394663D01*
X43926190Y-133394663D02*
X43830952Y-133442282D01*
X43830952Y-133442282D02*
X43783333Y-133489901D01*
X43783333Y-133489901D02*
X43735714Y-133585139D01*
X43735714Y-133585139D02*
X43735714Y-133727996D01*
X43735714Y-133727996D02*
X43783333Y-133823234D01*
X43783333Y-133823234D02*
X43830952Y-133870853D01*
X43830952Y-133870853D02*
X43926190Y-133918472D01*
X43926190Y-133918472D02*
X44307142Y-133918472D01*
X43402380Y-133394663D02*
X42783333Y-133394663D01*
X42783333Y-133394663D02*
X43116666Y-133775615D01*
X43116666Y-133775615D02*
X42973809Y-133775615D01*
X42973809Y-133775615D02*
X42878571Y-133823234D01*
X42878571Y-133823234D02*
X42830952Y-133870853D01*
X42830952Y-133870853D02*
X42783333Y-133966091D01*
X42783333Y-133966091D02*
X42783333Y-134204186D01*
X42783333Y-134204186D02*
X42830952Y-134299424D01*
X42830952Y-134299424D02*
X42878571Y-134347044D01*
X42878571Y-134347044D02*
X42973809Y-134394663D01*
X42973809Y-134394663D02*
X43259523Y-134394663D01*
X43259523Y-134394663D02*
X43354761Y-134347044D01*
X43354761Y-134347044D02*
X43402380Y-134299424D01*
D11*
X79040000Y-108880000D02*
X79040000Y-129200000D01*
X79040000Y-129200000D02*
X84120000Y-129200000D01*
X82850000Y-108880000D02*
X79040000Y-108880000D01*
X84120000Y-110150000D02*
X82850000Y-108880000D01*
X84120000Y-129200000D02*
X84120000Y-110150000D01*
D12*
X36150000Y-136240000D02*
X38750000Y-136240000D01*
X36150000Y-136640000D02*
X36150000Y-136240000D01*
X38750000Y-136240000D02*
X38750000Y-136640000D01*
X38750000Y-136640000D02*
X36150000Y-136640000D01*
X31850000Y-107740000D02*
X32250000Y-107740000D01*
X31850000Y-110340000D02*
X31850000Y-107740000D01*
X32250000Y-107740000D02*
X32250000Y-110340000D01*
X32250000Y-110340000D02*
X31850000Y-110340000D01*
X47950000Y-136240000D02*
X50550000Y-136240000D01*
X47950000Y-136640000D02*
X47950000Y-136240000D01*
X50550000Y-136240000D02*
X50550000Y-136640000D01*
X50550000Y-136640000D02*
X47950000Y-136640000D01*
X64750000Y-34840000D02*
X67350000Y-34840000D01*
X64750000Y-35240000D02*
X64750000Y-34840000D01*
X67350000Y-34840000D02*
X67350000Y-35240000D01*
X67350000Y-35240000D02*
X64750000Y-35240000D01*
D11*
X93328521Y-64489312D02*
X93328521Y-79729312D01*
X93328521Y-79729312D02*
X95868521Y-79729312D01*
X95233521Y-64489312D02*
X93328521Y-64489312D01*
X95868521Y-65124312D02*
X95233521Y-64489312D01*
X95868521Y-79729312D02*
X95868521Y-65124312D01*
X93288521Y-41949312D02*
X93288521Y-57189312D01*
X93288521Y-57189312D02*
X95828521Y-57189312D01*
X95193521Y-41949312D02*
X93288521Y-41949312D01*
X95828521Y-42584312D02*
X95193521Y-41949312D01*
X95828521Y-57189312D02*
X95828521Y-42584312D01*
X144288521Y-41949312D02*
X144288521Y-57189312D01*
X144288521Y-57189312D02*
X146828521Y-57189312D01*
X146193521Y-41949312D02*
X144288521Y-41949312D01*
X146828521Y-42584312D02*
X146193521Y-41949312D01*
X146828521Y-57189312D02*
X146828521Y-42584312D01*
X118748521Y-135584312D02*
X118748521Y-137489312D01*
X118748521Y-137489312D02*
X123828521Y-137489312D01*
X119383521Y-134949312D02*
X118748521Y-135584312D01*
X123828521Y-134949312D02*
X119383521Y-134949312D01*
X123828521Y-137489312D02*
X123828521Y-134949312D01*
X144288521Y-92949312D02*
X144288521Y-103109312D01*
X144288521Y-103109312D02*
X146828521Y-103109312D01*
X146193521Y-92949312D02*
X144288521Y-92949312D01*
X146828521Y-93584312D02*
X146193521Y-92949312D01*
X146828521Y-103109312D02*
X146828521Y-93584312D01*
D12*
X70200000Y-136240000D02*
X72800000Y-136240000D01*
X70200000Y-136640000D02*
X70200000Y-136240000D01*
X72800000Y-136240000D02*
X72800000Y-136640000D01*
X72800000Y-136640000D02*
X70200000Y-136640000D01*
D11*
X93288521Y-84949312D02*
X93288521Y-105269312D01*
X93288521Y-105269312D02*
X95828521Y-105269312D01*
X95193521Y-84949312D02*
X93288521Y-84949312D01*
X95828521Y-85584312D02*
X95193521Y-84949312D01*
X95828521Y-105269312D02*
X95828521Y-85584312D01*
D12*
X41950000Y-136240000D02*
X44550000Y-136240000D01*
X41950000Y-136640000D02*
X41950000Y-136240000D01*
X44550000Y-136240000D02*
X44550000Y-136640000D01*
X44550000Y-136640000D02*
X41950000Y-136640000D01*
M02*
