M48
; DRILL file KiCad 10.0.0 date 2026-04-02T12:43:01
; FORMAT={-:-/ absolute / metric / decimal}
; #@! TF.CreationDate,2026-04-02T12:43:01-07:00
; #@! TF.GenerationSoftware,Kicad,Pcbnew,10.0.0
; #@! TF.FileFunction,Plated,1,2,PTH
FMAT,2
METRIC
; #@! TA.AperFunction,Plated,PTH,ViaDrill
T1C0.300
; #@! TA.AperFunction,Plated,PTH,ComponentDrill
T2C0.700
; #@! TA.AperFunction,Plated,PTH,ComponentDrill
T3C0.750
; #@! TA.AperFunction,Plated,PTH,ComponentDrill
T4C0.800
; #@! TA.AperFunction,Plated,PTH,ComponentDrill
T5C0.889
; #@! TA.AperFunction,Plated,PTH,ComponentDrill
T6C0.900
; #@! TA.AperFunction,Plated,PTH,ComponentDrill
T7C1.000
; #@! TA.AperFunction,Plated,PTH,ComponentDrill
T8C1.100
; #@! TA.AperFunction,Plated,PTH,ComponentDrill
T9C1.220
; #@! TA.AperFunction,Plated,PTH,ComponentDrill
T10C1.420
; #@! TA.AperFunction,Plated,PTH,ComponentDrill
T11C1.430
; #@! TA.AperFunction,Plated,PTH,ComponentDrill
T12C2.007
%
G90
G05
T1
X32.45Y-122.04
X33.85Y-55.04
X34.65Y-104.02
X35.45Y-109.04
X35.65Y-79.84
X36.993Y-101.497
X37.05Y-120.24
X38.05Y-94.04
X40.25Y-136.44
X40.85Y-82.04
X40.85Y-97.44
X41.25Y-46.64
X42.65Y-78.24
X42.85Y-63.04
X44.25Y-120.84
X45.65Y-79.84
X45.65Y-89.24
X46.25Y-136.44
X46.85Y-36.64
X48.25Y-53.34
X48.85Y-63.44
X49.65Y-98.24
X50.25Y-120.54
X50.25Y-128.64
X52.25Y-44.64
X52.45Y-136.44
X55.65Y-67.24
X56.25Y-80.44
X57.036Y-99.24
X57.25Y-96.64
X58.25Y-79.84
X61.25Y-86.84
X63.65Y-109.04
X63.87Y-87.66
X64.457Y-96.647
X64.85Y-40.64
X71.45Y-59.84
X73.65Y-35.04
X74.1Y-136.44
X75.65Y-118.64
X76.25Y-129.24
X77.65Y-116.04
X79.65Y-98.84
X80.45Y-101.86
X80.67Y-50.86
X80.85Y-91.44
X81.65Y-80.24
X97.059Y-55.919
X97.079Y-48.299
X97.099Y-45.759
X97.119Y-53.379
X97.139Y-50.839
X97.159Y-43.219
X97.439Y-91.299
X97.459Y-98.919
X97.519Y-70.839
X97.519Y-96.379
X97.539Y-93.839
X97.539Y-103.999
X97.559Y-75.919
X97.559Y-78.459
X97.559Y-86.219
X97.559Y-101.459
X97.579Y-73.379
X97.599Y-65.759
X101.359Y-104.619
X107.959Y-59.019
X119.884Y-133.619
X122.424Y-133.619
X143.359Y-94.219
X143.359Y-96.759
X143.359Y-99.299
X143.359Y-101.839
T2
X28.93Y-112.24
X30.85Y-123.22
X30.85Y-125.76
X30.85Y-128.44
X30.85Y-130.98
X31.25Y-60.44
X31.47Y-112.24
X33.79Y-60.44
X34.51Y-131.04
X35.05Y-53.64
X35.11Y-45.64
X35.11Y-48.24
X35.11Y-56.44
X35.13Y-50.84
X35.44Y-96.44
X35.64Y-73.64
X35.65Y-76.64
X35.84Y-83.64
X37.05Y-131.04
X37.59Y-53.64
X37.65Y-45.64
X37.65Y-48.24
X37.65Y-56.44
X37.67Y-50.84
X37.98Y-96.44
X38.01Y-109.04
X38.38Y-83.64
X39.65Y-60.52
X39.65Y-63.06
X41.05Y-94.84
X42.51Y-34.44
X42.51Y-40.44
X43.26Y-73.64
X43.27Y-76.64
X43.64Y-98.04
X43.65Y-52.83
X43.65Y-60.45
X45.05Y-34.44
X45.05Y-40.44
X45.11Y-131.64
X45.43Y-122.44
X45.63Y-109.04
X45.65Y-111.7
X45.65Y-114.24
X46.18Y-98.04
X46.45Y-60.41
X46.45Y-68.03
X47.65Y-131.64
X47.85Y-125.42
X47.85Y-127.96
X47.97Y-122.44
X48.63Y-102.24
X48.67Y-94.84
X51.17Y-102.24
X51.25Y-66.43
X51.25Y-74.05
X53.65Y-77.64
X53.65Y-80.18
X53.65Y-93.82
X53.65Y-96.36
X55.65Y-43.84
X55.65Y-46.38
X55.65Y-107.04
X55.65Y-109.58
X57.05Y-93.84
X58.51Y-41.44
X59.59Y-93.84
X61.05Y-41.44
X61.45Y-107.04
X61.45Y-109.58
X61.85Y-45.84
X61.85Y-48.38
X64.03Y-66.64
X64.44Y-136.24
X65.85Y-101.42
X65.85Y-109.04
X65.91Y-45.84
X66.05Y-51.24
X66.57Y-66.64
X66.65Y-70.83
X66.65Y-73.37
X66.91Y-127.24
X66.98Y-136.24
X68.45Y-45.84
X68.59Y-51.24
X68.91Y-94.64
X69.45Y-127.24
X69.51Y-114.64
X71.45Y-67.3
X71.45Y-69.84
X71.45Y-94.64
X72.05Y-114.64
X72.33Y-125.44
X74.85Y-93.12
X74.85Y-95.66
X74.87Y-125.44
X75.91Y-52.64
X75.91Y-56.44
X75.91Y-60.44
X75.91Y-64.44
X78.45Y-52.64
X78.45Y-56.44
X78.45Y-60.44
X78.45Y-64.44
X78.65Y-93.12
X78.65Y-95.66
T3
X36.95Y-68.04
X39.15Y-102.24
X41.95Y-68.04
X43.05Y-84.14
X43.05Y-89.14
X43.65Y-49.24
X44.15Y-102.24
X48.65Y-49.24
X61.25Y-75.04
X61.25Y-80.04
X82.85Y-61.04
X82.85Y-66.04
T4
X30.65Y-115.44
X30.65Y-120.44
X34.43Y-112.64
X34.43Y-115.18
X34.43Y-117.72
X34.43Y-120.26
X34.43Y-122.8
X34.43Y-125.34
X34.43Y-127.88
X42.05Y-112.64
X42.05Y-115.18
X42.05Y-117.72
X42.05Y-120.26
X42.05Y-122.8
X42.05Y-125.34
X42.05Y-127.88
X43.65Y-79.84
X44.75Y-118.44
X48.55Y-34.44
X48.63Y-83.02
X48.63Y-90.64
X48.65Y-79.84
X49.65Y-40.44
X49.65Y-45.44
X49.75Y-118.44
X51.17Y-83.02
X51.17Y-90.64
X51.23Y-55.84
X51.23Y-63.46
X52.45Y-120.54
X52.45Y-125.54
X52.45Y-128.64
X52.45Y-133.64
X53.55Y-34.44
X53.65Y-51.24
X53.71Y-83.02
X53.71Y-90.64
X53.77Y-55.84
X53.77Y-63.46
X56.25Y-83.02
X56.25Y-90.64
X56.31Y-55.84
X56.31Y-63.46
X58.65Y-51.24
X58.79Y-83.02
X58.79Y-90.64
X58.85Y-55.84
X58.85Y-63.46
X58.85Y-67.14
X58.85Y-72.14
X59.65Y-121.54
X59.65Y-124.04
X59.85Y-128.64
X59.85Y-131.14
X61.33Y-83.02
X61.33Y-90.64
X61.39Y-55.84
X61.39Y-63.46
X63.87Y-83.02
X63.87Y-90.64
X63.93Y-55.84
X63.93Y-63.46
X66.41Y-83.02
X66.41Y-90.64
X66.47Y-55.84
X66.47Y-63.46
X69.45Y-75.44
X69.45Y-80.44
X69.57Y-100.04
X69.57Y-107.84
X71.17Y-40.44
X72.11Y-100.04
X72.11Y-107.84
X73.71Y-40.44
X74.65Y-100.04
X74.65Y-107.84
X76.25Y-40.44
X76.675Y-82.9
X76.675Y-85.44
X76.675Y-87.98
X76.855Y-72.3
X76.855Y-74.84
X76.855Y-77.38
X103.879Y-57.219
X106.419Y-57.219
X108.959Y-57.219
X114.079Y-57.219
X116.619Y-57.219
X119.159Y-57.219
X124.279Y-57.219
X126.819Y-57.219
X129.359Y-57.219
T5
X57.98Y-33.84
X59.25Y-36.38
X60.52Y-33.84
X100.459Y-39.019
X100.459Y-41.519
X100.459Y-44.019
X100.459Y-46.519
X100.459Y-49.019
X118.759Y-39.019
X118.759Y-41.519
X118.759Y-44.019
X118.759Y-46.519
X118.759Y-49.019
T6
X118.819Y-130.219
X121.359Y-130.219
T7
X32.05Y-43.24
X32.05Y-45.78
X32.05Y-48.32
X32.05Y-50.86
X32.05Y-53.4
X32.05Y-55.94
X32.05Y-66.24
X32.05Y-68.78
X32.05Y-71.32
X32.05Y-73.86
X32.05Y-76.4
X32.05Y-78.94
X32.05Y-86.24
X32.05Y-88.78
X32.05Y-91.32
X32.05Y-93.86
X32.05Y-96.4
X32.05Y-98.94
X32.05Y-101.48
X32.05Y-104.02
X32.05Y-109.04
X37.45Y-136.44
X43.25Y-136.44
X49.25Y-136.44
X57.31Y-136.24
X59.85Y-136.24
X66.05Y-35.04
X71.5Y-136.44
X80.31Y-110.15
X80.31Y-112.69
X80.31Y-115.23
X80.31Y-117.77
X80.31Y-120.31
X80.31Y-122.85
X80.31Y-125.39
X80.31Y-127.93
X82.85Y-43.24
X82.85Y-45.78
X82.85Y-48.32
X82.85Y-50.86
X82.85Y-53.4
X82.85Y-55.94
X82.85Y-94.24
X82.85Y-96.78
X82.85Y-99.32
X82.85Y-101.86
X82.85Y-110.15
X82.85Y-112.69
X82.85Y-115.23
X82.85Y-117.77
X82.85Y-120.31
X82.85Y-122.85
X82.85Y-125.39
X82.85Y-127.93
X94.559Y-43.219
X94.559Y-45.759
X94.559Y-48.299
X94.559Y-50.839
X94.559Y-53.379
X94.559Y-55.919
X94.559Y-86.219
X94.559Y-88.759
X94.559Y-91.299
X94.559Y-93.839
X94.559Y-96.379
X94.559Y-98.919
X94.559Y-101.459
X94.559Y-103.999
X94.599Y-65.759
X94.599Y-68.299
X94.599Y-70.839
X94.599Y-73.379
X94.599Y-75.919
X94.599Y-78.459
X107.159Y-81.219
X107.159Y-83.719
X107.159Y-86.219
X120.019Y-136.219
X122.559Y-136.219
X122.659Y-41.469
X122.659Y-43.969
X122.659Y-46.469
X128.759Y-81.619
X128.759Y-84.119
X128.759Y-86.619
X128.759Y-96.819
X128.759Y-99.319
X128.759Y-101.819
X145.559Y-43.219
X145.559Y-45.759
X145.559Y-48.299
X145.559Y-50.839
X145.559Y-53.379
X145.559Y-55.919
X145.559Y-94.219
X145.559Y-96.759
X145.559Y-99.299
X145.559Y-101.839
T8
X65.49Y-121.04
X66.09Y-131.64
X75.65Y-121.04
X76.25Y-131.64
T9
X103.759Y-112.819
X103.959Y-62.819
X103.959Y-93.239
X114.559Y-112.819
X114.759Y-62.839
X125.359Y-112.819
X125.559Y-62.819
X136.159Y-112.819
X136.359Y-62.819
T10
X103.759Y-115.919
X103.959Y-65.919
X103.959Y-96.339
X114.559Y-115.919
X114.759Y-65.939
X125.359Y-115.919
X125.559Y-65.919
X136.159Y-115.919
X136.359Y-65.919
T11
X103.759Y-124.219
X103.959Y-74.219
X103.959Y-104.639
X114.559Y-124.219
X114.759Y-74.239
X125.359Y-124.219
X125.559Y-74.219
X136.159Y-124.219
X136.359Y-74.219
T12
X110.588Y-36.019
X110.588Y-52.019
T7
X115.209Y-95.169G85X113.909Y-95.169
G05
X115.209Y-99.619G85X113.909Y-99.619
G05
X115.209Y-104.069G85X113.909Y-104.069
G05
T8
X114.659Y-78.619G85X114.659Y-79.319
G05
X114.659Y-88.119G85X114.659Y-88.819
G05
X130.159Y-38.869G85X130.159Y-39.569
G05
X130.159Y-48.369G85X130.159Y-49.069
G05
X136.259Y-79.019G85X136.259Y-79.719
G05
X136.259Y-88.519G85X136.259Y-89.219
G05
X136.259Y-94.219G85X136.259Y-94.919
G05
X136.259Y-103.719G85X136.259Y-104.419
G05
M30
