G04 #@! TF.GenerationSoftware,KiCad,Pcbnew,10.0.0*
G04 #@! TF.CreationDate,2026-04-02T12:42:41-07:00*
G04 #@! TF.ProjectId,VCO 2,56434f20-322e-46b6-9963-61645f706362,rev?*
G04 #@! TF.SameCoordinates,Original*
G04 #@! TF.FileFunction,Soldermask,Top*
G04 #@! TF.FilePolarity,Negative*
%FSLAX46Y46*%
G04 Gerber Fmt 4.6, Leading zero omitted, Abs format (unit mm)*
G04 Created by KiCad (PCBNEW 10.0.0) date 2026-04-02 12:42:41*
%MOMM*%
%LPD*%
G01*
G04 APERTURE LIST*
G04 Aperture macros list*
%AMRoundRect*
0 Rectangle with rounded corners*
0 $1 Rounding radius*
0 $2 $3 $4 $5 $6 $7 $8 $9 X,Y pos of 4 corners*
0 Add a 4 corners polygon primitive as box body*
4,1,4,$2,$3,$4,$5,$6,$7,$8,$9,$2,$3,0*
0 Add four circle primitives for the rounded corners*
1,1,$1+$1,$2,$3*
1,1,$1+$1,$4,$5*
1,1,$1+$1,$6,$7*
1,1,$1+$1,$8,$9*
0 Add four rect primitives between the rounded corners*
20,1,$1+$1,$2,$3,$4,$5,0*
20,1,$1+$1,$4,$5,$6,$7,0*
20,1,$1+$1,$6,$7,$8,$9,0*
20,1,$1+$1,$8,$9,$2,$3,0*%
G04 Aperture macros list end*
%ADD10C,1.440000*%
%ADD11C,2.130000*%
%ADD12R,1.930000X1.830000*%
%ADD13C,2.700000*%
%ADD14RoundRect,0.500000X-0.500000X-1.000000X0.500000X-1.000000X0.500000X1.000000X-0.500000X1.000000X0*%
%ADD15C,1.800000*%
%ADD16R,1.800000X1.800000*%
%ADD17C,2.514600*%
%ADD18C,1.397000*%
%ADD19C,1.700000*%
%ADD20R,1.700000X1.700000*%
%ADD21C,3.200000*%
%ADD22C,1.400000*%
%ADD23C,1.500000*%
%ADD24C,1.600000*%
%ADD25C,2.200000*%
%ADD26RoundRect,0.249999X0.850001X0.850001X-0.850001X0.850001X-0.850001X-0.850001X0.850001X-0.850001X0*%
%ADD27RoundRect,0.250000X0.550000X-0.550000X0.550000X0.550000X-0.550000X0.550000X-0.550000X-0.550000X0*%
%ADD28RoundRect,0.250000X-0.550000X-0.550000X0.550000X-0.550000X0.550000X0.550000X-0.550000X0.550000X0*%
%ADD29R,1.500000X1.500000*%
%ADD30RoundRect,0.249999X-0.850001X-0.850001X0.850001X-0.850001X0.850001X0.850001X-0.850001X0.850001X0*%
%ADD31RoundRect,0.250000X-0.550000X0.550000X-0.550000X-0.550000X0.550000X-0.550000X0.550000X0.550000X0*%
%ADD32R,1.397000X1.397000*%
%ADD33C,2.000000*%
G04 APERTURE END LIST*
D10*
X103878521Y-57219312D03*
X106418521Y-57219312D03*
X108958521Y-57219312D03*
D11*
X136358521Y-65919312D03*
X136358521Y-74219312D03*
D12*
X136358521Y-62819312D03*
D13*
X145158521Y-135819312D03*
D11*
X114758521Y-65939312D03*
X114758521Y-74239312D03*
D12*
X114758521Y-62839312D03*
D11*
X103758521Y-115919312D03*
X103758521Y-124219312D03*
D12*
X103758521Y-112819312D03*
D14*
X136258521Y-104069312D03*
X136258521Y-94569312D03*
D15*
X128758521Y-101819312D03*
X128758521Y-99319312D03*
D16*
X128758521Y-96819312D03*
D17*
X110588454Y-36019308D03*
X110588454Y-52019312D03*
D18*
X118758521Y-39019310D03*
X118758521Y-41519310D03*
X118758521Y-44019310D03*
X118758521Y-46519310D03*
X118758521Y-49019310D03*
X100458522Y-39019310D03*
X100458522Y-41519310D03*
X100458522Y-44019310D03*
X100458522Y-46519310D03*
X100458522Y-49019310D03*
D14*
X136258521Y-88869312D03*
X136258521Y-79369312D03*
D15*
X128758521Y-86619312D03*
X128758521Y-84119312D03*
D16*
X128758521Y-81619312D03*
D11*
X125358521Y-115919312D03*
X125358521Y-124219312D03*
D12*
X125358521Y-112819312D03*
D19*
X94598521Y-78459312D03*
X94598521Y-75919312D03*
X94598521Y-73379312D03*
X94598521Y-70839312D03*
X94598521Y-68299312D03*
D20*
X94598521Y-65759312D03*
D19*
X94558521Y-103999312D03*
X94558521Y-101459312D03*
X94558521Y-98919312D03*
X94558521Y-96379312D03*
X94558521Y-93839312D03*
X94558521Y-91299312D03*
X94558521Y-88759312D03*
D20*
X94558521Y-86219312D03*
D13*
X145158521Y-35419312D03*
D11*
X114558521Y-115919312D03*
X114558521Y-124219312D03*
D12*
X114558521Y-112819312D03*
D13*
X94558521Y-35419312D03*
D10*
X124278521Y-57219312D03*
X126818521Y-57219312D03*
X129358521Y-57219312D03*
D19*
X94558521Y-55919312D03*
X94558521Y-53379312D03*
X94558521Y-50839312D03*
X94558521Y-48299312D03*
X94558521Y-45759312D03*
D20*
X94558521Y-43219312D03*
D19*
X145558521Y-55919312D03*
X145558521Y-53379312D03*
X145558521Y-50839312D03*
X145558521Y-48299312D03*
X145558521Y-45759312D03*
D20*
X145558521Y-43219312D03*
D14*
X114658521Y-88469312D03*
X114658521Y-78969312D03*
D15*
X107158521Y-86219312D03*
X107158521Y-83719312D03*
D16*
X107158521Y-81219312D03*
D11*
X103958521Y-96339312D03*
X103958521Y-104639312D03*
D12*
X103958521Y-93239312D03*
D13*
X94558521Y-135819312D03*
D11*
X136158521Y-115919312D03*
X136158521Y-124219312D03*
D12*
X136158521Y-112819312D03*
D14*
X130158521Y-48719312D03*
X130158521Y-39219312D03*
D15*
X122658521Y-46469312D03*
X122658521Y-43969312D03*
D16*
X122658521Y-41469312D03*
D11*
X103958521Y-65919312D03*
X103958521Y-74219312D03*
D12*
X103958521Y-62819312D03*
D15*
X118818521Y-130219312D03*
D16*
X121358521Y-130219312D03*
D19*
X122558521Y-136219312D03*
D20*
X120018521Y-136219312D03*
D10*
X114078521Y-57219312D03*
X116618521Y-57219312D03*
X119158521Y-57219312D03*
D19*
X145558521Y-101839312D03*
X145558521Y-99299312D03*
X145558521Y-96759312D03*
D20*
X145558521Y-94219312D03*
D11*
X125558521Y-65919312D03*
X125558521Y-74219312D03*
D12*
X125558521Y-62819312D03*
D21*
X159700000Y-147140000D03*
X205200000Y-147140000D03*
X205200000Y-24750000D03*
D22*
X47970000Y-122440000D03*
X45430000Y-122440000D03*
X38380000Y-83640000D03*
X35840000Y-83640000D03*
D19*
X32050000Y-104020000D03*
X32050000Y-101480000D03*
X32050000Y-98940000D03*
X32050000Y-96400000D03*
X32050000Y-93860000D03*
X32050000Y-91320000D03*
X32050000Y-88780000D03*
D20*
X32050000Y-86240000D03*
D13*
X32050000Y-35440000D03*
D22*
X55650000Y-46380000D03*
X55650000Y-43840000D03*
X75910000Y-64440000D03*
X78450000Y-64440000D03*
D19*
X32050000Y-78940000D03*
X32050000Y-76400000D03*
X32050000Y-73860000D03*
X32050000Y-71320000D03*
X32050000Y-68780000D03*
D20*
X32050000Y-66240000D03*
D21*
X159720000Y-24750000D03*
D19*
X82850000Y-101860000D03*
X82850000Y-99320000D03*
X82850000Y-96780000D03*
D20*
X82850000Y-94240000D03*
D23*
X44150000Y-102240000D03*
X39150000Y-102240000D03*
D22*
X43650000Y-60450000D03*
X43650000Y-52830000D03*
D10*
X71170000Y-40440000D03*
X73710000Y-40440000D03*
X76250000Y-40440000D03*
D24*
X43650000Y-79840000D03*
X48650000Y-79840000D03*
D22*
X35050000Y-53640000D03*
X37590000Y-53640000D03*
X53650000Y-96360000D03*
X53650000Y-93820000D03*
D24*
X53550000Y-34440000D03*
X48550000Y-34440000D03*
X58850000Y-67140000D03*
X58850000Y-72140000D03*
D22*
X37980000Y-96440000D03*
X35440000Y-96440000D03*
X35110000Y-48240000D03*
X37650000Y-48240000D03*
D25*
X65490000Y-121040000D03*
D26*
X75650000Y-121040000D03*
D24*
X59650000Y-121540000D03*
D27*
X59650000Y-124040000D03*
D22*
X66570000Y-66640000D03*
X64030000Y-66640000D03*
X74850000Y-93120000D03*
X74850000Y-95660000D03*
D24*
X52450000Y-120540000D03*
X52450000Y-125540000D03*
D22*
X66650000Y-73370000D03*
X66650000Y-70830000D03*
D24*
X42050000Y-112640000D03*
X42050000Y-115180000D03*
X42050000Y-117720000D03*
X42050000Y-120260000D03*
X42050000Y-122800000D03*
X42050000Y-125340000D03*
X42050000Y-127880000D03*
X34430000Y-127880000D03*
X34430000Y-125340000D03*
X34430000Y-122800000D03*
X34430000Y-120260000D03*
X34430000Y-117720000D03*
X34430000Y-115180000D03*
D28*
X34430000Y-112640000D03*
D22*
X55650000Y-109580000D03*
X55650000Y-107040000D03*
X30850000Y-125760000D03*
X30850000Y-123220000D03*
D19*
X82850000Y-55940000D03*
X82850000Y-53400000D03*
X82850000Y-50860000D03*
X82850000Y-48320000D03*
X82850000Y-45780000D03*
D20*
X82850000Y-43240000D03*
D22*
X58510000Y-41440000D03*
X61050000Y-41440000D03*
X28930000Y-112240000D03*
X31470000Y-112240000D03*
X61850000Y-48380000D03*
X61850000Y-45840000D03*
D13*
X32050000Y-135840000D03*
D10*
X76855000Y-72300000D03*
X76855000Y-74840000D03*
X76855000Y-77380000D03*
D24*
X49650000Y-45440000D03*
X49650000Y-40440000D03*
D23*
X43050000Y-89140000D03*
X43050000Y-84140000D03*
X69570000Y-100040000D03*
X72110000Y-100040000D03*
D29*
X74650000Y-100040000D03*
D22*
X68910000Y-94640000D03*
X71450000Y-94640000D03*
X45110000Y-131640000D03*
X47650000Y-131640000D03*
X59590000Y-93840000D03*
X57050000Y-93840000D03*
D10*
X76675000Y-82900000D03*
X76675000Y-85440000D03*
X76675000Y-87980000D03*
D22*
X51250000Y-74050000D03*
X51250000Y-66430000D03*
D24*
X44750000Y-118440000D03*
X49750000Y-118440000D03*
X30650000Y-120440000D03*
X30650000Y-115440000D03*
D22*
X66910000Y-127240000D03*
X69450000Y-127240000D03*
D24*
X52450000Y-133640000D03*
X52450000Y-128640000D03*
D22*
X39650000Y-60520000D03*
X39650000Y-63060000D03*
X43270000Y-76640000D03*
X35650000Y-76640000D03*
X69510000Y-114640000D03*
X72050000Y-114640000D03*
X68590000Y-51240000D03*
X66050000Y-51240000D03*
X48670000Y-94840000D03*
X41050000Y-94840000D03*
X61450000Y-107040000D03*
X61450000Y-109580000D03*
X71450000Y-67300000D03*
X71450000Y-69840000D03*
D24*
X69450000Y-80440000D03*
X69450000Y-75440000D03*
D22*
X33790000Y-60440000D03*
X31250000Y-60440000D03*
X35110000Y-45640000D03*
X37650000Y-45640000D03*
X75910000Y-52640000D03*
X78450000Y-52640000D03*
X45650000Y-111700000D03*
X45650000Y-114240000D03*
D13*
X82650000Y-35440000D03*
D22*
X47850000Y-127960000D03*
X47850000Y-125420000D03*
D25*
X76250000Y-131640000D03*
D30*
X66090000Y-131640000D03*
D19*
X59850000Y-136240000D03*
D20*
X57310000Y-136240000D03*
D22*
X75910000Y-60440000D03*
X78450000Y-60440000D03*
D24*
X66470000Y-63460000D03*
X63930000Y-63460000D03*
X61390000Y-63460000D03*
X58850000Y-63460000D03*
X56310000Y-63460000D03*
X53770000Y-63460000D03*
X51230000Y-63460000D03*
X51230000Y-55840000D03*
X53770000Y-55840000D03*
X56310000Y-55840000D03*
X58850000Y-55840000D03*
X61390000Y-55840000D03*
X63930000Y-55840000D03*
D31*
X66470000Y-55840000D03*
D22*
X78650000Y-93120000D03*
X78650000Y-95660000D03*
D18*
X57980000Y-33840000D03*
X59250000Y-36380000D03*
D32*
X60520000Y-33840000D03*
D22*
X65910000Y-45840000D03*
X68450000Y-45840000D03*
D24*
X48630000Y-83020000D03*
X51170000Y-83020000D03*
X53710000Y-83020000D03*
X56250000Y-83020000D03*
X58790000Y-83020000D03*
X61330000Y-83020000D03*
X63870000Y-83020000D03*
X66410000Y-83020000D03*
X66410000Y-90640000D03*
X63870000Y-90640000D03*
X61330000Y-90640000D03*
X58790000Y-90640000D03*
X56250000Y-90640000D03*
X53710000Y-90640000D03*
X51170000Y-90640000D03*
D27*
X48630000Y-90640000D03*
D22*
X42510000Y-34440000D03*
X45050000Y-34440000D03*
X53650000Y-80180000D03*
X53650000Y-77640000D03*
D19*
X32050000Y-55940000D03*
X32050000Y-53400000D03*
X32050000Y-50860000D03*
X32050000Y-48320000D03*
X32050000Y-45780000D03*
D20*
X32050000Y-43240000D03*
D22*
X43260000Y-73640000D03*
X35640000Y-73640000D03*
D13*
X82650000Y-135840000D03*
D23*
X41950000Y-68040000D03*
X36950000Y-68040000D03*
D24*
X53650000Y-51240000D03*
X58650000Y-51240000D03*
D22*
X75910000Y-56440000D03*
X78450000Y-56440000D03*
X66980000Y-136240000D03*
X64440000Y-136240000D03*
X65850000Y-101420000D03*
X65850000Y-109040000D03*
D23*
X69570000Y-107840000D03*
X72110000Y-107840000D03*
D29*
X74650000Y-107840000D03*
D23*
X43650000Y-49240000D03*
X48650000Y-49240000D03*
D22*
X42510000Y-40440000D03*
X45050000Y-40440000D03*
X51170000Y-102240000D03*
X48630000Y-102240000D03*
D24*
X59850000Y-131140000D03*
D31*
X59850000Y-128640000D03*
D22*
X35130000Y-50840000D03*
X37670000Y-50840000D03*
X46180000Y-98040000D03*
X43640000Y-98040000D03*
D23*
X61250000Y-75040000D03*
X61250000Y-80040000D03*
D22*
X37050000Y-131040000D03*
X34510000Y-131040000D03*
X38010000Y-109040000D03*
X45630000Y-109040000D03*
X30850000Y-130980000D03*
X30850000Y-128440000D03*
X46450000Y-60410000D03*
X46450000Y-68030000D03*
X35110000Y-56440000D03*
X37650000Y-56440000D03*
D23*
X82850000Y-61040000D03*
X82850000Y-66040000D03*
D22*
X72330000Y-125440000D03*
X74870000Y-125440000D03*
D19*
X80310000Y-127930000D03*
X82850000Y-127930000D03*
X80310000Y-125390000D03*
X82850000Y-125390000D03*
X80310000Y-122850000D03*
X82850000Y-122850000D03*
X80310000Y-120310000D03*
X82850000Y-120310000D03*
X80310000Y-117770000D03*
X82850000Y-117770000D03*
X80310000Y-115230000D03*
X82850000Y-115230000D03*
X80310000Y-112690000D03*
X82850000Y-112690000D03*
X80310000Y-110150000D03*
D20*
X82850000Y-110150000D03*
D33*
X37450000Y-136440000D03*
X32050000Y-109040000D03*
X49250000Y-136440000D03*
X66050000Y-35040000D03*
X71500000Y-136440000D03*
X43250000Y-136440000D03*
M02*
